;TYPE=PLATED
;Layer: PTH_Through
;EasyEDA Pro v3.2.148, 2026-07-21 18:28:32
;Gerber Generator version 0.3
M48
METRIC,LZ,0000.00000
;Hole size 1 = 0.30500 METRIC
T01C0.30500
;Hole size 2 = 1.00000 METRIC
T02C1.00000
;Hole size 3 = 1.00000 METRIC
T03C1.00000
;Hole size 4 = 1.24998 METRIC
T04C1.24998
;Hole size 5 = 3.20000 METRIC
T05C3.20000
%
G05
G90
T01
X93.853Y-38.81379
X44.958Y-29.591
X62.357Y-21.082
T02
X47.559Y-89.00301
X45.019Y-89.00301
X42.479Y-89.00301
X50.099Y-89.00301
X52.639Y-89.00301
T03
X88.74887Y-90.019
X91.28887Y-90.019
X93.82887Y-90.019
X96.36887Y-90.019
X98.90887Y-90.019
X101.44887Y-90.019
X86.20887Y-90.019
X83.66887Y-90.019
X86.20902Y-41.5265
X88.74902Y-41.5265
X91.28902Y-41.5265
X93.82902Y-41.5265
X96.36902Y-41.5265
X98.90902Y-41.5265
T04
X53.909Y-42.418
X51.369Y-42.418
X48.829Y-42.418
X46.289Y-42.418
X43.749Y-42.418
X41.209Y-42.418
X41.209Y-52.918
X43.749Y-52.918
X46.289Y-52.918
X48.829Y-52.918
X51.369Y-52.918
X53.909Y-52.918
T05
X70.059Y-60.788
M30