G04 Layer: TopSilkscreenLayer*
G04 EasyEDA Pro v3.2.148, 2026-07-21 18:28:31*
G04 Gerber Generator version 0.3*
G04 Scale: 100 percent, Rotated: No, Reflected: No*
G04 Dimensions in millimeters*
G04 Leading zeros omitted, absolute positions, 4 integers and 5 decimals*
G04 Generated by one-click*
G04 Object Configs: Pad,Via,Track,Text,Image,Dimension,BoardOutline,BoardCutout,CopperFilled,SolidRegion,FPCStiffener,Line,PlaneZone,ComponentProperty,ComponentSilkscreen,TearDrop*
G04 Layer Configs: 1,2,3,4,5,6,7,8,9,10,11,13,14,56*
G04 Copper Areas: 0*
%FSLAX45Y45*%
%MOMM*%
%ADD10C,0.2032*%
%ADD11C,0.1524*%
%ADD12C,0.2*%
%ADD13C,0.254*%
%ADD14C,0.127*%
%ADD15C,0.4914*%
G75*


G04 Text Start*
G36*
G01X3237718Y-9986375D02*
G01X3212567Y-9986072D01*
G01X3212567Y-9984254D01*
G01X3215294Y-9976072D01*
G01X3216506Y-9973042D01*
G01X3217718Y-9969406D01*
G01X3220143Y-9962739D01*
G01X3221355Y-9959103D01*
G01X3222567Y-9956072D01*
G01X3223476Y-9953345D01*
G01X3225294Y-9948497D01*
G01X3226203Y-9945769D01*
G01X3228021Y-9940921D01*
G01X3229840Y-9935466D01*
G01X3231052Y-9932436D01*
G01X3232264Y-9928800D01*
G01X3235900Y-9918800D01*
G01X3237415Y-9916981D01*
G01X3238173Y-9917209D01*
G01X3238628Y-9918497D01*
G01X3239537Y-9921224D01*
G01X3240446Y-9923648D01*
G01X3241355Y-9926375D01*
G01X3243173Y-9931224D01*
G01X3244991Y-9936678D01*
G01X3246203Y-9939709D01*
G01X3247415Y-9943345D01*
G01X3249840Y-9950012D01*
G01X3251052Y-9953648D01*
G01X3252264Y-9956678D01*
G01X3254082Y-9962133D01*
G01X3255294Y-9965163D01*
G01X3256506Y-9968800D01*
G01X3258930Y-9975466D01*
G01X3260143Y-9979103D01*
G01X3261355Y-9982133D01*
G01X3262264Y-9984860D01*
G01X3262567Y-9986375D01*
G01X3237718Y-9986375D01*
G37*
G36*
G01X5765599Y-10328800D02*
G01X2755900Y-10328800D01*
G01X2755900Y-10141527D01*
G01X2775294Y-10141527D01*
G01X2775294Y-10286375D01*
G01X2801355Y-10286375D01*
G01X2828324Y-10286072D01*
G01X2834385Y-10285466D01*
G01X2839233Y-10284860D01*
G01X2845294Y-10283648D01*
G01X2848324Y-10282739D01*
G01X2852264Y-10281527D01*
G01X2855597Y-10280315D01*
G01X2858627Y-10279103D01*
G01X2861052Y-10277891D01*
G01X2865294Y-10275466D01*
G01X2867718Y-10273951D01*
G01X2871961Y-10270921D01*
G01X2874082Y-10269103D01*
G01X2880143Y-10263042D01*
G01X2881961Y-10260618D01*
G01X2884082Y-10257891D01*
G01X2885900Y-10255163D01*
G01X2888930Y-10250315D01*
G01X2890446Y-10246982D01*
G01X2892870Y-10241527D01*
G01X2895294Y-10234254D01*
G01X2896203Y-10229709D01*
G01X2897415Y-10222436D01*
G01X2897718Y-10211830D01*
G01X2897415Y-10203042D01*
G01X2896809Y-10198800D01*
G01X2895597Y-10192739D01*
G01X2893476Y-10186375D01*
G01X2892264Y-10183042D01*
G01X2891052Y-10180618D01*
G01X2890143Y-10178497D01*
G01X2889233Y-10176678D01*
G01X2887718Y-10174557D01*
G01X2885900Y-10171527D01*
G01X2884385Y-10169406D01*
G01X2880749Y-10164860D01*
G01X2876203Y-10160315D01*
G01X2873779Y-10158497D01*
G01X2870749Y-10156072D01*
G01X2867718Y-10153951D01*
G01X2865294Y-10152436D01*
G01X2863173Y-10151224D01*
G01X2860749Y-10150012D01*
G01X2858021Y-10148800D01*
G01X2854991Y-10147588D01*
G01X2851658Y-10146376D01*
G01X2848324Y-10145466D01*
G01X2843476Y-10144254D01*
G01X2837415Y-10143042D01*
G01X2834385Y-10142739D01*
G01X2831961Y-10142436D01*
G01X2825294Y-10141830D01*
G01X2799839Y-10141527D01*
G01X2929233Y-10141527D01*
G01X2929233Y-10286375D01*
G01X3024991Y-10286375D01*
G01X3024991Y-10269406D01*
G01X2948627Y-10269406D01*
G01X2948627Y-10266679D01*
G01X3049233Y-10266679D01*
G01X3049233Y-10277891D01*
G01X3050749Y-10278194D01*
G01X3053173Y-10279103D01*
G01X3055900Y-10280315D01*
G01X3062567Y-10282739D01*
G01X3066203Y-10283951D01*
G01X3069840Y-10284860D01*
G01X3072870Y-10285769D01*
G01X3075294Y-10286375D01*
G01X3077415Y-10286679D01*
G01X3080446Y-10287285D01*
G01X3084082Y-10287891D01*
G01X3086809Y-10288194D01*
G01X3088931Y-10288497D01*
G01X3092567Y-10288800D01*
G01X3092567Y-10288800D01*
G01X3095597Y-10289103D01*
G01X3101961Y-10289406D01*
G01X3108931Y-10289103D01*
G01X3116203Y-10288497D01*
G01X3122870Y-10287285D01*
G01X3125900Y-10286375D01*
G01X3129537Y-10285163D01*
G01X3132870Y-10283951D01*
G01X3135597Y-10282739D01*
G01X3139840Y-10280315D01*
G01X3142264Y-10278800D01*
G01X3144385Y-10277285D01*
G01X3145900Y-10276072D01*
G01X3147415Y-10274557D01*
G01X3148930Y-10273345D01*
G01X3150446Y-10271830D01*
G01X3186203Y-10271830D01*
G01X3186203Y-10286375D01*
G01X3243779Y-10286375D01*
G01X3243779Y-10271830D01*
G01X3224385Y-10271830D01*
G01X3224385Y-10215163D01*
G01X3268627Y-10215163D01*
G01X3268930Y-10226072D01*
G01X3269537Y-10230921D01*
G01X3270749Y-10237588D01*
G01X3271658Y-10240618D01*
G01X3272870Y-10244557D01*
G01X3274082Y-10247891D01*
G01X3275294Y-10250921D01*
G01X3276506Y-10253345D01*
G01X3280143Y-10259709D01*
G01X3281355Y-10261527D01*
G01X3282567Y-10263042D01*
G01X3284385Y-10265466D01*
G01X3291052Y-10272133D01*
G01X3294688Y-10275163D01*
G01X3296203Y-10276376D01*
G01X3298325Y-10277588D01*
G01X3301052Y-10279103D01*
G01X3305900Y-10281527D01*
G01X3308628Y-10282739D01*
G01X3311658Y-10283951D01*
G01X3317112Y-10285769D01*
G01X3321052Y-10286679D01*
G01X3327112Y-10287891D01*
G01X3330749Y-10288497D01*
G01X3330749Y-10288497D01*
G01X3333779Y-10289103D01*
G01X3343476Y-10289406D01*
G01X3352567Y-10289103D01*
G01X3358021Y-10288497D01*
G01X3364688Y-10287285D01*
G01X3367718Y-10286375D01*
G01X3371658Y-10285466D01*
G01X3374688Y-10284557D01*
G01X3385597Y-10280921D01*
G01X3394688Y-10277285D01*
G01X3397113Y-10275769D01*
G01X3397719Y-10244254D01*
G01X3397719Y-10213648D01*
G01X3340143Y-10213648D01*
G01X3339840Y-10215163D01*
G01X3339537Y-10223648D01*
G01X3339537Y-10230618D01*
G01X3378931Y-10230618D01*
G01X3378931Y-10266376D01*
G01X3377415Y-10266679D01*
G01X3374991Y-10267588D01*
G01X3372264Y-10268497D01*
G01X3369537Y-10269103D01*
G01X3366506Y-10270012D01*
G01X3362264Y-10270921D01*
G01X3353779Y-10272133D01*
G01X3348931Y-10272436D01*
G01X3345294Y-10272739D01*
G01X3342567Y-10273042D01*
G01X3339840Y-10272739D01*
G01X3332567Y-10272133D01*
G01X3325900Y-10270921D01*
G01X3323173Y-10270012D01*
G01X3319840Y-10268800D01*
G01X3313779Y-10265769D01*
G01X3311355Y-10264254D01*
G01X3309234Y-10262739D01*
G01X3307719Y-10261527D01*
G01X3301658Y-10255466D01*
G01X3299840Y-10253345D01*
G01X3298022Y-10250618D01*
G01X3294991Y-10245163D01*
G01X3293779Y-10242739D01*
G01X3292870Y-10240315D01*
G01X3291658Y-10236982D01*
G01X3290749Y-10233345D01*
G01X3289537Y-10227285D01*
G01X3289234Y-10224557D01*
G01X3288931Y-10222436D01*
G01X3288628Y-10212436D01*
G01X3288931Y-10202436D01*
G01X3289537Y-10198194D01*
G01X3290143Y-10195163D01*
G01X3291052Y-10191830D01*
G01X3292870Y-10186375D01*
G01X3293779Y-10183951D01*
G01X3294688Y-10181830D01*
G01X3295900Y-10179709D01*
G01X3297416Y-10177285D01*
G01X3299234Y-10174557D01*
G01X3301052Y-10172436D01*
G01X3304082Y-10168800D01*
G01X3308628Y-10165163D01*
G01X3310749Y-10163648D01*
G01X3313173Y-10162133D01*
G01X3318022Y-10159709D01*
G01X3320749Y-10158497D01*
G01X3324385Y-10157285D01*
G01X3328931Y-10156375D01*
G01X3332567Y-10155769D01*
G01X3339840Y-10155163D01*
G01X3342264Y-10154860D01*
G01X3344688Y-10155163D01*
G01X3353779Y-10155769D01*
G01X3358021Y-10156375D01*
G01X3360749Y-10156982D01*
G01X3369840Y-10159709D01*
G01X3374688Y-10161527D01*
G01X3377415Y-10162739D01*
G01X3379840Y-10163951D01*
G01X3384082Y-10166375D01*
G01X3386506Y-10167891D01*
G01X3391961Y-10171527D01*
G01X3394082Y-10173042D01*
G01X3395900Y-10174254D01*
G01X3396885Y-10174330D01*
G01X3397416Y-10173345D01*
G01X3397719Y-10161830D01*
G01X3397719Y-10151830D01*
G01X3393173Y-10150012D01*
G01X3390749Y-10148800D01*
G01X3388628Y-10147891D01*
G01X3381355Y-10145163D01*
G01X3378628Y-10144254D01*
G01X3376203Y-10143648D01*
G01X3373173Y-10142739D01*
G01X3369537Y-10141830D01*
G01X3368022Y-10141527D01*
G01X3431658Y-10141527D01*
G01X3431658Y-10286375D01*
G01X3449840Y-10286375D01*
G01X3449840Y-10222436D01*
G01X3449991Y-10174557D01*
G01X3450446Y-10158800D01*
G01X3451658Y-10160315D01*
G01X3452870Y-10162436D01*
G01X3456506Y-10169709D01*
G01X3458931Y-10173951D01*
G01X3461355Y-10178800D01*
G01X3464385Y-10184254D01*
G01X3466809Y-10189103D01*
G01X3469840Y-10194557D01*
G01X3472264Y-10199406D01*
G01X3475294Y-10204860D01*
G01X3477718Y-10209709D01*
G01X3480749Y-10215163D01*
G01X3483173Y-10220012D01*
G01X3485597Y-10224254D01*
G01X3488022Y-10229103D01*
G01X3491052Y-10234557D01*
G01X3493476Y-10239406D01*
G01X3496506Y-10244860D01*
G01X3498931Y-10249709D01*
G01X3501961Y-10255163D01*
G01X3504385Y-10260012D01*
G01X3507416Y-10265466D01*
G01X3509840Y-10270315D01*
G01X3512870Y-10275769D01*
G01X3515294Y-10280618D01*
G01X3517719Y-10284860D01*
G01X3518325Y-10286375D01*
G01X3542567Y-10286375D01*
G01X3542567Y-10141527D01*
G01X3581355Y-10141527D01*
G01X3581355Y-10286375D01*
G01X3677113Y-10286375D01*
G01X3677113Y-10269406D01*
G01X3600749Y-10269406D01*
G01X3600749Y-10215466D01*
G01X3677113Y-10215466D01*
G01X3677113Y-10198497D01*
G01X3600749Y-10198497D01*
G01X3600749Y-10158497D01*
G01X3677113Y-10158497D01*
G01X3677113Y-10141527D01*
G01X3708022Y-10141527D01*
G01X3708022Y-10286375D01*
G01X3734082Y-10286375D01*
G01X3761052Y-10286072D01*
G01X3767113Y-10285466D01*
G01X3771961Y-10284860D01*
G01X3778022Y-10283648D01*
G01X3781052Y-10282739D01*
G01X3784991Y-10281527D01*
G01X3788325Y-10280315D01*
G01X3793779Y-10277891D01*
G01X3796507Y-10276376D01*
G01X3798931Y-10274860D01*
G01X3800749Y-10273648D01*
G01X3804991Y-10270618D01*
G01X3806507Y-10269406D01*
G01X3812567Y-10263345D01*
G01X3816204Y-10258800D01*
G01X3817113Y-10257285D01*
G01X3818325Y-10255466D01*
G01X3819840Y-10253042D01*
G01X3821355Y-10250315D01*
G01X3823779Y-10245466D01*
G01X3824992Y-10242739D01*
G01X3826204Y-10239709D01*
G01X3827113Y-10236376D01*
G01X3828022Y-10233648D01*
G01X3828628Y-10231224D01*
G01X3828931Y-10229103D01*
G01X3829537Y-10225466D01*
G01X3830143Y-10220618D01*
G01X3830446Y-10212133D01*
G01X3830143Y-10204860D01*
G01X3829537Y-10199406D01*
G01X3828325Y-10193345D01*
G01X3827416Y-10190315D01*
G01X3826204Y-10186375D01*
G01X3824992Y-10183345D01*
G01X3823779Y-10180618D01*
G01X3822567Y-10178194D01*
G01X3821052Y-10175769D01*
G01X3819234Y-10172739D01*
G01X3817113Y-10169709D01*
G01X3815295Y-10167285D01*
G01X3812870Y-10164254D01*
G01X3811355Y-10162739D01*
G01X3808325Y-10160315D01*
G01X3806810Y-10158800D01*
G01X3804688Y-10156982D01*
G01X3798628Y-10152739D01*
G01X3790749Y-10148800D01*
G01X3787416Y-10147588D01*
G01X3784385Y-10146376D01*
G01X3781355Y-10145466D01*
G01X3778628Y-10144860D01*
G01X3776204Y-10144254D01*
G01X3772567Y-10143648D01*
G01X3769537Y-10143042D01*
G01X3764688Y-10142436D01*
G01X3758022Y-10141830D01*
G01X3732567Y-10141527D01*
G01X3932264Y-10141527D01*
G01X3932264Y-10286375D01*
G01X3963779Y-10286375D01*
G01X3996204Y-10286072D01*
G01X4001052Y-10285466D01*
G01X4007719Y-10284254D01*
G01X4010446Y-10283345D01*
G01X4013779Y-10282133D01*
G01X4016507Y-10280921D01*
G01X4021961Y-10277891D01*
G01X4023779Y-10276679D01*
G01X4025901Y-10275163D01*
G01X4028022Y-10273345D01*
G01X4032567Y-10268800D01*
G01X4033780Y-10267285D01*
G01X4034992Y-10265163D01*
G01X4036507Y-10262739D01*
G01X4037719Y-10260618D01*
G01X4038628Y-10258497D01*
G01X4039537Y-10256073D01*
G01X4040446Y-10252436D01*
G01X4041052Y-10249103D01*
G01X4041658Y-10243648D01*
G01X4041961Y-10240618D01*
G01X4041658Y-10237588D01*
G01X4041052Y-10233345D01*
G01X4040446Y-10230618D01*
G01X4039537Y-10227891D01*
G01X4037719Y-10223648D01*
G01X4036507Y-10221527D01*
G01X4034689Y-10218800D01*
G01X4028325Y-10212436D01*
G01X4026204Y-10210921D01*
G01X4023476Y-10209103D01*
G01X4020143Y-10207587D01*
G01X4017416Y-10206375D01*
G01X4014688Y-10205466D01*
G01X4011961Y-10204860D01*
G01X4010446Y-10203951D01*
G01X4010219Y-10203345D01*
G01X4010749Y-10202739D01*
G01X4015598Y-10199709D01*
G01X4018022Y-10197891D01*
G01X4021658Y-10194254D01*
G01X4023173Y-10192436D01*
G01X4024689Y-10190012D01*
G01X4026204Y-10187284D01*
G01X4027416Y-10184557D01*
G01X4028325Y-10181224D01*
G01X4028931Y-10178194D01*
G01X4029234Y-10172739D01*
G01X4028931Y-10167285D01*
G01X4028325Y-10164860D01*
G01X4027416Y-10162133D01*
G01X4026507Y-10159709D01*
G01X4025598Y-10157891D01*
G01X4024083Y-10155769D01*
G01X4022264Y-10153648D01*
G01X4020749Y-10152133D01*
G01X4018931Y-10150618D01*
G01X4017113Y-10149406D01*
G01X4014992Y-10148194D01*
G01X4010143Y-10145769D01*
G01X4006810Y-10144557D01*
G01X4003476Y-10143648D01*
G01X3997416Y-10142436D01*
G01X3994082Y-10142133D01*
G01X3991355Y-10141830D01*
G01X3961355Y-10141527D01*
G01X4050446Y-10141527D01*
G01X4051355Y-10143042D01*
G01X4054386Y-10147891D01*
G01X4056204Y-10150921D01*
G01X4059234Y-10155769D01*
G01X4062870Y-10161830D01*
G01X4065901Y-10166678D01*
G01X4067719Y-10169709D01*
G01X4070749Y-10174557D01*
G01X4072567Y-10177588D01*
G01X4075598Y-10182436D01*
G01X4077416Y-10185466D01*
G01X4080446Y-10190315D01*
G01X4084083Y-10196375D01*
G01X4087113Y-10201224D01*
G01X4088931Y-10204254D01*
G01X4091961Y-10209103D01*
G01X4093779Y-10212133D01*
G01X4096810Y-10216981D01*
G01X4100446Y-10223042D01*
G01X4101658Y-10225466D01*
G01X4101658Y-10225466D01*
G01X4101961Y-10256376D01*
G01X4101961Y-10286375D01*
G01X4120749Y-10286375D01*
G01X4120749Y-10254557D01*
G01X4121355Y-10221830D01*
G01X4122870Y-10219406D01*
G01X4124689Y-10216678D01*
G01X4148931Y-10177891D01*
G01X4150749Y-10175163D01*
G01X4152568Y-10172133D01*
G01X4170749Y-10143042D01*
G01X4171658Y-10141527D01*
G01X4260749Y-10141527D01*
G01X4260749Y-10190618D01*
G01X4261052Y-10240618D01*
G01X4261658Y-10246073D01*
G01X4262871Y-10252739D01*
G01X4264992Y-10259103D01*
G01X4266204Y-10262436D01*
G01X4267416Y-10264860D01*
G01X4268931Y-10267285D01*
G01X4271052Y-10270315D01*
G01X4272871Y-10272739D01*
G01X4277416Y-10277285D01*
G01X4278931Y-10278497D01*
G01X4281052Y-10280012D01*
G01X4283780Y-10281830D01*
G01X4286507Y-10283345D01*
G01X4291961Y-10285769D01*
G01X4294992Y-10286679D01*
G01X4299840Y-10287891D01*
G01X4302870Y-10288497D01*
G01X4302870Y-10288497D01*
G01X4305598Y-10289103D01*
G01X4316204Y-10289406D01*
G01X4326507Y-10289103D01*
G01X4330749Y-10288497D01*
G01X4333780Y-10287891D01*
G01X4337113Y-10286982D01*
G01X4339840Y-10286072D01*
G01X4342265Y-10285163D01*
G01X4344386Y-10284254D01*
G01X4346810Y-10283042D01*
G01X4349234Y-10281527D01*
G01X4351962Y-10279709D01*
G01X4354386Y-10277891D01*
G01X4358931Y-10273345D01*
G01X4360143Y-10271830D01*
G01X4361659Y-10269709D01*
G01X4363477Y-10266982D01*
G01X4364992Y-10264254D01*
G01X4366204Y-10261830D01*
G01X4367113Y-10259406D01*
G01X4368022Y-10256679D01*
G01X4368931Y-10253648D01*
G01X4369537Y-10250921D01*
G01X4370143Y-10248497D01*
G01X4370749Y-10244860D01*
G01X4371355Y-10240012D01*
G01X4371659Y-10234557D01*
G01X4371962Y-10230921D01*
G01X4372265Y-10185769D01*
G01X4372265Y-10151527D01*
G01X4389234Y-10151527D01*
G01X4389234Y-10158497D01*
G01X4441355Y-10158497D01*
G01X4441355Y-10158497D01*
G01X4441355Y-10286375D01*
G01X4460750Y-10286375D01*
G01X4460750Y-10158497D01*
G01X4512265Y-10158497D01*
G01X4512568Y-10156982D01*
G01X4512871Y-10148497D01*
G01X4512871Y-10141527D01*
G01X4532264Y-10141527D01*
G01X4532264Y-10286375D01*
G01X4550446Y-10286375D01*
G01X4550446Y-10222436D01*
G01X4550598Y-10174557D01*
G01X4551052Y-10158800D01*
G01X4552265Y-10160618D01*
G01X4554689Y-10164860D01*
G01X4557113Y-10169709D01*
G01X4560143Y-10175163D01*
G01X4562568Y-10180012D01*
G01X4565598Y-10185466D01*
G01X4568022Y-10190315D01*
G01X4571053Y-10195769D01*
G01X4573477Y-10200618D01*
G01X4575901Y-10204860D01*
G01X4578325Y-10209709D01*
G01X4581356Y-10215163D01*
G01X4583780Y-10220012D01*
G01X4586810Y-10225466D01*
G01X4589234Y-10230315D01*
G01X4592265Y-10235769D01*
G01X4594689Y-10240618D01*
G01X4597719Y-10246073D01*
G01X4600143Y-10250921D01*
G01X4602568Y-10255163D01*
G01X4604992Y-10260012D01*
G01X4608022Y-10265466D01*
G01X4610446Y-10270315D01*
G01X4613477Y-10275769D01*
G01X4615901Y-10280618D01*
G01X4617416Y-10283345D01*
G01X4618931Y-10285466D01*
G01X4622341Y-10286148D01*
G01X4631355Y-10286375D01*
G01X4643174Y-10286375D01*
G01X4643174Y-10141527D01*
G01X4752265Y-10141527D01*
G01X4752265Y-10286375D01*
G01X4771659Y-10286375D01*
G01X4771659Y-10216678D01*
G01X4834689Y-10216678D01*
G01X4834689Y-10216072D01*
G01X4858931Y-10216072D01*
G01X4859234Y-10224254D01*
G01X4859840Y-10230315D01*
G01X4861053Y-10236982D01*
G01X4861659Y-10239709D01*
G01X4863477Y-10245770D01*
G01X4864386Y-10248497D01*
G01X4865295Y-10250618D01*
G01X4866204Y-10253042D01*
G01X4867416Y-10255769D01*
G01X4868931Y-10258497D01*
G01X4871962Y-10263345D01*
G01X4873477Y-10265466D01*
G01X4875901Y-10268497D01*
G01X4881962Y-10274557D01*
G01X4886507Y-10278194D01*
G01X4888326Y-10279103D01*
G01X4890750Y-10280618D01*
G01X4893477Y-10282133D01*
G01X4898932Y-10284557D01*
G01X4901962Y-10285769D01*
G01X4905901Y-10286982D01*
G01X4910144Y-10287891D01*
G01X4913174Y-10288497D01*
G01X4913174Y-10288497D01*
G01X4915598Y-10289103D01*
G01X4926204Y-10289406D01*
G01X4936204Y-10289103D01*
G01X4941053Y-10288497D01*
G01X4946507Y-10287285D01*
G01X4952871Y-10285163D01*
G01X4958325Y-10282739D01*
G01X4960750Y-10281527D01*
G01X4962568Y-10280315D01*
G01X4964992Y-10278800D01*
G01X4967113Y-10277285D01*
G01X4970144Y-10274860D01*
G01X4976204Y-10268800D01*
G01X4979841Y-10264254D01*
G01X4981053Y-10262133D01*
G01X4982871Y-10259406D01*
G01X4985598Y-10253951D01*
G01X4986810Y-10251224D01*
G01X4988023Y-10248194D01*
G01X4989235Y-10244860D01*
G01X4990447Y-10240618D01*
G01X4991356Y-10236376D01*
G01X4992568Y-10230315D01*
G01X4992871Y-10226982D01*
G01X4993174Y-10224860D01*
G01X4993780Y-10214557D01*
G01X4993780Y-10211527D01*
G01X4993477Y-10205769D01*
G01X4993174Y-10201224D01*
G01X4992568Y-10195769D01*
G01X4991356Y-10189709D01*
G01X4990447Y-10186678D01*
G01X4989235Y-10182436D01*
G01X4988023Y-10179103D01*
G01X4986810Y-10176072D01*
G01X4985598Y-10173345D01*
G01X4984386Y-10170921D01*
G01X4982871Y-10168194D01*
G01X4981053Y-10165466D01*
G01X4979538Y-10163042D01*
G01X4977113Y-10160012D01*
G01X4971053Y-10153951D01*
G01X4967416Y-10150921D01*
G01X4965901Y-10149709D01*
G01X4964083Y-10148800D01*
G01X4961659Y-10147285D01*
G01X4956204Y-10144557D01*
G01X4953477Y-10143345D01*
G01X4948022Y-10141527D01*
G01X5024386Y-10141527D01*
G01X5024386Y-10286375D01*
G01X5043780Y-10286375D01*
G01X5043780Y-10228800D01*
G01X5057719Y-10228800D01*
G01X5068250Y-10229027D01*
G01X5071962Y-10229709D01*
G01X5073174Y-10231224D01*
G01X5076204Y-10234860D01*
G01X5079841Y-10239103D01*
G01X5088932Y-10250012D01*
G01X5092568Y-10254254D01*
G01X5098629Y-10261527D01*
G01X5102265Y-10265769D01*
G01X5111356Y-10276679D01*
G01X5114992Y-10280921D01*
G01X5118023Y-10284557D01*
G01X5119538Y-10285769D01*
G01X5132265Y-10286375D01*
G01X5141204Y-10286148D01*
G01X5143780Y-10285466D01*
G01X5142265Y-10283951D01*
G01X5139235Y-10280315D01*
G01X5131962Y-10271830D01*
G01X5130447Y-10270315D01*
G01X5128629Y-10267891D01*
G01X5126810Y-10266072D01*
G01X5227417Y-10266072D01*
G01X5227417Y-10277891D01*
G01X5228932Y-10278194D01*
G01X5231356Y-10279103D01*
G01X5234083Y-10280315D01*
G01X5240750Y-10282739D01*
G01X5244689Y-10283951D01*
G01X5248932Y-10285163D01*
G01X5252871Y-10286072D01*
G01X5255598Y-10286679D01*
G01X5258629Y-10287285D01*
G01X5262265Y-10287891D01*
G01X5264992Y-10288194D01*
G01X5267113Y-10288497D01*
G01X5270750Y-10288800D01*
G01X5270750Y-10288800D01*
G01X5273780Y-10289103D01*
G01X5280144Y-10289406D01*
G01X5287113Y-10289103D01*
G01X5294386Y-10288497D01*
G01X5301053Y-10287285D01*
G01X5304083Y-10286375D01*
G01X5307720Y-10285163D01*
G01X5311053Y-10283951D01*
G01X5313780Y-10282739D01*
G01X5318023Y-10280315D01*
G01X5320447Y-10278800D01*
G01X5323477Y-10276679D01*
G01X5325598Y-10274860D01*
G01X5327114Y-10273648D01*
G01X5330750Y-10269406D01*
G01X5331962Y-10267891D01*
G01X5333174Y-10265769D01*
G01X5334689Y-10263042D01*
G01X5335901Y-10260618D01*
G01X5336811Y-10258497D01*
G01X5337417Y-10256376D01*
G01X5338326Y-10253648D01*
G01X5338932Y-10250618D01*
G01X5339235Y-10248497D01*
G01X5339538Y-10243951D01*
G01X5339235Y-10239406D01*
G01X5338629Y-10235163D01*
G01X5337720Y-10232133D01*
G01X5336507Y-10228800D01*
G01X5335295Y-10226375D01*
G01X5333477Y-10223648D01*
G01X5331659Y-10221224D01*
G01X5326204Y-10216678D01*
G01X5323780Y-10215163D01*
G01X5321053Y-10213648D01*
G01X5316205Y-10211224D01*
G01X5312871Y-10210012D01*
G01X5309235Y-10208800D01*
G01X5305598Y-10207890D01*
G01X5302871Y-10207284D01*
G01X5300447Y-10206678D01*
G01X5288326Y-10204254D01*
G01X5281053Y-10203042D01*
G01X5278022Y-10202436D01*
G01X5274386Y-10201830D01*
G01X5271356Y-10201224D01*
G01X5266507Y-10200012D01*
G01X5263780Y-10199103D01*
G01X5260750Y-10197891D01*
G01X5258326Y-10196678D01*
G01X5255598Y-10194860D01*
G01X5253477Y-10193042D01*
G01X5252265Y-10191527D01*
G01X5251053Y-10189709D01*
G01X5249841Y-10186981D01*
G01X5248932Y-10183042D01*
G01X5248629Y-10177285D01*
G01X5249235Y-10172436D01*
G01X5250144Y-10170012D01*
G01X5251053Y-10168194D01*
G01X5252265Y-10166678D01*
G01X5255295Y-10163648D01*
G01X5257113Y-10162133D01*
G01X5259235Y-10160921D01*
G01X5264083Y-10158497D01*
G01X5266507Y-10157588D01*
G01X5268932Y-10156982D01*
G01X5271962Y-10156375D01*
G01X5275598Y-10155769D01*
G01X5284386Y-10155466D01*
G01X5292568Y-10155769D01*
G01X5297417Y-10156375D01*
G01X5303477Y-10157588D01*
G01X5306205Y-10158497D01*
G01X5310144Y-10159709D01*
G01X5313477Y-10160921D01*
G01X5316508Y-10162133D01*
G01X5319235Y-10163345D01*
G01X5324083Y-10165769D01*
G01X5326508Y-10167285D01*
G01X5329538Y-10169406D01*
G01X5331962Y-10171224D01*
G01X5332720Y-10171300D01*
G01X5333174Y-10170315D01*
G01X5333477Y-10158800D01*
G01X5333477Y-10148800D01*
G01X5331659Y-10148194D01*
G01X5328629Y-10146982D01*
G01X5323174Y-10145163D01*
G01X5317114Y-10143345D01*
G01X5313780Y-10142436D01*
G01X5309235Y-10141527D01*
G01X5368629Y-10141527D01*
G01X5368629Y-10190012D01*
G01X5368932Y-10239406D01*
G01X5369538Y-10245466D01*
G01X5370750Y-10252133D01*
G01X5371659Y-10255163D01*
G01X5372871Y-10258800D01*
G01X5374083Y-10261830D01*
G01X5375295Y-10264254D01*
G01X5376507Y-10266376D01*
G01X5378023Y-10268800D01*
G01X5379538Y-10270921D01*
G01X5381356Y-10273345D01*
G01X5384992Y-10276982D01*
G01X5386810Y-10278497D01*
G01X5388629Y-10279709D01*
G01X5390750Y-10281224D01*
G01X5393780Y-10283042D01*
G01X5397114Y-10284557D01*
G01X5400144Y-10285769D01*
G01X5402871Y-10286679D01*
G01X5407720Y-10287891D01*
G01X5410750Y-10288497D01*
G01X5410750Y-10288497D01*
G01X5413477Y-10289103D01*
G01X5424083Y-10289406D01*
G01X5434386Y-10289103D01*
G01X5438629Y-10288497D01*
G01X5441659Y-10287891D01*
G01X5444992Y-10286982D01*
G01X5450447Y-10285163D01*
G01X5453174Y-10283951D01*
G01X5455901Y-10282436D01*
G01X5458629Y-10280618D01*
G01X5461659Y-10278497D01*
G01X5468326Y-10271830D01*
G01X5469538Y-10270315D01*
G01X5470750Y-10268194D01*
G01X5472265Y-10265466D01*
G01X5474689Y-10260618D01*
G01X5475901Y-10257285D01*
G01X5477114Y-10253345D01*
G01X5478023Y-10249103D01*
G01X5479235Y-10241830D01*
G01X5479538Y-10237891D01*
G01X5479841Y-10235163D01*
G01X5480144Y-10187891D01*
G01X5480144Y-10141527D01*
G01X5500144Y-10141527D01*
G01X5500750Y-10143345D01*
G01X5549235Y-10276679D01*
G01X5550447Y-10279709D01*
G01X5551356Y-10282436D01*
G01X5552265Y-10284860D01*
G01X5552265Y-10284860D01*
G01X5552871Y-10286072D01*
G01X5565901Y-10286375D01*
G01X5578932Y-10286375D01*
G01X5579114Y-10285466D01*
G01X5631659Y-10285466D01*
G01X5633629Y-10286148D01*
G01X5640750Y-10286375D01*
G01X5650447Y-10286375D01*
G01X5652265Y-10280921D01*
G01X5654689Y-10274254D01*
G01X5655902Y-10270618D01*
G01X5658326Y-10263951D01*
G01X5660750Y-10256679D01*
G01X5661962Y-10253648D01*
G01X5663780Y-10248194D01*
G01X5665296Y-10246679D01*
G01X5697114Y-10246376D01*
G01X5728023Y-10246376D01*
G01X5728326Y-10247891D01*
G01X5731053Y-10256073D01*
G01X5732871Y-10260921D01*
G01X5734690Y-10266376D01*
G01X5736508Y-10271224D01*
G01X5738326Y-10276679D01*
G01X5740144Y-10281527D01*
G01X5741053Y-10284254D01*
G01X5741659Y-10285466D01*
G01X5742871Y-10286072D01*
G01X5753174Y-10286375D01*
G01X5761962Y-10286375D01*
G01X5761659Y-10284557D01*
G01X5760750Y-10281830D01*
G01X5758023Y-10274557D01*
G01X5757114Y-10271830D01*
G01X5755902Y-10268800D01*
G01X5754690Y-10265163D01*
G01X5753477Y-10262133D01*
G01X5752568Y-10259406D01*
G01X5750750Y-10254557D01*
G01X5749841Y-10251830D01*
G01X5748629Y-10248800D01*
G01X5747417Y-10245163D01*
G01X5746205Y-10242133D01*
G01X5745296Y-10239406D01*
G01X5743477Y-10234557D01*
G01X5742568Y-10231830D01*
G01X5741356Y-10228800D01*
G01X5740144Y-10225163D01*
G01X5738932Y-10222133D01*
G01X5738023Y-10219406D01*
G01X5736205Y-10214557D01*
G01X5735296Y-10211830D01*
G01X5734084Y-10208800D01*
G01X5732871Y-10205163D01*
G01X5731659Y-10202133D01*
G01X5730750Y-10199406D01*
G01X5728932Y-10194557D01*
G01X5728023Y-10191830D01*
G01X5726811Y-10188800D01*
G01X5725599Y-10185163D01*
G01X5724387Y-10182133D01*
G01X5723477Y-10179406D01*
G01X5721659Y-10174557D01*
G01X5720750Y-10171830D01*
G01X5719538Y-10168800D01*
G01X5718326Y-10165163D01*
G01X5717114Y-10162133D01*
G01X5716205Y-10159406D01*
G01X5714386Y-10154557D01*
G01X5713477Y-10151830D01*
G01X5712265Y-10148800D01*
G01X5711053Y-10145163D01*
G01X5709841Y-10142436D01*
G01X5706205Y-10141754D01*
G01X5696508Y-10141527D01*
G01X5683780Y-10141527D01*
G01X5683477Y-10143042D01*
G01X5682568Y-10145769D01*
G01X5681356Y-10148800D01*
G01X5680144Y-10152436D01*
G01X5678932Y-10155466D01*
G01X5678023Y-10158194D01*
G01X5676205Y-10163042D01*
G01X5675295Y-10165769D01*
G01X5674083Y-10168800D01*
G01X5672871Y-10172436D01*
G01X5671659Y-10175466D01*
G01X5669841Y-10180315D01*
G01X5668932Y-10183042D01*
G01X5667114Y-10187891D01*
G01X5666205Y-10190618D01*
G01X5664992Y-10193648D01*
G01X5663780Y-10197284D01*
G01X5662568Y-10200315D01*
G01X5661659Y-10203042D01*
G01X5659841Y-10207890D01*
G01X5658932Y-10210618D01*
G01X5657720Y-10213648D01*
G01X5656508Y-10217284D01*
G01X5655296Y-10220315D01*
G01X5654386Y-10223042D01*
G01X5652568Y-10227891D01*
G01X5651659Y-10230618D01*
G01X5650447Y-10233648D01*
G01X5649235Y-10237285D01*
G01X5648023Y-10240315D01*
G01X5647114Y-10243042D01*
G01X5645296Y-10247891D01*
G01X5644386Y-10250618D01*
G01X5643174Y-10253648D01*
G01X5641962Y-10257285D01*
G01X5640750Y-10260315D01*
G01X5639841Y-10263042D01*
G01X5638023Y-10267891D01*
G01X5637114Y-10270618D01*
G01X5635902Y-10273648D01*
G01X5634690Y-10277285D01*
G01X5633477Y-10280315D01*
G01X5632568Y-10283042D01*
G01X5632568Y-10283042D01*
G01X5631659Y-10285466D01*
G01X5579114Y-10285466D01*
G01X5579235Y-10284860D01*
G01X5580144Y-10282133D01*
G01X5581962Y-10277285D01*
G01X5582871Y-10274557D01*
G01X5584689Y-10269709D01*
G01X5585598Y-10266982D01*
G01X5586811Y-10263951D01*
G01X5588023Y-10260315D01*
G01X5589235Y-10257285D01*
G01X5590144Y-10254557D01*
G01X5591962Y-10249709D01*
G01X5592871Y-10246982D01*
G01X5594083Y-10243951D01*
G01X5595295Y-10240315D01*
G01X5596507Y-10237285D01*
G01X5597417Y-10234557D01*
G01X5601053Y-10224860D01*
G01X5601962Y-10222133D01*
G01X5603174Y-10219103D01*
G01X5604386Y-10215466D01*
G01X5605598Y-10212436D01*
G01X5606508Y-10209709D01*
G01X5608326Y-10204860D01*
G01X5609235Y-10202133D01*
G01X5610447Y-10199103D01*
G01X5611659Y-10195466D01*
G01X5612871Y-10192436D01*
G01X5613780Y-10189709D01*
G01X5615599Y-10184860D01*
G01X5616508Y-10182133D01*
G01X5617720Y-10179103D01*
G01X5618932Y-10175466D01*
G01X5620144Y-10172436D01*
G01X5621053Y-10169709D01*
G01X5622871Y-10164860D01*
G01X5623780Y-10162133D01*
G01X5624993Y-10159103D01*
G01X5626205Y-10155466D01*
G01X5627417Y-10152436D01*
G01X5628326Y-10149709D01*
G01X5631053Y-10142436D01*
G01X5629008Y-10141754D01*
G01X5621659Y-10141527D01*
G01X5611659Y-10141527D01*
G01X5611356Y-10143345D01*
G01X5610447Y-10146376D01*
G01X5608629Y-10151224D01*
G01X5606811Y-10156679D01*
G01X5605598Y-10159709D01*
G01X5603174Y-10166982D01*
G01X5601962Y-10170012D01*
G01X5600144Y-10175466D01*
G01X5598932Y-10178497D01*
G01X5597720Y-10182133D01*
G01X5595295Y-10188800D01*
G01X5594083Y-10192436D01*
G01X5592871Y-10195466D01*
G01X5591053Y-10200921D01*
G01X5589841Y-10203951D01*
G01X5588629Y-10207587D01*
G01X5586204Y-10214254D01*
G01X5584992Y-10217891D01*
G01X5583780Y-10220921D01*
G01X5581962Y-10226375D01*
G01X5580144Y-10231224D01*
G01X5578326Y-10236679D01*
G01X5577114Y-10239709D01*
G01X5575901Y-10243345D01*
G01X5573477Y-10250012D01*
G01X5572265Y-10253648D01*
G01X5571053Y-10256679D01*
G01X5569235Y-10262133D01*
G01X5568023Y-10265163D01*
G01X5566811Y-10267588D01*
G01X5566205Y-10267815D01*
G01X5565598Y-10267285D01*
G01X5564689Y-10264860D01*
G01X5563780Y-10262133D01*
G01X5561962Y-10257285D01*
G01X5560144Y-10251830D01*
G01X5558326Y-10246982D01*
G01X5556508Y-10241527D01*
G01X5555295Y-10238497D01*
G01X5554083Y-10234860D01*
G01X5551659Y-10228194D01*
G01X5550447Y-10224557D01*
G01X5549235Y-10221527D01*
G01X5547417Y-10216072D01*
G01X5546205Y-10213042D01*
G01X5544992Y-10209406D01*
G01X5542568Y-10202739D01*
G01X5541356Y-10199103D01*
G01X5540144Y-10196072D01*
G01X5538326Y-10190618D01*
G01X5536508Y-10185769D01*
G01X5534689Y-10180315D01*
G01X5533477Y-10177285D01*
G01X5532265Y-10173648D01*
G01X5529841Y-10166982D01*
G01X5528629Y-10163345D01*
G01X5527417Y-10160315D01*
G01X5525599Y-10154860D01*
G01X5524386Y-10151830D01*
G01X5523174Y-10148194D01*
G01X5521962Y-10144860D01*
G01X5520750Y-10142436D01*
G01X5517795Y-10141754D01*
G01X5510144Y-10141527D01*
G01X5500144Y-10141527D01*
G01X5480144Y-10141527D01*
G01X5460750Y-10141527D01*
G01X5460750Y-10190618D01*
G01X5460447Y-10240618D01*
G01X5459841Y-10245466D01*
G01X5458629Y-10250921D01*
G01X5457720Y-10253345D01*
G01X5456508Y-10256376D01*
G01X5455295Y-10258497D01*
G01X5453780Y-10260618D01*
G01X5451962Y-10262739D01*
G01X5448932Y-10265769D01*
G01X5446811Y-10267285D01*
G01X5444083Y-10268800D01*
G01X5441659Y-10270012D01*
G01X5439235Y-10270921D01*
G01X5434386Y-10272133D01*
G01X5430144Y-10272739D01*
G01X5422265Y-10273042D01*
G01X5416205Y-10272739D01*
G01X5413174Y-10272133D01*
G01X5409841Y-10271224D01*
G01X5407114Y-10270315D01*
G01X5404386Y-10269103D01*
G01X5401962Y-10267588D01*
G01X5400144Y-10266072D01*
G01X5398629Y-10264860D01*
G01X5396811Y-10263042D01*
G01X5393780Y-10258800D01*
G01X5392265Y-10255769D01*
G01X5391053Y-10253042D01*
G01X5390144Y-10250315D01*
G01X5389538Y-10247891D01*
G01X5388932Y-10244860D01*
G01X5388326Y-10240618D01*
G01X5388023Y-10190012D01*
G01X5388023Y-10141527D01*
G01X5368629Y-10141527D01*
G01X5309235Y-10141527D01*
G01X5304689Y-10140618D01*
G01X5301053Y-10140012D01*
G01X5296204Y-10139406D01*
G01X5291053Y-10139103D01*
G01X5287113Y-10138800D01*
G01X5282568Y-10138497D01*
G01X5278022Y-10138800D01*
G01X5270750Y-10139406D01*
G01X5267416Y-10140012D01*
G01X5263780Y-10140921D01*
G01X5257719Y-10142739D01*
G01X5254992Y-10143951D01*
G01X5251962Y-10145163D01*
G01X5249841Y-10146376D01*
G01X5248023Y-10147588D01*
G01X5245598Y-10149103D01*
G01X5243477Y-10150618D01*
G01X5241962Y-10152133D01*
G01X5238932Y-10154557D01*
G01X5237113Y-10156982D01*
G01X5234992Y-10159709D01*
G01X5233174Y-10162436D01*
G01X5231659Y-10165466D01*
G01X5230447Y-10168800D01*
G01X5229538Y-10172133D01*
G01X5228932Y-10175769D01*
G01X5228629Y-10182739D01*
G01X5228932Y-10188497D01*
G01X5230144Y-10193345D01*
G01X5231053Y-10195769D01*
G01X5232265Y-10198194D01*
G01X5233477Y-10200315D01*
G01X5235295Y-10203042D01*
G01X5237113Y-10205466D01*
G01X5238629Y-10206981D01*
G01X5243174Y-10210618D01*
G01X5244992Y-10211830D01*
G01X5247113Y-10213042D01*
G01X5251962Y-10215466D01*
G01X5254083Y-10216375D01*
G01X5256507Y-10217284D01*
G01X5259538Y-10218194D01*
G01X5262265Y-10218800D01*
G01X5265295Y-10219709D01*
G01X5270144Y-10220618D01*
G01X5273780Y-10221224D01*
G01X5276810Y-10221830D01*
G01X5291356Y-10224254D01*
G01X5294386Y-10224860D01*
G01X5297417Y-10225769D01*
G01X5301356Y-10226678D01*
G01X5304386Y-10227588D01*
G01X5307417Y-10228800D01*
G01X5309841Y-10230012D01*
G01X5313477Y-10232436D01*
G01X5314689Y-10233648D01*
G01X5315901Y-10235163D01*
G01X5317114Y-10236982D01*
G01X5318023Y-10239406D01*
G01X5318629Y-10241830D01*
G01X5319235Y-10244860D01*
G01X5319538Y-10249406D01*
G01X5319235Y-10252739D01*
G01X5318326Y-10255466D01*
G01X5317114Y-10258194D01*
G01X5315901Y-10260012D01*
G01X5314083Y-10262133D01*
G01X5311962Y-10263951D01*
G01X5310447Y-10265163D01*
G01X5308326Y-10266679D01*
G01X5305295Y-10268194D01*
G01X5302568Y-10269406D01*
G01X5299538Y-10270315D01*
G01X5296811Y-10270921D01*
G01X5293780Y-10271527D01*
G01X5290144Y-10272133D01*
G01X5280750Y-10272436D01*
G01X5271962Y-10272133D01*
G01X5267719Y-10271527D01*
G01X5262265Y-10270315D01*
G01X5259538Y-10269406D01*
G01X5256204Y-10268497D01*
G01X5253477Y-10267588D01*
G01X5247416Y-10265163D01*
G01X5244689Y-10263951D01*
G01X5242265Y-10262739D01*
G01X5240144Y-10261527D01*
G01X5235295Y-10258497D01*
G01X5233477Y-10257285D01*
G01X5231962Y-10256073D01*
G01X5229841Y-10254557D01*
G01X5228023Y-10253951D01*
G01X5227417Y-10266072D01*
G01X5126810Y-10266072D01*
G01X5126507Y-10265769D01*
G01X5124083Y-10262739D01*
G01X5109538Y-10245770D01*
G01X5108023Y-10244254D01*
G01X5106204Y-10241830D01*
G01X5104083Y-10239709D01*
G01X5101659Y-10236679D01*
G01X5092568Y-10226072D01*
G01X5091053Y-10223951D01*
G01X5091053Y-10222739D01*
G01X5093477Y-10221527D01*
G01X5096204Y-10220315D01*
G01X5098629Y-10218800D01*
G01X5101356Y-10216981D01*
G01X5103477Y-10215466D01*
G01X5104992Y-10213951D01*
G01X5106507Y-10212739D01*
G01X5108326Y-10210921D01*
G01X5111962Y-10206678D01*
G01X5113780Y-10203648D01*
G01X5115295Y-10201224D01*
G01X5116204Y-10199103D01*
G01X5117113Y-10196678D01*
G01X5118023Y-10193345D01*
G01X5118629Y-10190315D01*
G01X5119235Y-10187891D01*
G01X5119538Y-10180012D01*
G01X5119235Y-10172739D01*
G01X5118629Y-10170012D01*
G01X5117720Y-10166982D01*
G01X5116507Y-10163951D01*
G01X5115295Y-10161527D01*
G01X5113780Y-10159406D01*
G01X5111962Y-10157285D01*
G01X5109538Y-10154254D01*
G01X5107113Y-10152436D01*
G01X5104386Y-10150315D01*
G01X5101659Y-10148497D01*
G01X5098629Y-10146982D01*
G01X5095901Y-10145769D01*
G01X5093174Y-10144860D01*
G01X5090750Y-10144254D01*
G01X5087719Y-10143345D01*
G01X5084386Y-10142739D01*
G01X5082265Y-10142436D01*
G01X5076810Y-10141830D01*
G01X5050144Y-10141527D01*
G01X5024386Y-10141527D01*
G01X5024386Y-10141527D01*
G01X4948022Y-10141527D01*
G01X4947113Y-10141224D01*
G01X4941659Y-10140012D01*
G01X4938628Y-10139406D01*
G01X4934386Y-10138800D01*
G01X4924992Y-10138497D01*
G01X4916810Y-10138800D01*
G01X4911962Y-10139406D01*
G01X4906507Y-10140618D01*
G01X4900144Y-10142739D01*
G01X4897113Y-10143951D01*
G01X4894386Y-10145163D01*
G01X4891659Y-10146679D01*
G01X4886810Y-10149709D01*
G01X4884689Y-10151224D01*
G01X4881659Y-10153648D01*
G01X4878629Y-10156679D01*
G01X4874992Y-10160921D01*
G01X4873780Y-10162436D01*
G01X4872871Y-10163951D01*
G01X4871659Y-10165769D01*
G01X4870144Y-10168194D01*
G01X4868628Y-10170921D01*
G01X4867416Y-10173345D01*
G01X4866204Y-10176072D01*
G01X4863780Y-10182133D01*
G01X4862871Y-10185466D01*
G01X4861659Y-10190315D01*
G01X4860446Y-10196375D01*
G01X4859840Y-10200618D01*
G01X4859234Y-10206072D01*
G01X4858931Y-10216072D01*
G01X4834689Y-10216072D01*
G01X4834689Y-10199709D01*
G01X4771659Y-10199709D01*
G01X4771659Y-10158497D01*
G01X4844992Y-10158497D01*
G01X4844992Y-10141527D01*
G01X4752265Y-10141527D01*
G01X4752265Y-10141527D01*
G01X4643174Y-10141527D01*
G01X4624992Y-10141527D01*
G01X4624992Y-10200012D01*
G01X4624840Y-10243800D01*
G01X4624386Y-10258194D01*
G01X4623174Y-10256376D01*
G01X4621962Y-10253951D01*
G01X4619537Y-10249709D01*
G01X4615901Y-10242436D01*
G01X4613477Y-10238194D01*
G01X4611053Y-10233345D01*
G01X4608022Y-10227891D01*
G01X4605598Y-10223042D01*
G01X4602568Y-10217587D01*
G01X4600143Y-10212739D01*
G01X4597113Y-10207284D01*
G01X4594689Y-10202436D01*
G01X4591659Y-10196981D01*
G01X4589234Y-10192133D01*
G01X4586810Y-10187891D01*
G01X4584386Y-10183042D01*
G01X4581356Y-10177588D01*
G01X4578931Y-10172739D01*
G01X4575901Y-10167285D01*
G01X4573477Y-10162436D01*
G01X4570447Y-10156982D01*
G01X4568022Y-10152133D01*
G01X4564992Y-10146679D01*
G01X4563780Y-10144254D01*
G01X4562568Y-10142436D01*
G01X4558401Y-10141754D01*
G01X4547113Y-10141527D01*
G01X4532264Y-10141527D01*
G01X4532264Y-10141527D01*
G01X4512871Y-10141527D01*
G01X4389840Y-10141527D01*
G01X4389537Y-10143042D01*
G01X4389234Y-10151527D01*
G01X4372265Y-10151527D01*
G01X4372265Y-10141527D01*
G01X4352871Y-10141527D01*
G01X4352871Y-10189406D01*
G01X4352568Y-10238194D01*
G01X4351962Y-10244860D01*
G01X4351356Y-10247891D01*
G01X4350446Y-10251224D01*
G01X4349537Y-10253648D01*
G01X4348628Y-10255769D01*
G01X4347416Y-10257891D01*
G01X4345901Y-10260315D01*
G01X4344386Y-10262436D01*
G01X4341355Y-10265466D01*
G01X4339840Y-10266679D01*
G01X4338325Y-10267588D01*
G01X4336204Y-10268800D01*
G01X4333780Y-10270012D01*
G01X4331355Y-10270921D01*
G01X4328931Y-10271527D01*
G01X4325901Y-10272133D01*
G01X4322264Y-10272739D01*
G01X4314992Y-10273042D01*
G01X4308325Y-10272739D01*
G01X4304992Y-10272133D01*
G01X4301355Y-10271224D01*
G01X4298325Y-10270012D01*
G01X4295295Y-10268497D01*
G01X4292567Y-10266679D01*
G01X4290446Y-10264860D01*
G01X4288931Y-10263345D01*
G01X4287719Y-10261830D01*
G01X4286810Y-10260315D01*
G01X4285598Y-10258497D01*
G01X4284386Y-10256376D01*
G01X4283477Y-10254254D01*
G01X4282568Y-10251830D01*
G01X4281658Y-10248497D01*
G01X4281052Y-10245466D01*
G01X4280446Y-10241830D01*
G01X4280143Y-10236073D01*
G01X4279840Y-10232133D01*
G01X4279537Y-10186375D01*
G01X4279537Y-10141527D01*
G01X4260749Y-10141527D01*
G01X4171658Y-10141527D01*
G01X4151658Y-10141527D01*
G01X4147113Y-10149103D01*
G01X4141052Y-10158800D01*
G01X4139234Y-10161830D01*
G01X4136204Y-10166678D01*
G01X4134386Y-10169709D01*
G01X4128325Y-10179406D01*
G01X4126507Y-10182436D01*
G01X4123476Y-10187284D01*
G01X4121658Y-10190315D01*
G01X4118628Y-10195163D01*
G01X4116810Y-10198194D01*
G01X4113779Y-10203042D01*
G01X4111961Y-10205163D01*
G01X4111052Y-10205239D01*
G01X4110143Y-10204254D01*
G01X4107113Y-10199406D01*
G01X4103476Y-10193345D01*
G01X4100446Y-10188497D01*
G01X4096810Y-10182436D01*
G01X4093779Y-10177588D01*
G01X4090143Y-10171527D01*
G01X4087113Y-10166678D01*
G01X4083476Y-10160618D01*
G01X4080446Y-10155769D01*
G01X4076810Y-10149709D01*
G01X4072264Y-10142436D01*
G01X4069158Y-10141754D01*
G01X4061052Y-10141527D01*
G01X4050446Y-10141527D01*
G01X3961355Y-10141527D01*
G01X3932264Y-10141527D01*
G01X3932264Y-10141527D01*
G01X3732567Y-10141527D01*
G01X3708022Y-10141527D01*
G01X3708022Y-10141527D01*
G01X3677113Y-10141527D01*
G01X3581355Y-10141527D01*
G01X3581355Y-10141527D01*
G01X3542567Y-10141527D01*
G01X3524385Y-10141527D01*
G01X3524385Y-10200012D01*
G01X3524234Y-10243800D01*
G01X3523779Y-10258194D01*
G01X3522567Y-10256376D01*
G01X3521355Y-10253951D01*
G01X3518931Y-10249709D01*
G01X3515294Y-10242436D01*
G01X3512870Y-10238194D01*
G01X3510446Y-10233345D01*
G01X3507416Y-10227891D01*
G01X3504991Y-10223042D01*
G01X3501961Y-10217587D01*
G01X3499537Y-10212739D01*
G01X3496506Y-10207284D01*
G01X3494082Y-10202436D01*
G01X3491052Y-10196981D01*
G01X3488628Y-10192133D01*
G01X3485597Y-10186678D01*
G01X3483173Y-10181830D01*
G01X3480143Y-10176375D01*
G01X3477718Y-10171527D01*
G01X3474688Y-10166072D01*
G01X3472264Y-10161224D01*
G01X3469234Y-10155769D01*
G01X3466809Y-10150921D01*
G01X3463779Y-10145466D01*
G01X3462567Y-10143042D01*
G01X3461052Y-10141830D01*
G01X3445900Y-10141527D01*
G01X3431658Y-10141527D01*
G01X3431658Y-10141527D01*
G01X3368022Y-10141527D01*
G01X3363476Y-10140618D01*
G01X3359840Y-10140012D01*
G01X3355597Y-10139406D01*
G01X3351052Y-10139103D01*
G01X3347718Y-10138800D01*
G01X3344082Y-10138497D01*
G01X3340446Y-10138800D01*
G01X3331355Y-10139406D01*
G01X3326506Y-10140012D01*
G01X3320446Y-10141224D01*
G01X3314082Y-10143345D01*
G01X3310749Y-10144557D01*
G01X3307719Y-10145769D01*
G01X3302870Y-10148194D01*
G01X3300749Y-10149406D01*
G01X3298628Y-10150921D01*
G01X3295597Y-10153042D01*
G01X3293173Y-10154860D01*
G01X3284991Y-10163042D01*
G01X3283173Y-10165466D01*
G01X3281052Y-10168497D01*
G01X3278021Y-10173345D01*
G01X3275294Y-10178800D01*
G01X3274385Y-10180921D01*
G01X3273476Y-10183345D01*
G01X3272567Y-10186072D01*
G01X3271961Y-10188497D01*
G01X3271052Y-10191527D01*
G01X3270143Y-10196072D01*
G01X3269537Y-10199406D01*
G01X3268930Y-10204254D01*
G01X3268627Y-10215163D01*
G01X3224385Y-10215163D01*
G01X3224385Y-10156072D01*
G01X3243779Y-10156072D01*
G01X3243779Y-10141527D01*
G01X3186203Y-10141527D01*
G01X3186203Y-10156072D01*
G01X3205597Y-10156072D01*
G01X3205597Y-10271830D01*
G01X3186203Y-10271830D01*
G01X3186203Y-10271830D01*
G01X3150446Y-10271830D01*
G01X3153476Y-10268194D01*
G01X3154991Y-10265769D01*
G01X3156506Y-10263042D01*
G01X3157718Y-10260618D01*
G01X3158627Y-10258497D01*
G01X3159233Y-10256376D01*
G01X3160143Y-10253345D01*
G01X3161052Y-10248497D01*
G01X3161355Y-10243042D01*
G01X3161052Y-10239406D01*
G01X3160446Y-10235163D01*
G01X3158324Y-10228800D01*
G01X3157112Y-10226375D01*
G01X3155900Y-10224557D01*
G01X3154385Y-10222739D01*
G01X3153173Y-10221224D01*
G01X3151961Y-10220012D01*
G01X3150446Y-10218800D01*
G01X3148324Y-10216981D01*
G01X3145597Y-10215163D01*
G01X3142870Y-10213648D01*
G01X3140446Y-10212436D01*
G01X3137718Y-10211224D01*
G01X3134688Y-10210012D01*
G01X3131961Y-10209103D01*
G01X3129537Y-10208497D01*
G01X3126506Y-10207587D01*
G01X3122264Y-10206678D01*
G01X3110143Y-10204254D01*
G01X3102870Y-10203042D01*
G01X3099840Y-10202436D01*
G01X3093173Y-10201224D01*
G01X3088325Y-10200012D01*
G01X3085597Y-10199103D01*
G01X3082567Y-10197891D01*
G01X3079840Y-10196678D01*
G01X3077718Y-10195163D01*
G01X3076203Y-10193951D01*
G01X3074385Y-10192133D01*
G01X3072870Y-10189709D01*
G01X3071658Y-10187284D01*
G01X3070749Y-10183042D01*
G01X3070446Y-10176981D01*
G01X3071052Y-10172436D01*
G01X3071961Y-10170012D01*
G01X3072870Y-10168194D01*
G01X3074082Y-10166678D01*
G01X3077112Y-10163648D01*
G01X3078931Y-10162133D01*
G01X3081052Y-10160921D01*
G01X3085900Y-10158497D01*
G01X3088325Y-10157588D01*
G01X3090749Y-10156982D01*
G01X3093779Y-10156375D01*
G01X3097415Y-10155769D01*
G01X3106203Y-10155466D01*
G01X3114385Y-10155769D01*
G01X3119234Y-10156375D01*
G01X3124688Y-10157588D01*
G01X3127112Y-10158194D01*
G01X3135294Y-10160921D01*
G01X3138324Y-10162133D01*
G01X3141052Y-10163345D01*
G01X3143476Y-10164557D01*
G01X3146203Y-10166072D01*
G01X3148627Y-10167588D01*
G01X3151355Y-10169406D01*
G01X3153779Y-10171224D01*
G01X3154536Y-10171300D01*
G01X3154991Y-10170315D01*
G01X3155294Y-10158800D01*
G01X3154991Y-10151224D01*
G01X3154082Y-10148497D01*
G01X3151961Y-10147588D01*
G01X3149537Y-10146679D01*
G01X3144082Y-10144860D01*
G01X3141658Y-10144254D01*
G01X3138930Y-10143345D01*
G01X3135294Y-10142436D01*
G01X3132567Y-10141830D01*
G01X3126506Y-10140618D01*
G01X3122870Y-10140012D01*
G01X3118021Y-10139406D01*
G01X3112870Y-10139103D01*
G01X3108931Y-10138800D01*
G01X3104385Y-10138497D01*
G01X3099840Y-10138800D01*
G01X3092567Y-10139406D01*
G01X3085900Y-10140618D01*
G01X3079537Y-10142739D01*
G01X3076506Y-10143951D01*
G01X3073779Y-10145163D01*
G01X3071658Y-10146376D01*
G01X3069840Y-10147588D01*
G01X3067415Y-10149103D01*
G01X3065294Y-10150618D01*
G01X3063779Y-10152133D01*
G01X3060749Y-10154557D01*
G01X3058324Y-10157588D01*
G01X3056809Y-10159709D01*
G01X3054991Y-10162436D01*
G01X3053476Y-10165466D01*
G01X3052264Y-10168800D01*
G01X3051355Y-10172133D01*
G01X3050749Y-10175163D01*
G01X3050446Y-10182133D01*
G01X3050749Y-10188497D01*
G01X3051355Y-10191224D01*
G01X3052264Y-10194254D01*
G01X3053476Y-10197284D01*
G01X3054688Y-10199709D01*
G01X3057112Y-10203345D01*
G01X3058324Y-10204860D01*
G01X3061355Y-10207890D01*
G01X3063173Y-10209406D01*
G01X3064991Y-10210618D01*
G01X3067112Y-10212133D01*
G01X3072567Y-10214860D01*
G01X3075294Y-10216072D01*
G01X3078324Y-10217284D01*
G01X3081355Y-10218194D01*
G01X3084082Y-10218800D01*
G01X3087112Y-10219709D01*
G01X3091658Y-10220618D01*
G01X3094991Y-10221224D01*
G01X3109537Y-10223648D01*
G01X3112567Y-10224254D01*
G01X3116809Y-10225163D01*
G01X3120749Y-10226072D01*
G01X3123476Y-10226678D01*
G01X3126203Y-10227588D01*
G01X3129234Y-10228800D01*
G01X3131961Y-10230315D01*
G01X3134385Y-10231830D01*
G01X3136203Y-10233345D01*
G01X3137718Y-10235163D01*
G01X3138930Y-10236982D01*
G01X3139840Y-10239406D01*
G01X3140446Y-10241830D01*
G01X3141052Y-10245466D01*
G01X3141355Y-10250012D01*
G01X3141052Y-10252739D01*
G01X3140143Y-10255466D01*
G01X3138930Y-10258194D01*
G01X3137718Y-10260012D01*
G01X3136506Y-10261527D01*
G01X3132264Y-10265163D01*
G01X3130143Y-10266679D01*
G01X3127112Y-10268194D01*
G01X3124082Y-10269406D01*
G01X3120446Y-10270618D01*
G01X3115597Y-10271527D01*
G01X3111961Y-10272133D01*
G01X3102870Y-10272436D01*
G01X3093779Y-10272133D01*
G01X3089537Y-10271527D01*
G01X3084082Y-10270315D01*
G01X3081052Y-10269406D01*
G01X3077112Y-10268194D01*
G01X3073779Y-10266982D01*
G01X3067718Y-10264557D01*
G01X3062870Y-10262133D01*
G01X3060749Y-10260921D01*
G01X3058627Y-10259406D01*
G01X3056203Y-10257891D01*
G01X3053779Y-10256073D01*
G01X3051052Y-10254254D01*
G01X3050067Y-10254027D01*
G01X3049536Y-10254557D01*
G01X3049233Y-10266679D01*
G01X2948627Y-10266679D01*
G01X2948627Y-10215466D01*
G01X3024991Y-10215466D01*
G01X3024991Y-10198497D01*
G01X2948627Y-10198497D01*
G01X2948627Y-10158497D01*
G01X3024991Y-10158497D01*
G01X3024991Y-10141527D01*
G01X2929233Y-10141527D01*
G01X2929233Y-10141527D01*
G01X2799839Y-10141527D01*
G01X2775294Y-10141527D01*
G01X2775294Y-10141527D01*
G01X2755900Y-10141527D01*
G01X2755900Y-10023042D01*
G01X2768627Y-10023042D01*
G01X2768627Y-10034860D01*
G01X2770143Y-10035163D01*
G01X2772567Y-10036072D01*
G01X2775294Y-10037285D01*
G01X2781961Y-10039709D01*
G01X2785900Y-10040921D01*
G01X2790143Y-10042133D01*
G01X2794082Y-10043042D01*
G01X2796809Y-10043648D01*
G01X2799839Y-10044254D01*
G01X2803476Y-10044860D01*
G01X2806203Y-10045163D01*
G01X2808324Y-10045466D01*
G01X2811961Y-10045769D01*
G01X2811961Y-10045769D01*
G01X2814991Y-10046072D01*
G01X2821355Y-10046375D01*
G01X2828324Y-10046072D01*
G01X2835597Y-10045466D01*
G01X2842264Y-10044254D01*
G01X2845294Y-10043345D01*
G01X2848930Y-10042133D01*
G01X2852264Y-10040921D01*
G01X2854991Y-10039709D01*
G01X2859233Y-10037285D01*
G01X2861658Y-10035769D01*
G01X2864688Y-10033648D01*
G01X2866809Y-10031830D01*
G01X2868324Y-10030618D01*
G01X2871961Y-10026375D01*
G01X2873173Y-10024860D01*
G01X2874385Y-10022739D01*
G01X2875900Y-10020012D01*
G01X2877112Y-10017587D01*
G01X2878021Y-10015466D01*
G01X2878627Y-10013345D01*
G01X2879537Y-10010618D01*
G01X2880143Y-10007587D01*
G01X2880446Y-10005466D01*
G01X2880749Y-10000921D01*
G01X2880446Y-9996375D01*
G01X2879840Y-9992133D01*
G01X2878930Y-9989103D01*
G01X2877718Y-9985769D01*
G01X2876506Y-9983345D01*
G01X2874688Y-9980618D01*
G01X2872870Y-9978193D01*
G01X2867415Y-9973648D01*
G01X2864991Y-9972133D01*
G01X2862264Y-9970618D01*
G01X2859839Y-9969406D01*
G01X2857112Y-9968193D01*
G01X2854082Y-9966981D01*
G01X2851355Y-9966072D01*
G01X2848930Y-9965466D01*
G01X2845900Y-9964557D01*
G01X2841658Y-9963648D01*
G01X2829536Y-9961224D01*
G01X2822264Y-9960012D01*
G01X2819233Y-9959406D01*
G01X2812567Y-9958194D01*
G01X2807718Y-9956981D01*
G01X2804991Y-9956072D01*
G01X2801961Y-9954860D01*
G01X2799536Y-9953648D01*
G01X2796809Y-9951830D01*
G01X2794688Y-9950012D01*
G01X2793476Y-9948497D01*
G01X2792264Y-9946678D01*
G01X2791052Y-9943951D01*
G01X2790143Y-9940012D01*
G01X2789839Y-9934254D01*
G01X2790446Y-9929406D01*
G01X2791355Y-9926981D01*
G01X2792264Y-9925163D01*
G01X2793476Y-9923648D01*
G01X2796506Y-9920618D01*
G01X2798324Y-9919103D01*
G01X2800446Y-9917891D01*
G01X2805294Y-9915466D01*
G01X2807718Y-9914557D01*
G01X2810142Y-9913951D01*
G01X2813173Y-9913345D01*
G01X2816809Y-9912739D01*
G01X2825597Y-9912436D01*
G01X2833779Y-9912739D01*
G01X2838627Y-9913345D01*
G01X2844688Y-9914557D01*
G01X2847415Y-9915466D01*
G01X2851355Y-9916678D01*
G01X2854688Y-9917891D01*
G01X2857718Y-9919103D01*
G01X2860446Y-9920315D01*
G01X2865294Y-9922739D01*
G01X2867718Y-9924254D01*
G01X2870749Y-9926375D01*
G01X2873173Y-9928194D01*
G01X2873930Y-9928269D01*
G01X2874385Y-9927285D01*
G01X2874688Y-9915769D01*
G01X2874688Y-9905769D01*
G01X2872870Y-9905163D01*
G01X2869840Y-9903951D01*
G01X2864385Y-9902133D01*
G01X2858324Y-9900315D01*
G01X2854991Y-9899405D01*
G01X2850446Y-9898496D01*
G01X2909839Y-9898496D01*
G01X2909839Y-9946981D01*
G01X2910143Y-9996375D01*
G01X2910749Y-10002436D01*
G01X2911961Y-10009103D01*
G01X2912870Y-10012133D01*
G01X2914082Y-10015769D01*
G01X2915294Y-10018800D01*
G01X2916506Y-10021224D01*
G01X2917718Y-10023345D01*
G01X2919233Y-10025769D01*
G01X2920749Y-10027891D01*
G01X2922567Y-10030315D01*
G01X2926203Y-10033951D01*
G01X2928021Y-10035466D01*
G01X2929839Y-10036678D01*
G01X2931961Y-10038194D01*
G01X2934991Y-10040012D01*
G01X2938324Y-10041527D01*
G01X2941355Y-10042739D01*
G01X2944082Y-10043648D01*
G01X2948930Y-10044860D01*
G01X2951961Y-10045466D01*
G01X2951961Y-10045466D01*
G01X2954688Y-10046072D01*
G01X2965294Y-10046375D01*
G01X2975597Y-10046072D01*
G01X2979840Y-10045466D01*
G01X2982870Y-10044860D01*
G01X2986203Y-10043951D01*
G01X2991658Y-10042133D01*
G01X2994385Y-10040921D01*
G01X2997112Y-10039406D01*
G01X2999840Y-10037588D01*
G01X3002870Y-10035466D01*
G01X3009537Y-10028800D01*
G01X3010749Y-10027285D01*
G01X3011961Y-10025163D01*
G01X3013476Y-10022436D01*
G01X3015900Y-10017587D01*
G01X3017112Y-10014254D01*
G01X3018324Y-10010315D01*
G01X3019233Y-10006072D01*
G01X3020446Y-9998799D01*
G01X3020749Y-9994860D01*
G01X3021052Y-9992133D01*
G01X3021355Y-9944860D01*
G01X3021355Y-9898496D01*
G01X3041355Y-9898496D01*
G01X3041961Y-9900315D01*
G01X3090446Y-10033648D01*
G01X3091658Y-10036678D01*
G01X3092567Y-10039406D01*
G01X3093476Y-10041830D01*
G01X3093476Y-10041830D01*
G01X3094082Y-10043042D01*
G01X3107112Y-10043345D01*
G01X3120143Y-10043345D01*
G01X3120324Y-10042436D01*
G01X3172870Y-10042436D01*
G01X3174840Y-10043118D01*
G01X3181961Y-10043345D01*
G01X3191658Y-10043345D01*
G01X3193476Y-10037891D01*
G01X3195900Y-10031224D01*
G01X3197112Y-10027588D01*
G01X3199537Y-10020921D01*
G01X3201961Y-10013648D01*
G01X3203173Y-10010618D01*
G01X3204991Y-10005163D01*
G01X3206506Y-10003648D01*
G01X3238324Y-10003345D01*
G01X3269233Y-10003345D01*
G01X3269537Y-10004860D01*
G01X3272264Y-10013042D01*
G01X3274082Y-10017891D01*
G01X3275900Y-10023345D01*
G01X3277718Y-10028194D01*
G01X3279537Y-10033648D01*
G01X3281355Y-10038497D01*
G01X3282264Y-10041224D01*
G01X3282870Y-10042436D01*
G01X3284082Y-10043042D01*
G01X3294385Y-10043345D01*
G01X3303173Y-10043345D01*
G01X3302870Y-10041830D01*
G01X3301052Y-10036375D01*
G01X3299234Y-10031527D01*
G01X3298325Y-10028800D01*
G01X3297113Y-10025769D01*
G01X3296203Y-10023042D01*
G01X3318325Y-10023042D01*
G01X3318325Y-10034860D01*
G01X3319840Y-10035163D01*
G01X3322264Y-10036072D01*
G01X3324991Y-10037285D01*
G01X3331658Y-10039709D01*
G01X3335597Y-10040921D01*
G01X3339840Y-10042133D01*
G01X3343779Y-10043042D01*
G01X3346506Y-10043648D01*
G01X3349537Y-10044254D01*
G01X3353173Y-10044860D01*
G01X3355900Y-10045163D01*
G01X3358021Y-10045466D01*
G01X3361658Y-10045769D01*
G01X3361658Y-10045769D01*
G01X3364688Y-10046072D01*
G01X3371052Y-10046375D01*
G01X3378021Y-10046072D01*
G01X3385294Y-10045466D01*
G01X3391961Y-10044254D01*
G01X3394991Y-10043345D01*
G01X3398628Y-10042133D01*
G01X3401961Y-10040921D01*
G01X3404688Y-10039709D01*
G01X3408931Y-10037285D01*
G01X3411355Y-10035769D01*
G01X3414385Y-10033648D01*
G01X3416507Y-10031830D01*
G01X3418022Y-10030618D01*
G01X3421658Y-10026375D01*
G01X3422870Y-10024860D01*
G01X3424082Y-10022739D01*
G01X3425597Y-10020012D01*
G01X3426810Y-10017587D01*
G01X3427719Y-10015466D01*
G01X3428628Y-10013042D01*
G01X3429537Y-10009103D01*
G01X3430143Y-10005466D01*
G01X3430446Y-10000618D01*
G01X3430143Y-9995769D01*
G01X3428931Y-9989709D01*
G01X3428022Y-9987284D01*
G01X3426810Y-9984254D01*
G01X3425597Y-9982133D01*
G01X3424385Y-9980618D01*
G01X3422567Y-9978193D01*
G01X3420446Y-9976375D01*
G01X3418931Y-9975163D01*
G01X3417113Y-9973648D01*
G01X3415173Y-9972436D01*
G01X3461355Y-9972436D01*
G01X3461355Y-10043345D01*
G01X3557113Y-10043345D01*
G01X3557113Y-10026375D01*
G01X3480749Y-10026375D01*
G01X3480749Y-9972436D01*
G01X3557113Y-9972436D01*
G01X3557113Y-9955466D01*
G01X3480749Y-9955466D01*
G01X3480749Y-9915466D01*
G01X3557113Y-9915466D01*
G01X3557113Y-9898496D01*
G01X3588022Y-9898496D01*
G01X3588022Y-10043345D01*
G01X3606204Y-10043345D01*
G01X3606204Y-9979406D01*
G01X3606355Y-9931527D01*
G01X3606810Y-9915769D01*
G01X3608022Y-9917587D01*
G01X3610446Y-9921830D01*
G01X3612870Y-9926678D01*
G01X3615901Y-9932133D01*
G01X3618325Y-9936981D01*
G01X3621355Y-9942436D01*
G01X3623779Y-9947284D01*
G01X3626204Y-9951527D01*
G01X3628628Y-9956375D01*
G01X3631658Y-9961830D01*
G01X3634082Y-9966678D01*
G01X3637113Y-9972133D01*
G01X3639537Y-9976981D01*
G01X3642567Y-9982436D01*
G01X3644991Y-9987284D01*
G01X3648022Y-9992739D01*
G01X3650446Y-9997587D01*
G01X3653476Y-10003042D01*
G01X3655900Y-10007890D01*
G01X3658325Y-10012133D01*
G01X3660749Y-10016981D01*
G01X3663779Y-10022436D01*
G01X3666203Y-10027285D01*
G01X3669234Y-10032739D01*
G01X3671658Y-10037588D01*
G01X3673173Y-10040315D01*
G01X3674688Y-10042436D01*
G01X3678098Y-10043118D01*
G01X3687113Y-10043345D01*
G01X3698931Y-10043345D01*
G01X3698931Y-10023648D01*
G01X3731052Y-10023648D01*
G01X3731052Y-10034860D01*
G01X3732567Y-10035163D01*
G01X3734992Y-10036072D01*
G01X3737113Y-10036982D01*
G01X3744385Y-10039709D01*
G01X3750446Y-10041527D01*
G01X3753779Y-10042436D01*
G01X3756810Y-10043042D01*
G01X3759234Y-10043648D01*
G01X3762264Y-10044254D01*
G01X3765901Y-10044860D01*
G01X3770749Y-10045466D01*
G01X3775294Y-10045769D01*
G01X3775294Y-10045769D01*
G01X3777416Y-10046072D01*
G01X3783779Y-10046375D01*
G01X3790749Y-10046072D01*
G01X3798022Y-10045466D01*
G01X3804688Y-10044254D01*
G01X3807719Y-10043345D01*
G01X3811658Y-10042133D01*
G01X3814688Y-10040921D01*
G01X3817416Y-10039709D01*
G01X3819840Y-10038497D01*
G01X3824689Y-10035466D01*
G01X3827113Y-10033648D01*
G01X3830143Y-10031224D01*
G01X3832264Y-10029103D01*
G01X3835901Y-10024254D01*
G01X3837113Y-10022436D01*
G01X3839537Y-10017587D01*
G01X3840749Y-10014860D01*
G01X3841961Y-10011224D01*
G01X3842567Y-10008193D01*
G01X3842870Y-10006072D01*
G01X3843173Y-10000618D01*
G01X3842870Y-9995163D01*
G01X3842264Y-9992133D01*
G01X3841355Y-9988799D01*
G01X3840446Y-9986375D01*
G01X3839537Y-9984254D01*
G01X3838022Y-9981830D01*
G01X3835901Y-9978800D01*
G01X3833173Y-9976375D01*
G01X3831052Y-9974557D01*
G01X3828931Y-9973042D01*
G01X3827871Y-9972436D01*
G01X3874082Y-9972436D01*
G01X3874082Y-10043345D01*
G01X3969840Y-10043345D01*
G01X3969840Y-10028800D01*
G01X4078931Y-10028800D01*
G01X4078931Y-10043345D01*
G01X4157113Y-10043345D01*
G01X4157113Y-10028800D01*
G01X4128022Y-10028800D01*
G01X4128022Y-10016072D01*
G01X4203173Y-10016072D01*
G01X4203173Y-10043345D01*
G01X4226810Y-10043345D01*
G01X4226810Y-10028800D01*
G01X4278931Y-10028800D01*
G01X4278931Y-10043345D01*
G01X4357113Y-10043345D01*
G01X4357113Y-10028800D01*
G01X4327416Y-10028800D01*
G01X4327416Y-9897890D01*
G01X4312870Y-9897890D01*
G01X4312567Y-9899405D01*
G01X4311961Y-9902739D01*
G01X4310749Y-9906072D01*
G01X4309234Y-9908496D01*
G01X4306204Y-9911527D01*
G01X4304689Y-9912739D01*
G01X4303174Y-9913648D01*
G01X4301355Y-9914557D01*
G01X4298931Y-9915466D01*
G01X4294992Y-9916375D01*
G01X4291355Y-9916981D01*
G01X4286507Y-9917587D01*
G01X4282264Y-9917891D01*
G01X4278931Y-9917891D01*
G01X4278931Y-9931224D01*
G01X4309234Y-9931224D01*
G01X4309234Y-10028800D01*
G01X4278931Y-10028800D01*
G01X4278931Y-10028800D01*
G01X4226810Y-10028800D01*
G01X4226810Y-10016072D01*
G01X4203173Y-10016072D01*
G01X4203173Y-10016072D01*
G01X4128022Y-10016072D01*
G01X4128022Y-9897890D01*
G01X4112870Y-9897890D01*
G01X4112567Y-9900012D01*
G01X4111658Y-9904254D01*
G01X4109840Y-9907890D01*
G01X4108022Y-9910012D01*
G01X4105901Y-9911830D01*
G01X4102870Y-9913951D01*
G01X4099840Y-9915163D01*
G01X4094992Y-9916375D01*
G01X4091961Y-9916981D01*
G01X4088931Y-9917284D01*
G01X4086507Y-9917587D01*
G01X4082264Y-9917891D01*
G01X4078931Y-9917891D01*
G01X4078931Y-9931224D01*
G01X4109234Y-9931224D01*
G01X4109234Y-10028800D01*
G01X4078931Y-10028800D01*
G01X4078931Y-10028800D01*
G01X3969840Y-10028800D01*
G01X3969840Y-10026375D01*
G01X3893476Y-10026375D01*
G01X3893476Y-9972436D01*
G01X3969840Y-9972436D01*
G01X3969840Y-9955466D01*
G01X3893476Y-9955466D01*
G01X3893476Y-9915466D01*
G01X3969840Y-9915466D01*
G01X3969840Y-9898496D01*
G01X3874688Y-9898496D01*
G01X3874385Y-9900012D01*
G01X3874385Y-9900012D01*
G01X3874082Y-9972436D01*
G01X3827871Y-9972436D01*
G01X3826810Y-9971830D01*
G01X3824992Y-9970618D01*
G01X3822264Y-9969406D01*
G01X3819840Y-9968193D01*
G01X3817416Y-9967284D01*
G01X3811961Y-9965466D01*
G01X3809537Y-9964860D01*
G01X3798628Y-9962436D01*
G01X3791961Y-9961224D01*
G01X3784688Y-9960012D01*
G01X3781658Y-9959406D01*
G01X3778022Y-9958800D01*
G01X3774991Y-9958194D01*
G01X3768325Y-9956375D01*
G01X3765901Y-9955466D01*
G01X3763779Y-9954557D01*
G01X3761355Y-9953345D01*
G01X3759234Y-9951830D01*
G01X3757719Y-9950618D01*
G01X3755901Y-9948497D01*
G01X3754082Y-9945163D01*
G01X3753173Y-9942436D01*
G01X3752567Y-9939406D01*
G01X3752264Y-9934254D01*
G01X3752567Y-9930315D01*
G01X3753476Y-9927891D01*
G01X3754688Y-9925466D01*
G01X3755901Y-9923648D01*
G01X3758931Y-9920618D01*
G01X3760749Y-9919103D01*
G01X3762870Y-9917891D01*
G01X3765294Y-9916678D01*
G01X3768022Y-9915466D01*
G01X3770446Y-9914557D01*
G01X3772567Y-9913951D01*
G01X3775597Y-9913345D01*
G01X3779234Y-9912739D01*
G01X3788022Y-9912436D01*
G01X3796203Y-9912739D01*
G01X3801052Y-9913345D01*
G01X3807113Y-9914557D01*
G01X3809840Y-9915466D01*
G01X3813779Y-9916678D01*
G01X3817113Y-9917891D01*
G01X3820143Y-9919103D01*
G01X3822870Y-9920315D01*
G01X3827719Y-9922739D01*
G01X3832567Y-9925769D01*
G01X3834992Y-9927588D01*
G01X3836204Y-9928269D01*
G01X3836810Y-9927891D01*
G01X3837113Y-9916375D01*
G01X3837113Y-9905769D01*
G01X3835295Y-9905163D01*
G01X3832264Y-9903951D01*
G01X3824082Y-9901224D01*
G01X3821658Y-9900618D01*
G01X3818628Y-9899709D01*
G01X3814385Y-9898799D01*
G01X3808325Y-9897587D01*
G01X3804688Y-9896981D01*
G01X3801961Y-9896678D01*
G01X3799840Y-9896375D01*
G01X3786204Y-9895466D01*
G01X3781658Y-9895769D01*
G01X3774385Y-9896375D01*
G01X3768325Y-9897587D01*
G01X3765294Y-9898496D01*
G01X3761355Y-9899709D01*
G01X3758628Y-9900921D01*
G01X3756507Y-9901830D01*
G01X3754688Y-9902739D01*
G01X3750446Y-9905163D01*
G01X3748325Y-9906678D01*
G01X3746204Y-9908496D01*
G01X3740143Y-9914557D01*
G01X3738628Y-9916678D01*
G01X3737113Y-9919103D01*
G01X3735901Y-9921224D01*
G01X3734992Y-9923345D01*
G01X3734082Y-9925769D01*
G01X3733173Y-9929406D01*
G01X3732567Y-9932739D01*
G01X3732264Y-9938800D01*
G01X3732567Y-9944860D01*
G01X3733173Y-9947587D01*
G01X3734082Y-9950618D01*
G01X3734992Y-9953042D01*
G01X3735901Y-9955163D01*
G01X3737113Y-9957284D01*
G01X3738931Y-9960012D01*
G01X3740749Y-9962436D01*
G01X3742264Y-9963951D01*
G01X3745295Y-9966375D01*
G01X3747416Y-9967890D01*
G01X3750143Y-9969709D01*
G01X3755598Y-9972436D01*
G01X3760446Y-9974254D01*
G01X3763173Y-9975163D01*
G01X3765901Y-9975769D01*
G01X3768931Y-9976678D01*
G01X3773779Y-9977587D01*
G01X3777416Y-9978193D01*
G01X3780446Y-9978800D01*
G01X3794991Y-9981224D01*
G01X3798022Y-9981830D01*
G01X3804082Y-9983345D01*
G01X3808022Y-9984557D01*
G01X3811052Y-9985769D01*
G01X3813476Y-9986981D01*
G01X3816204Y-9988799D01*
G01X3818325Y-9990618D01*
G01X3819537Y-9992133D01*
G01X3820749Y-9993951D01*
G01X3821961Y-9996678D01*
G01X3822870Y-10001224D01*
G01X3823173Y-10006678D01*
G01X3822870Y-10010315D01*
G01X3821961Y-10012739D01*
G01X3820446Y-10015769D01*
G01X3818931Y-10017891D01*
G01X3817719Y-10019406D01*
G01X3815901Y-10020921D01*
G01X3814082Y-10022133D01*
G01X3811961Y-10023648D01*
G01X3808931Y-10025163D01*
G01X3806204Y-10026375D01*
G01X3803173Y-10027285D01*
G01X3800446Y-10027891D01*
G01X3797416Y-10028497D01*
G01X3793779Y-10029103D01*
G01X3784385Y-10029406D01*
G01X3775597Y-10029103D01*
G01X3771355Y-10028497D01*
G01X3765901Y-10027285D01*
G01X3763173Y-10026375D01*
G01X3759840Y-10025466D01*
G01X3757113Y-10024557D01*
G01X3751052Y-10022133D01*
G01X3748325Y-10020921D01*
G01X3745901Y-10019709D01*
G01X3743476Y-10018194D01*
G01X3740446Y-10016375D01*
G01X3738022Y-10014860D01*
G01X3735598Y-10013042D01*
G01X3732870Y-10011224D01*
G01X3731885Y-10010997D01*
G01X3731355Y-10011527D01*
G01X3731052Y-10023648D01*
G01X3698931Y-10023648D01*
G01X3698931Y-9898496D01*
G01X3680749Y-9898496D01*
G01X3680749Y-9956981D01*
G01X3680597Y-10000769D01*
G01X3680143Y-10015163D01*
G01X3678931Y-10013345D01*
G01X3677719Y-10010921D01*
G01X3675294Y-10006678D01*
G01X3671658Y-9999406D01*
G01X3669234Y-9995163D01*
G01X3666810Y-9990315D01*
G01X3663779Y-9984860D01*
G01X3661355Y-9980012D01*
G01X3658325Y-9974557D01*
G01X3655900Y-9969709D01*
G01X3652870Y-9964254D01*
G01X3650446Y-9959406D01*
G01X3647416Y-9953951D01*
G01X3644991Y-9949103D01*
G01X3641961Y-9943648D01*
G01X3639537Y-9938800D01*
G01X3636507Y-9933345D01*
G01X3634082Y-9928497D01*
G01X3631052Y-9923042D01*
G01X3628628Y-9918194D01*
G01X3626204Y-9913951D01*
G01X3623779Y-9909103D01*
G01X3620749Y-9903648D01*
G01X3619537Y-9901224D01*
G01X3618325Y-9899405D01*
G01X3614158Y-9898724D01*
G01X3602870Y-9898496D01*
G01X3588022Y-9898496D01*
G01X3588022Y-9898496D01*
G01X3557113Y-9898496D01*
G01X3461961Y-9898496D01*
G01X3461658Y-9900012D01*
G01X3461658Y-9900012D01*
G01X3461355Y-9972436D01*
G01X3415173Y-9972436D01*
G01X3414688Y-9972133D01*
G01X3411961Y-9970618D01*
G01X3407113Y-9968193D01*
G01X3403779Y-9966981D01*
G01X3400143Y-9965769D01*
G01X3396506Y-9964860D01*
G01X3393779Y-9964254D01*
G01X3391355Y-9963648D01*
G01X3379234Y-9961224D01*
G01X3371961Y-9960012D01*
G01X3368931Y-9959406D01*
G01X3365294Y-9958800D01*
G01X3362264Y-9958194D01*
G01X3357415Y-9956981D01*
G01X3354688Y-9956072D01*
G01X3351658Y-9954860D01*
G01X3349234Y-9953648D01*
G01X3346506Y-9951830D01*
G01X3344385Y-9950012D01*
G01X3343173Y-9948497D01*
G01X3341961Y-9946678D01*
G01X3340749Y-9943951D01*
G01X3339840Y-9940012D01*
G01X3339537Y-9934254D01*
G01X3340143Y-9929406D01*
G01X3341052Y-9926981D01*
G01X3341961Y-9925163D01*
G01X3343173Y-9923648D01*
G01X3346203Y-9920618D01*
G01X3348021Y-9919103D01*
G01X3350143Y-9917891D01*
G01X3352567Y-9916678D01*
G01X3355294Y-9915466D01*
G01X3358325Y-9914254D01*
G01X3362870Y-9913345D01*
G01X3366506Y-9912739D01*
G01X3374991Y-9912436D01*
G01X3383476Y-9912739D01*
G01X3388325Y-9913345D01*
G01X3394385Y-9914557D01*
G01X3397113Y-9915466D01*
G01X3401052Y-9916678D01*
G01X3404385Y-9917891D01*
G01X3407416Y-9919103D01*
G01X3410143Y-9920315D01*
G01X3414991Y-9922739D01*
G01X3417416Y-9924254D01*
G01X3420446Y-9926375D01*
G01X3422870Y-9928194D01*
G01X3423628Y-9928269D01*
G01X3424082Y-9927285D01*
G01X3424385Y-9915769D01*
G01X3424385Y-9905769D01*
G01X3422567Y-9905163D01*
G01X3419537Y-9903951D01*
G01X3414082Y-9902133D01*
G01X3408022Y-9900315D01*
G01X3404688Y-9899405D01*
G01X3395597Y-9897587D01*
G01X3391961Y-9896981D01*
G01X3387112Y-9896375D01*
G01X3381961Y-9896072D01*
G01X3378021Y-9895769D01*
G01X3373476Y-9895466D01*
G01X3368931Y-9895769D01*
G01X3361658Y-9896375D01*
G01X3355597Y-9897587D01*
G01X3352567Y-9898496D01*
G01X3348628Y-9899709D01*
G01X3345900Y-9900921D01*
G01X3343779Y-9901830D01*
G01X3341355Y-9903042D01*
G01X3336506Y-9906072D01*
G01X3334385Y-9907587D01*
G01X3332870Y-9909103D01*
G01X3331355Y-9910315D01*
G01X3329537Y-9912133D01*
G01X3327719Y-9914254D01*
G01X3326203Y-9916072D01*
G01X3324688Y-9918497D01*
G01X3323173Y-9921224D01*
G01X3321961Y-9923951D01*
G01X3321052Y-9926678D01*
G01X3320446Y-9929103D01*
G01X3319840Y-9932739D01*
G01X3319537Y-9940012D01*
G01X3319840Y-9945466D01*
G01X3321052Y-9950315D01*
G01X3321961Y-9952739D01*
G01X3323173Y-9955163D01*
G01X3324385Y-9957284D01*
G01X3326203Y-9960012D01*
G01X3328022Y-9962436D01*
G01X3329537Y-9963951D01*
G01X3332567Y-9966375D01*
G01X3334688Y-9967890D01*
G01X3337415Y-9969709D01*
G01X3342870Y-9972436D01*
G01X3344991Y-9973345D01*
G01X3347415Y-9974254D01*
G01X3350446Y-9975163D01*
G01X3353173Y-9975769D01*
G01X3356203Y-9976678D01*
G01X3361052Y-9977587D01*
G01X3364688Y-9978193D01*
G01X3367718Y-9978800D01*
G01X3382264Y-9981224D01*
G01X3385294Y-9981830D01*
G01X3388325Y-9982739D01*
G01X3392264Y-9983648D01*
G01X3395294Y-9984557D01*
G01X3398325Y-9985769D01*
G01X3401355Y-9987284D01*
G01X3403476Y-9988799D01*
G01X3405294Y-9990315D01*
G01X3406810Y-9992133D01*
G01X3408022Y-9993951D01*
G01X3408931Y-9996375D01*
G01X3410143Y-10001224D01*
G01X3410446Y-10005769D01*
G01X3410143Y-10009709D01*
G01X3409537Y-10011830D01*
G01X3408628Y-10013951D01*
G01X3407416Y-10016072D01*
G01X3406204Y-10017891D01*
G01X3404991Y-10019406D01*
G01X3400446Y-10023042D01*
G01X3396203Y-10025163D01*
G01X3393476Y-10026375D01*
G01X3390446Y-10027285D01*
G01X3387718Y-10027891D01*
G01X3384688Y-10028497D01*
G01X3381052Y-10029103D01*
G01X3371658Y-10029406D01*
G01X3362870Y-10029103D01*
G01X3358628Y-10028497D01*
G01X3353173Y-10027285D01*
G01X3350446Y-10026375D01*
G01X3347112Y-10025466D01*
G01X3344385Y-10024557D01*
G01X3338325Y-10022133D01*
G01X3335597Y-10020921D01*
G01X3333173Y-10019709D01*
G01X3331052Y-10018497D01*
G01X3326203Y-10015466D01*
G01X3324385Y-10014254D01*
G01X3322870Y-10013042D01*
G01X3320749Y-10011527D01*
G01X3318931Y-10010921D01*
G01X3318325Y-10023042D01*
G01X3296203Y-10023042D01*
G01X3295900Y-10022133D01*
G01X3294688Y-10019103D01*
G01X3293779Y-10016375D01*
G01X3291961Y-10011527D01*
G01X3291052Y-10008800D01*
G01X3289840Y-10005769D01*
G01X3288628Y-10002133D01*
G01X3287415Y-9999102D01*
G01X3286506Y-9996375D01*
G01X3284688Y-9991527D01*
G01X3283779Y-9988799D01*
G01X3282567Y-9985769D01*
G01X3281355Y-9982133D01*
G01X3280143Y-9979103D01*
G01X3279234Y-9976375D01*
G01X3277415Y-9971527D01*
G01X3276506Y-9968800D01*
G01X3275294Y-9965769D01*
G01X3274082Y-9962133D01*
G01X3272870Y-9959103D01*
G01X3271961Y-9956375D01*
G01X3270143Y-9951527D01*
G01X3269233Y-9948800D01*
G01X3268021Y-9945769D01*
G01X3266809Y-9942133D01*
G01X3265597Y-9939103D01*
G01X3264688Y-9936375D01*
G01X3262870Y-9931527D01*
G01X3261961Y-9928800D01*
G01X3260749Y-9925769D01*
G01X3259537Y-9922133D01*
G01X3258324Y-9919103D01*
G01X3257415Y-9916375D01*
G01X3255597Y-9911527D01*
G01X3254688Y-9908800D01*
G01X3253476Y-9905769D01*
G01X3252264Y-9902133D01*
G01X3251052Y-9899405D01*
G01X3247415Y-9898724D01*
G01X3237718Y-9898496D01*
G01X3224991Y-9898496D01*
G01X3224688Y-9900012D01*
G01X3223779Y-9902739D01*
G01X3222567Y-9905769D01*
G01X3221355Y-9909406D01*
G01X3220143Y-9912436D01*
G01X3219234Y-9915163D01*
G01X3217415Y-9920012D01*
G01X3216506Y-9922739D01*
G01X3215294Y-9925769D01*
G01X3214082Y-9929406D01*
G01X3212870Y-9932436D01*
G01X3211052Y-9937284D01*
G01X3210143Y-9940012D01*
G01X3208325Y-9944860D01*
G01X3207415Y-9947587D01*
G01X3206203Y-9950618D01*
G01X3204991Y-9954254D01*
G01X3203779Y-9957284D01*
G01X3202870Y-9960012D01*
G01X3201052Y-9964860D01*
G01X3200143Y-9967587D01*
G01X3198931Y-9970618D01*
G01X3197719Y-9974254D01*
G01X3196506Y-9977284D01*
G01X3195597Y-9980012D01*
G01X3193779Y-9984860D01*
G01X3192870Y-9987587D01*
G01X3191658Y-9990618D01*
G01X3190446Y-9994254D01*
G01X3189234Y-9997284D01*
G01X3188325Y-10000012D01*
G01X3186506Y-10004860D01*
G01X3185597Y-10007587D01*
G01X3184385Y-10010618D01*
G01X3183173Y-10014254D01*
G01X3181961Y-10017284D01*
G01X3181052Y-10020012D01*
G01X3179234Y-10024860D01*
G01X3178324Y-10027588D01*
G01X3177112Y-10030618D01*
G01X3175900Y-10034254D01*
G01X3174688Y-10037285D01*
G01X3173779Y-10040012D01*
G01X3173779Y-10040012D01*
G01X3172870Y-10042436D01*
G01X3120324Y-10042436D01*
G01X3120446Y-10041830D01*
G01X3121355Y-10039103D01*
G01X3123173Y-10034254D01*
G01X3124082Y-10031527D01*
G01X3125900Y-10026678D01*
G01X3126809Y-10023951D01*
G01X3128021Y-10020921D01*
G01X3129234Y-10017284D01*
G01X3130446Y-10014254D01*
G01X3131355Y-10011527D01*
G01X3133173Y-10006678D01*
G01X3134082Y-10003951D01*
G01X3135294Y-10000921D01*
G01X3136506Y-9997284D01*
G01X3137718Y-9994254D01*
G01X3138627Y-9991527D01*
G01X3142264Y-9981830D01*
G01X3143173Y-9979103D01*
G01X3144385Y-9976072D01*
G01X3145597Y-9972436D01*
G01X3146809Y-9969406D01*
G01X3147718Y-9966678D01*
G01X3149537Y-9961830D01*
G01X3150446Y-9959103D01*
G01X3151658Y-9956072D01*
G01X3152870Y-9952436D01*
G01X3154082Y-9949406D01*
G01X3154991Y-9946678D01*
G01X3156809Y-9941830D01*
G01X3157718Y-9939103D01*
G01X3158930Y-9936072D01*
G01X3160143Y-9932436D01*
G01X3161355Y-9929406D01*
G01X3162264Y-9926678D01*
G01X3164082Y-9921830D01*
G01X3164991Y-9919103D01*
G01X3166203Y-9916072D01*
G01X3167415Y-9912436D01*
G01X3168627Y-9909406D01*
G01X3169536Y-9906678D01*
G01X3172264Y-9899405D01*
G01X3170218Y-9898724D01*
G01X3162870Y-9898496D01*
G01X3152870Y-9898496D01*
G01X3152567Y-9900315D01*
G01X3151658Y-9903345D01*
G01X3149840Y-9908193D01*
G01X3148021Y-9913648D01*
G01X3146809Y-9916678D01*
G01X3144385Y-9923951D01*
G01X3143173Y-9926981D01*
G01X3141355Y-9932436D01*
G01X3140143Y-9935466D01*
G01X3138930Y-9939103D01*
G01X3136506Y-9945769D01*
G01X3135294Y-9949406D01*
G01X3134082Y-9952436D01*
G01X3132264Y-9957890D01*
G01X3131052Y-9960921D01*
G01X3129840Y-9964557D01*
G01X3127415Y-9971224D01*
G01X3126203Y-9974860D01*
G01X3124991Y-9977890D01*
G01X3123173Y-9983345D01*
G01X3121961Y-9986375D01*
G01X3119537Y-9993648D01*
G01X3118324Y-9996678D01*
G01X3116506Y-10002133D01*
G01X3115294Y-10005163D01*
G01X3114082Y-10008800D01*
G01X3111658Y-10015466D01*
G01X3110446Y-10019103D01*
G01X3109234Y-10022133D01*
G01X3108324Y-10024254D01*
G01X3107415Y-10024860D01*
G01X3106203Y-10022739D01*
G01X3104991Y-10019103D01*
G01X3102567Y-10012436D01*
G01X3101355Y-10008800D01*
G01X3098931Y-10002133D01*
G01X3097718Y-9998496D01*
G01X3096506Y-9995466D01*
G01X3094688Y-9990012D01*
G01X3093476Y-9986981D01*
G01X3092264Y-9983345D01*
G01X3089840Y-9976678D01*
G01X3088628Y-9973042D01*
G01X3087415Y-9970012D01*
G01X3085597Y-9964557D01*
G01X3084385Y-9961527D01*
G01X3083173Y-9957890D01*
G01X3080749Y-9951224D01*
G01X3079537Y-9947587D01*
G01X3078324Y-9944557D01*
G01X3076506Y-9939103D01*
G01X3074688Y-9934254D01*
G01X3072870Y-9928800D01*
G01X3071658Y-9925769D01*
G01X3070446Y-9922133D01*
G01X3068021Y-9915466D01*
G01X3066809Y-9911830D01*
G01X3065597Y-9908800D01*
G01X3063779Y-9903345D01*
G01X3062567Y-9900315D01*
G01X3061961Y-9898496D01*
G01X3041355Y-9898496D01*
G01X3021355Y-9898496D01*
G01X3001961Y-9898496D01*
G01X3001961Y-9947587D01*
G01X3001658Y-9997587D01*
G01X3001052Y-10002436D01*
G01X2999840Y-10007890D01*
G01X2998931Y-10010315D01*
G01X2997718Y-10013042D01*
G01X2996203Y-10015769D01*
G01X2994082Y-10018800D01*
G01X2990446Y-10022436D01*
G01X2988628Y-10023951D01*
G01X2986506Y-10025163D01*
G01X2984082Y-10026375D01*
G01X2981355Y-10027588D01*
G01X2978324Y-10028497D01*
G01X2975597Y-10029103D01*
G01X2971355Y-10029709D01*
G01X2964385Y-10030012D01*
G01X2957415Y-10029709D01*
G01X2954385Y-10029103D01*
G01X2951052Y-10028194D01*
G01X2948324Y-10027285D01*
G01X2945597Y-10026072D01*
G01X2943173Y-10024557D01*
G01X2941355Y-10023042D01*
G01X2939839Y-10021830D01*
G01X2938021Y-10020012D01*
G01X2934991Y-10015769D01*
G01X2933476Y-10012739D01*
G01X2932264Y-10010012D01*
G01X2931355Y-10007284D01*
G01X2930749Y-10004860D01*
G01X2930142Y-10001830D01*
G01X2929536Y-9997587D01*
G01X2929233Y-9946981D01*
G01X2929233Y-9898496D01*
G01X2909839Y-9898496D01*
G01X2850446Y-9898496D01*
G01X2845900Y-9897587D01*
G01X2842264Y-9896981D01*
G01X2837415Y-9896375D01*
G01X2832264Y-9896072D01*
G01X2828324Y-9895769D01*
G01X2823779Y-9895466D01*
G01X2819233Y-9895769D01*
G01X2811961Y-9896375D01*
G01X2808627Y-9896981D01*
G01X2804991Y-9897890D01*
G01X2798930Y-9899709D01*
G01X2796203Y-9900921D01*
G01X2793173Y-9902133D01*
G01X2791052Y-9903345D01*
G01X2789233Y-9904557D01*
G01X2786809Y-9906072D01*
G01X2784688Y-9907587D01*
G01X2783173Y-9909103D01*
G01X2780143Y-9911527D01*
G01X2778324Y-9913951D01*
G01X2776203Y-9916678D01*
G01X2774385Y-9919406D01*
G01X2772870Y-9922436D01*
G01X2771658Y-9925769D01*
G01X2770749Y-9929103D01*
G01X2770143Y-9932739D01*
G01X2769840Y-9939709D01*
G01X2770143Y-9945466D01*
G01X2771355Y-9950315D01*
G01X2772264Y-9952739D01*
G01X2773476Y-9955163D01*
G01X2774688Y-9957284D01*
G01X2776506Y-9960012D01*
G01X2778324Y-9962436D01*
G01X2779840Y-9963951D01*
G01X2784385Y-9967587D01*
G01X2786203Y-9968800D01*
G01X2788324Y-9970012D01*
G01X2793173Y-9972436D01*
G01X2795294Y-9973345D01*
G01X2797718Y-9974254D01*
G01X2800749Y-9975163D01*
G01X2803476Y-9975769D01*
G01X2806506Y-9976678D01*
G01X2811355Y-9977587D01*
G01X2814991Y-9978193D01*
G01X2818021Y-9978800D01*
G01X2832567Y-9981224D01*
G01X2835597Y-9981830D01*
G01X2838627Y-9982739D01*
G01X2842567Y-9983648D01*
G01X2845597Y-9984557D01*
G01X2848627Y-9985769D01*
G01X2851051Y-9986981D01*
G01X2854688Y-9989406D01*
G01X2855900Y-9990618D01*
G01X2857112Y-9992133D01*
G01X2858324Y-9993951D01*
G01X2859233Y-9996375D01*
G01X2859839Y-9998799D01*
G01X2860446Y-10001830D01*
G01X2860749Y-10006375D01*
G01X2860446Y-10009709D01*
G01X2859536Y-10012436D01*
G01X2858324Y-10015163D01*
G01X2857112Y-10016981D01*
G01X2855294Y-10019103D01*
G01X2853173Y-10020921D01*
G01X2851658Y-10022133D01*
G01X2849536Y-10023648D01*
G01X2846506Y-10025163D01*
G01X2843779Y-10026375D01*
G01X2840748Y-10027285D01*
G01X2838021Y-10027891D01*
G01X2834991Y-10028497D01*
G01X2831355Y-10029103D01*
G01X2821961Y-10029406D01*
G01X2813173Y-10029103D01*
G01X2808930Y-10028497D01*
G01X2803476Y-10027285D01*
G01X2800749Y-10026375D01*
G01X2797415Y-10025466D01*
G01X2794688Y-10024557D01*
G01X2788627Y-10022133D01*
G01X2785900Y-10020921D01*
G01X2783476Y-10019709D01*
G01X2781355Y-10018497D01*
G01X2776506Y-10015466D01*
G01X2774688Y-10014254D01*
G01X2773173Y-10013042D01*
G01X2771052Y-10011527D01*
G01X2769233Y-10010921D01*
G01X2768627Y-10023042D01*
G01X2755900Y-10023042D01*
G01X2755900Y-9842739D01*
G01X5765599Y-9842739D01*
G01X5765599Y-10328800D01*
G37*
G36*
G01X2808930Y-10270012D02*
G01X2794991Y-10269709D01*
G01X2794688Y-10213648D01*
G01X2794688Y-10157891D01*
G01X2808930Y-10157891D01*
G01X2824082Y-10158194D01*
G01X2830748Y-10158800D01*
G01X2834991Y-10159406D01*
G01X2837718Y-10160012D01*
G01X2843779Y-10161830D01*
G01X2846506Y-10162739D01*
G01X2851961Y-10165163D01*
G01X2854385Y-10166678D01*
G01X2857112Y-10168497D01*
G01X2859233Y-10170012D01*
G01X2861658Y-10171830D01*
G01X2865294Y-10175466D01*
G01X2868930Y-10180012D01*
G01X2869840Y-10181830D01*
G01X2871355Y-10184254D01*
G01X2872567Y-10186981D01*
G01X2873476Y-10189103D01*
G01X2874385Y-10191527D01*
G01X2874991Y-10193951D01*
G01X2875900Y-10196981D01*
G01X2876506Y-10200315D01*
G01X2877415Y-10206678D01*
G01X2877718Y-10215163D01*
G01X2877415Y-10223648D01*
G01X2876809Y-10228497D01*
G01X2876203Y-10231527D01*
G01X2875294Y-10234860D01*
G01X2874385Y-10237588D01*
G01X2873476Y-10240012D01*
G01X2872567Y-10242133D01*
G01X2871355Y-10244557D01*
G01X2869840Y-10246982D01*
G01X2868627Y-10248800D01*
G01X2867415Y-10250315D01*
G01X2865597Y-10252739D01*
G01X2863476Y-10254860D01*
G01X2860446Y-10257285D01*
G01X2858021Y-10259103D01*
G01X2855294Y-10260921D01*
G01X2853173Y-10262133D01*
G01X2848324Y-10264557D01*
G01X2845900Y-10265466D01*
G01X2843173Y-10266376D01*
G01X2839839Y-10267285D01*
G01X2833779Y-10268497D01*
G01X2829536Y-10269103D01*
G01X2825900Y-10269406D01*
G01X2823476Y-10269709D01*
G01X2808930Y-10270012D01*
G37*
G36*
G01X3741052Y-10270012D02*
G01X3727113Y-10269709D01*
G01X3726810Y-10213648D01*
G01X3726810Y-10157891D01*
G01X3741355Y-10157891D01*
G01X3756810Y-10158194D01*
G01X3763476Y-10158800D01*
G01X3770749Y-10160012D01*
G01X3777113Y-10162133D01*
G01X3780446Y-10163345D01*
G01X3786507Y-10166375D01*
G01X3788628Y-10167588D01*
G01X3790749Y-10169103D01*
G01X3792870Y-10170921D01*
G01X3795900Y-10173345D01*
G01X3797416Y-10174860D01*
G01X3799840Y-10177891D01*
G01X3801355Y-10180012D01*
G01X3803779Y-10184254D01*
G01X3804991Y-10186678D01*
G01X3806204Y-10189406D01*
G01X3807113Y-10192133D01*
G01X3808022Y-10195163D01*
G01X3808931Y-10198800D01*
G01X3809537Y-10203042D01*
G01X3810143Y-10208497D01*
G01X3810446Y-10216072D01*
G01X3810143Y-10221830D01*
G01X3809537Y-10227285D01*
G01X3808931Y-10231527D01*
G01X3808022Y-10234557D01*
G01X3806810Y-10238194D01*
G01X3805597Y-10241224D01*
G01X3803173Y-10246073D01*
G01X3801658Y-10248194D01*
G01X3798022Y-10252739D01*
G01X3796810Y-10253951D01*
G01X3795294Y-10255163D01*
G01X3793779Y-10256679D01*
G01X3791355Y-10258497D01*
G01X3788325Y-10260618D01*
G01X3785294Y-10262436D01*
G01X3782264Y-10263951D01*
G01X3779234Y-10265163D01*
G01X3775901Y-10266376D01*
G01X3772264Y-10267285D01*
G01X3769537Y-10267891D01*
G01X3766507Y-10268497D01*
G01X3762264Y-10269103D01*
G01X3758325Y-10269406D01*
G01X3755598Y-10269709D01*
G01X3741052Y-10270012D01*
G37*
G36*
G01X3968628Y-10199709D02*
G01X3951961Y-10199406D01*
G01X3951658Y-10178497D01*
G01X3951658Y-10157891D01*
G01X3970143Y-10157891D01*
G01X3989537Y-10158194D01*
G01X3994992Y-10158800D01*
G01X3997719Y-10159709D01*
G01X4000749Y-10160921D01*
G01X4003476Y-10162739D01*
G01X4005901Y-10165163D01*
G01X4007416Y-10167891D01*
G01X4008628Y-10171224D01*
G01X4009234Y-10177588D01*
G01X4008931Y-10183042D01*
G01X4008325Y-10185466D01*
G01X4007416Y-10187891D01*
G01X4006204Y-10190012D01*
G01X4004688Y-10191830D01*
G01X4003173Y-10193345D01*
G01X4001052Y-10194860D01*
G01X3996204Y-10197284D01*
G01X3993173Y-10198194D01*
G01X3990749Y-10198800D01*
G01X3985901Y-10199406D01*
G01X3968628Y-10199709D01*
G37*
G36*
G01X3969840Y-10270012D02*
G01X3951961Y-10269709D01*
G01X3951658Y-10242739D01*
G01X3951658Y-10216072D01*
G01X3972567Y-10216072D01*
G01X3994385Y-10216375D01*
G01X4000446Y-10216981D01*
G01X4003173Y-10217587D01*
G01X4006204Y-10218497D01*
G01X4008628Y-10219406D01*
G01X4010446Y-10220315D01*
G01X4014082Y-10222739D01*
G01X4015598Y-10223951D01*
G01X4016810Y-10225466D01*
G01X4017719Y-10226982D01*
G01X4018931Y-10228800D01*
G01X4020143Y-10231830D01*
G01X4021052Y-10235769D01*
G01X4021355Y-10239103D01*
G01X4021658Y-10241224D01*
G01X4021961Y-10243648D01*
G01X4021658Y-10246073D01*
G01X4021052Y-10251527D01*
G01X4020143Y-10253951D01*
G01X4018628Y-10256679D01*
G01X4017113Y-10258800D01*
G01X4014082Y-10261830D01*
G01X4012264Y-10263345D01*
G01X4009840Y-10264860D01*
G01X4007416Y-10266072D01*
G01X4004991Y-10266982D01*
G01X4001961Y-10267891D01*
G01X3999234Y-10268497D01*
G01X3995598Y-10269103D01*
G01X3990143Y-10269709D01*
G01X3969840Y-10270012D01*
G37*
G36*
G01X4924992Y-10273042D02*
G01X4920447Y-10272739D01*
G01X4918022Y-10272436D01*
G01X4914992Y-10272133D01*
G01X4911962Y-10271224D01*
G01X4908325Y-10270012D01*
G01X4905295Y-10268800D01*
G01X4902568Y-10267285D01*
G01X4899841Y-10265466D01*
G01X4897719Y-10263648D01*
G01X4894689Y-10261224D01*
G01X4893174Y-10259709D01*
G01X4891659Y-10257891D01*
G01X4890447Y-10256073D01*
G01X4888932Y-10253951D01*
G01X4887416Y-10251527D01*
G01X4886204Y-10249406D01*
G01X4883780Y-10243951D01*
G01X4882871Y-10241527D01*
G01X4882265Y-10239406D01*
G01X4881356Y-10236376D01*
G01X4880447Y-10231527D01*
G01X4879841Y-10227891D01*
G01X4879235Y-10221830D01*
G01X4878932Y-10213042D01*
G01X4879235Y-10204254D01*
G01X4879841Y-10198800D01*
G01X4880447Y-10194557D01*
G01X4881356Y-10191527D01*
G01X4882265Y-10187891D01*
G01X4883174Y-10185163D01*
G01X4884083Y-10182739D01*
G01X4884992Y-10180618D01*
G01X4887416Y-10175769D01*
G01X4888629Y-10173951D01*
G01X4892265Y-10169103D01*
G01X4895295Y-10166072D01*
G01X4897113Y-10164557D01*
G01X4898932Y-10163345D01*
G01X4900447Y-10162133D01*
G01X4902265Y-10160921D01*
G01X4907113Y-10158497D01*
G01X4909538Y-10157588D01*
G01X4911962Y-10156982D01*
G01X4914992Y-10156072D01*
G01X4918628Y-10155466D01*
G01X4921053Y-10155163D01*
G01X4926810Y-10154860D01*
G01X4932568Y-10155163D01*
G01X4936810Y-10155769D01*
G01X4939537Y-10156375D01*
G01X4942568Y-10157285D01*
G01X4945598Y-10158497D01*
G01X4948325Y-10159709D01*
G01X4950750Y-10161224D01*
G01X4953780Y-10163345D01*
G01X4956204Y-10165163D01*
G01X4959234Y-10168194D01*
G01X4961053Y-10170315D01*
G01X4964083Y-10174557D01*
G01X4965901Y-10177588D01*
G01X4967416Y-10180618D01*
G01X4968628Y-10183648D01*
G01X4969841Y-10186981D01*
G01X4971053Y-10190921D01*
G01X4971962Y-10195163D01*
G01X4972568Y-10198800D01*
G01X4972871Y-10201527D01*
G01X4973174Y-10203648D01*
G01X4973780Y-10213951D01*
G01X4973780Y-10216375D01*
G01X4973477Y-10222133D01*
G01X4973174Y-10227285D01*
G01X4972568Y-10231527D01*
G01X4971356Y-10237588D01*
G01X4969234Y-10243951D01*
G01X4968022Y-10246679D01*
G01X4967113Y-10248800D01*
G01X4966204Y-10250618D01*
G01X4963174Y-10255163D01*
G01X4961356Y-10257588D01*
G01X4955295Y-10263648D01*
G01X4953780Y-10264860D01*
G01X4951659Y-10266072D01*
G01X4948931Y-10267588D01*
G01X4946507Y-10268800D01*
G01X4943780Y-10270012D01*
G01X4939841Y-10271224D01*
G01X4935598Y-10272133D01*
G01X4931356Y-10272739D01*
G01X4924992Y-10273042D01*
G37*
G36*
G01X5054083Y-10213042D02*
G01X5044083Y-10212739D01*
G01X5043780Y-10185163D01*
G01X5043780Y-10157891D01*
G01X5059234Y-10157891D01*
G01X5075598Y-10158194D01*
G01X5079841Y-10158800D01*
G01X5082265Y-10159406D01*
G01X5084992Y-10160315D01*
G01X5087719Y-10161527D01*
G01X5090447Y-10163042D01*
G01X5092568Y-10164557D01*
G01X5094083Y-10166072D01*
G01X5095598Y-10168194D01*
G01X5097114Y-10170921D01*
G01X5098326Y-10173648D01*
G01X5099235Y-10177588D01*
G01X5099538Y-10184860D01*
G01X5099235Y-10190315D01*
G01X5098629Y-10193042D01*
G01X5097720Y-10196072D01*
G01X5096507Y-10198497D01*
G01X5094689Y-10201224D01*
G01X5092871Y-10203648D01*
G01X5090750Y-10205466D01*
G01X5086507Y-10208497D01*
G01X5083780Y-10209709D01*
G01X5081356Y-10210618D01*
G01X5078932Y-10211224D01*
G01X5076810Y-10211527D01*
G01X5073174Y-10212133D01*
G01X5068022Y-10212436D01*
G01X5064689Y-10212739D01*
G01X5054083Y-10213042D01*
G37*
G36*
G01X5696508Y-10229406D02*
G01X5671356Y-10229103D01*
G01X5671356Y-10227285D01*
G01X5674083Y-10219103D01*
G01X5675295Y-10216072D01*
G01X5676508Y-10212436D01*
G01X5678932Y-10205769D01*
G01X5680144Y-10202133D01*
G01X5681356Y-10199103D01*
G01X5682265Y-10196375D01*
G01X5684083Y-10191527D01*
G01X5684992Y-10188800D01*
G01X5686811Y-10183951D01*
G01X5688629Y-10178497D01*
G01X5689841Y-10175466D01*
G01X5691053Y-10171830D01*
G01X5694689Y-10161830D01*
G01X5696205Y-10160012D01*
G01X5696962Y-10160239D01*
G01X5697417Y-10161527D01*
G01X5698326Y-10164254D01*
G01X5699235Y-10166678D01*
G01X5700144Y-10169406D01*
G01X5701962Y-10174254D01*
G01X5703780Y-10179709D01*
G01X5704992Y-10182739D01*
G01X5706205Y-10186375D01*
G01X5708629Y-10193042D01*
G01X5709841Y-10196678D01*
G01X5711053Y-10199709D01*
G01X5712871Y-10205163D01*
G01X5714083Y-10208194D01*
G01X5715296Y-10211830D01*
G01X5717720Y-10218497D01*
G01X5718932Y-10222133D01*
G01X5720144Y-10225163D01*
G01X5721053Y-10227891D01*
G01X5721356Y-10229406D01*
G01X5696508Y-10229406D01*
G37*
G54D10*
G01X4486660Y-7590423D02*
G01X4531618Y-7708279D01*
G01X4576576Y-7590423D02*
G01X4531618Y-7708279D01*
G01X4623820Y-7590423D02*
G01X4623820Y-7708279D01*
G01X4623820Y-7590423D02*
G01X4696718Y-7590423D01*
G01X4623820Y-7646557D02*
G01X4668778Y-7646557D01*
G01X4623820Y-7708279D02*
G01X4696718Y-7708279D01*
G01X4743962Y-7590423D02*
G01X4743962Y-7708279D01*
G01X4743962Y-7590423D02*
G01X4788920Y-7708279D01*
G01X4833878Y-7590423D02*
G01X4788920Y-7708279D01*
G01X4833878Y-7590423D02*
G01X4833878Y-7708279D01*
G01X4881122Y-7590423D02*
G01X4881122Y-7708279D01*
G01X4881122Y-7708279D02*
G01X4948432Y-7708279D01*
G01X4552446Y-7818515D02*
G01X4496312Y-7936371D01*
G01X4473960Y-7818515D02*
G01X4552446Y-7818515D01*
G01X4678430Y-7818515D02*
G01X4622296Y-7936371D01*
G01X4599690Y-7818515D02*
G01X4678430Y-7818515D01*
G01X4759456Y-7818515D02*
G01X4742438Y-7824103D01*
G01X4731262Y-7840867D01*
G01X4725674Y-7869061D01*
G01X4725674Y-7885825D01*
G01X4731262Y-7914019D01*
G01X4742438Y-7930783D01*
G01X4759456Y-7936371D01*
G01X4770632Y-7936371D01*
G01X4787396Y-7930783D01*
G01X4798572Y-7914019D01*
G01X4804414Y-7885825D01*
G01X4804414Y-7869061D01*
G01X4798572Y-7840867D01*
G01X4787396Y-7824103D01*
G01X4770632Y-7818515D01*
G01X4759456Y-7818515D01*
G01X4885440Y-7818515D02*
G01X4868422Y-7824103D01*
G01X4857246Y-7840867D01*
G01X4851658Y-7869061D01*
G01X4851658Y-7885825D01*
G01X4857246Y-7914019D01*
G01X4868422Y-7930783D01*
G01X4885440Y-7936371D01*
G01X4896616Y-7936371D01*
G01X4913380Y-7930783D01*
G01X4924556Y-7914019D01*
G01X4930398Y-7885825D01*
G01X4930398Y-7869061D01*
G01X4924556Y-7840867D01*
G01X4913380Y-7824103D01*
G01X4896616Y-7818515D01*
G01X4885440Y-7818515D01*
G01X4143760Y-8680845D02*
G01X4163572Y-8732915D01*
G01X4183638Y-8680845D02*
G01X4163572Y-8732915D01*
G01X4215896Y-8680845D02*
G01X4215896Y-8732915D01*
G01X4248154Y-8680845D02*
G01X4248154Y-8732915D01*
G01X4248154Y-8680845D02*
G01X4282952Y-8732915D01*
G01X4282952Y-8680845D02*
G01X4282952Y-8732915D01*
G01X4676398Y-8693291D02*
G01X4673858Y-8688211D01*
G01X4669032Y-8683131D01*
G01X4663952Y-8680845D01*
G01X4654046Y-8680845D01*
G01X4648966Y-8683131D01*
G01X4644140Y-8688211D01*
G01X4641600Y-8693291D01*
G01X4639060Y-8700657D01*
G01X4639060Y-8713103D01*
G01X4641600Y-8720469D01*
G01X4644140Y-8725549D01*
G01X4648966Y-8730629D01*
G01X4654046Y-8732915D01*
G01X4663952Y-8732915D01*
G01X4669032Y-8730629D01*
G01X4673858Y-8725549D01*
G01X4676398Y-8720469D01*
G01X4676398Y-8713103D01*
G01X4663952Y-8713103D02*
G01X4676398Y-8713103D01*
G01X4708656Y-8680845D02*
G01X4708656Y-8732915D01*
G01X4708656Y-8680845D02*
G01X4743454Y-8732915D01*
G01X4743454Y-8680845D02*
G01X4743454Y-8732915D01*
G01X4775712Y-8680845D02*
G01X4775712Y-8732915D01*
G01X4775712Y-8680845D02*
G01X4793238Y-8680845D01*
G01X4800604Y-8683131D01*
G01X4805684Y-8688211D01*
G01X4807970Y-8693291D01*
G01X4810510Y-8700657D01*
G01X4810510Y-8713103D01*
G01X4807970Y-8720469D01*
G01X4805684Y-8725549D01*
G01X4800604Y-8730629D01*
G01X4793238Y-8732915D01*
G01X4775712Y-8732915D01*
G01X5181858Y-8688211D02*
G01X5177032Y-8683131D01*
G01X5169412Y-8680845D01*
G01X5159506Y-8680845D01*
G01X5152140Y-8683131D01*
G01X5147060Y-8688211D01*
G01X5147060Y-8693291D01*
G01X5149600Y-8698117D01*
G01X5152140Y-8700657D01*
G01X5156966Y-8703197D01*
G01X5171952Y-8708023D01*
G01X5177032Y-8710563D01*
G01X5179318Y-8713103D01*
G01X5181858Y-8718183D01*
G01X5181858Y-8725549D01*
G01X5177032Y-8730629D01*
G01X5169412Y-8732915D01*
G01X5159506Y-8732915D01*
G01X5152140Y-8730629D01*
G01X5147060Y-8725549D01*
G01X5214116Y-8680845D02*
G01X5214116Y-8732915D01*
G01X5214116Y-8680845D02*
G01X5231642Y-8680845D01*
G01X5239008Y-8683131D01*
G01X5244088Y-8688211D01*
G01X5246374Y-8693291D01*
G01X5248914Y-8700657D01*
G01X5248914Y-8713103D01*
G01X5246374Y-8720469D01*
G01X5244088Y-8725549D01*
G01X5239008Y-8730629D01*
G01X5231642Y-8732915D01*
G01X5214116Y-8732915D01*
G01X5300984Y-8680845D02*
G01X5281172Y-8732915D01*
G01X5300984Y-8680845D02*
G01X5321050Y-8732915D01*
G01X5288538Y-8715643D02*
G01X5313430Y-8715643D01*
G01X4965958Y-9069211D02*
G01X4961132Y-9064131D01*
G01X4953512Y-9061845D01*
G01X4943606Y-9061845D01*
G01X4936240Y-9064131D01*
G01X4931160Y-9069211D01*
G01X4931160Y-9074291D01*
G01X4933700Y-9079117D01*
G01X4936240Y-9081657D01*
G01X4941066Y-9084197D01*
G01X4956052Y-9089023D01*
G01X4961132Y-9091563D01*
G01X4963418Y-9094103D01*
G01X4965958Y-9099183D01*
G01X4965958Y-9106549D01*
G01X4961132Y-9111629D01*
G01X4953512Y-9113915D01*
G01X4943606Y-9113915D01*
G01X4936240Y-9111629D01*
G01X4931160Y-9106549D01*
G01X5035554Y-9074291D02*
G01X5033014Y-9069211D01*
G01X5028188Y-9064131D01*
G01X5023108Y-9061845D01*
G01X5013202Y-9061845D01*
G01X5008122Y-9064131D01*
G01X5003296Y-9069211D01*
G01X5000756Y-9074291D01*
G01X4998216Y-9081657D01*
G01X4998216Y-9094103D01*
G01X5000756Y-9101469D01*
G01X5003296Y-9106549D01*
G01X5008122Y-9111629D01*
G01X5013202Y-9113915D01*
G01X5023108Y-9113915D01*
G01X5028188Y-9111629D01*
G01X5033014Y-9106549D01*
G01X5035554Y-9101469D01*
G01X5067812Y-9061845D02*
G01X5067812Y-9113915D01*
G01X5067812Y-9113915D02*
G01X5097784Y-9113915D01*
G01X4402840Y-9061845D02*
G01X4430018Y-9061845D01*
G01X4415286Y-9081657D01*
G01X4422652Y-9081657D01*
G01X4427732Y-9084197D01*
G01X4430018Y-9086737D01*
G01X4432558Y-9094103D01*
G01X4432558Y-9099183D01*
G01X4430018Y-9106549D01*
G01X4425192Y-9111629D01*
G01X4417572Y-9113915D01*
G01X4410206Y-9113915D01*
G01X4402840Y-9111629D01*
G01X4400300Y-9109089D01*
G01X4397760Y-9104009D01*
G01X4464816Y-9061845D02*
G01X4484628Y-9113915D01*
G01X4504694Y-9061845D02*
G01X4484628Y-9113915D01*
G01X4549398Y-9079117D02*
G01X4544318Y-9081657D01*
G01X4539492Y-9086737D01*
G01X4536952Y-9094103D01*
G01X4536952Y-9099183D01*
G01X4539492Y-9106549D01*
G01X4544318Y-9111629D01*
G01X4549398Y-9113915D01*
G01X4556764Y-9113915D01*
G01X4561844Y-9111629D01*
G01X4566924Y-9106549D01*
G01X4569210Y-9099183D01*
G01X4569210Y-9094103D01*
G01X4566924Y-9086737D01*
G01X4561844Y-9081657D01*
G01X4556764Y-9079117D01*
G01X4549398Y-9079117D01*
G54D11*
G01X3925322Y-7383667D02*
G01X3925322Y-7430149D01*
G01X3928370Y-7439293D01*
G01X3934720Y-7445643D01*
G01X3943864Y-7448691D01*
G01X3950214Y-7448691D01*
G01X3959358Y-7445643D01*
G01X3965454Y-7439293D01*
G01X3968756Y-7430149D01*
G01X3968756Y-7383667D01*
G01X3998982Y-7396113D02*
G01X4005078Y-7392811D01*
G01X4014222Y-7383667D01*
G01X4014222Y-7448691D01*
G54D10*
G01X8943975Y-8151508D02*
G01X8938133Y-8140078D01*
G01X8926957Y-8128902D01*
G01X8915781Y-8123314D01*
G01X8893429Y-8123314D01*
G01X8881999Y-8128902D01*
G01X8870823Y-8140078D01*
G01X8865235Y-8151508D01*
G01X8859647Y-8168272D01*
G01X8859647Y-8196212D01*
G01X8865235Y-8213230D01*
G01X8870823Y-8224406D01*
G01X8881999Y-8235582D01*
G01X8893429Y-8241170D01*
G01X8915781Y-8241170D01*
G01X8926957Y-8235582D01*
G01X8938133Y-8224406D01*
G01X8943975Y-8213230D01*
G01X8943975Y-8196212D01*
G01X8915781Y-8196212D02*
G01X8943975Y-8196212D01*
G01X8991219Y-8123314D02*
G01X9036177Y-8179448D01*
G01X9036177Y-8241170D01*
G01X9081135Y-8123314D02*
G01X9036177Y-8179448D01*
G01X9195689Y-8123314D02*
G01X9139555Y-8123314D01*
G01X9133967Y-8173860D01*
G01X9139555Y-8168272D01*
G01X9156573Y-8162684D01*
G01X9173337Y-8162684D01*
G01X9190101Y-8168272D01*
G01X9201277Y-8179448D01*
G01X9207119Y-8196212D01*
G01X9207119Y-8207642D01*
G01X9201277Y-8224406D01*
G01X9190101Y-8235582D01*
G01X9173337Y-8241170D01*
G01X9156573Y-8241170D01*
G01X9139555Y-8235582D01*
G01X9133967Y-8229994D01*
G01X9128379Y-8218818D01*
G01X9259951Y-8151508D02*
G01X9259951Y-8145666D01*
G01X9265539Y-8134490D01*
G01X9271127Y-8128902D01*
G01X9282557Y-8123314D01*
G01X9304909Y-8123314D01*
G01X9316085Y-8128902D01*
G01X9321673Y-8134490D01*
G01X9327261Y-8145666D01*
G01X9327261Y-8157096D01*
G01X9321673Y-8168272D01*
G01X9310497Y-8185036D01*
G01X9254363Y-8241170D01*
G01X9333103Y-8241170D01*
G01X9380347Y-8145666D02*
G01X9391523Y-8140078D01*
G01X9408541Y-8123314D01*
G01X9408541Y-8241170D01*
G01X10113137Y-8783460D02*
G01X10115677Y-8788540D01*
G01X10123043Y-8795906D01*
G01X10070973Y-8795906D01*
G01X9860407Y-8773300D02*
G01X9862947Y-8773300D01*
G01X9868027Y-8775840D01*
G01X9870567Y-8778126D01*
G01X9872853Y-8783206D01*
G01X9872853Y-8793112D01*
G01X9870567Y-8798192D01*
G01X9868027Y-8800732D01*
G01X9862947Y-8803018D01*
G01X9858121Y-8803018D01*
G01X9853041Y-8800732D01*
G01X9845675Y-8795652D01*
G01X9820783Y-8770760D01*
G01X9820783Y-8805558D01*
G01X9615043Y-8788540D02*
G01X9615043Y-8815718D01*
G01X9595231Y-8800986D01*
G01X9595231Y-8808352D01*
G01X9592691Y-8813432D01*
G01X9590151Y-8815718D01*
G01X9582785Y-8818258D01*
G01X9577705Y-8818258D01*
G01X9570339Y-8815718D01*
G01X9565259Y-8810892D01*
G01X9562973Y-8803272D01*
G01X9562973Y-8795906D01*
G01X9565259Y-8788540D01*
G01X9567799Y-8786000D01*
G01X9572879Y-8783460D01*
G01X9361043Y-8821052D02*
G01X9326245Y-8796160D01*
G01X9326245Y-8833498D01*
G01X9361043Y-8821052D02*
G01X9308973Y-8821052D01*
G01X9119743Y-8826132D02*
G01X9119743Y-8801240D01*
G01X9097391Y-8798700D01*
G01X9099931Y-8801240D01*
G01X9102471Y-8808606D01*
G01X9102471Y-8815972D01*
G01X9099931Y-8823592D01*
G01X9094851Y-8828418D01*
G01X9087485Y-8830958D01*
G01X9082405Y-8830958D01*
G01X9075039Y-8828418D01*
G01X9069959Y-8823592D01*
G01X9067673Y-8815972D01*
G01X9067673Y-8808606D01*
G01X9069959Y-8801240D01*
G01X9072499Y-8798700D01*
G01X9077579Y-8796160D01*
G01X8849487Y-8826132D02*
G01X8854567Y-8823592D01*
G01X8856853Y-8815972D01*
G01X8856853Y-8811146D01*
G01X8854567Y-8803526D01*
G01X8846947Y-8798700D01*
G01X8834501Y-8796160D01*
G01X8822055Y-8796160D01*
G01X8812149Y-8798700D01*
G01X8807069Y-8803526D01*
G01X8804783Y-8811146D01*
G01X8804783Y-8813686D01*
G01X8807069Y-8821052D01*
G01X8812149Y-8826132D01*
G01X8819515Y-8828418D01*
G01X8822055Y-8828418D01*
G01X8829675Y-8826132D01*
G01X8834501Y-8821052D01*
G01X8837041Y-8813686D01*
G01X8837041Y-8811146D01*
G01X8834501Y-8803526D01*
G01X8829675Y-8798700D01*
G01X8822055Y-8796160D01*
G01X8395843Y-8808606D02*
G01X8393557Y-8801240D01*
G01X8388477Y-8798700D01*
G01X8383397Y-8798700D01*
G01X8378571Y-8801240D01*
G01X8376031Y-8806066D01*
G01X8373491Y-8815972D01*
G01X8370951Y-8823592D01*
G01X8366125Y-8828418D01*
G01X8361045Y-8830958D01*
G01X8353679Y-8830958D01*
G01X8348599Y-8828418D01*
G01X8346059Y-8826132D01*
G01X8343773Y-8818512D01*
G01X8343773Y-8808606D01*
G01X8346059Y-8801240D01*
G01X8348599Y-8798700D01*
G01X8353679Y-8796160D01*
G01X8361045Y-8796160D01*
G01X8366125Y-8798700D01*
G01X8370951Y-8803526D01*
G01X8373491Y-8811146D01*
G01X8376031Y-8821052D01*
G01X8378571Y-8826132D01*
G01X8383397Y-8828418D01*
G01X8388477Y-8828418D01*
G01X8393557Y-8826132D01*
G01X8395843Y-8818512D01*
G01X8395843Y-8808606D01*
G01X8637143Y-8830958D02*
G01X8585073Y-8806066D01*
G01X8637143Y-8796160D02*
G01X8637143Y-8830958D01*
G54D11*
G01X8211820Y-7398766D02*
G01X8211820Y-7445248D01*
G01X8214868Y-7454392D01*
G01X8221218Y-7460742D01*
G01X8230362Y-7463790D01*
G01X8236712Y-7463790D01*
G01X8245856Y-7460742D01*
G01X8251952Y-7454392D01*
G01X8255254Y-7445248D01*
G01X8255254Y-7398766D01*
G01X8288528Y-7414260D02*
G01X8288528Y-7411212D01*
G01X8291576Y-7404862D01*
G01X8294624Y-7401814D01*
G01X8300720Y-7398766D01*
G01X8313166Y-7398766D01*
G01X8319516Y-7401814D01*
G01X8322564Y-7404862D01*
G01X8325612Y-7411212D01*
G01X8325612Y-7417308D01*
G01X8322564Y-7423404D01*
G01X8316214Y-7432802D01*
G01X8285480Y-7463790D01*
G01X8328660Y-7463790D01*
G54D12*
G01X4283206Y-4745990D02*
G01X4285746Y-4748530D01*
G01X4288286Y-4745990D01*
G01X4285746Y-4743450D01*
G01X4283206Y-4745990D01*
G01X4285746Y-4763516D02*
G01X4285746Y-4798568D01*
G01X4322830Y-4758436D02*
G01X4322830Y-4755896D01*
G01X4325370Y-4751070D01*
G01X4327910Y-4748530D01*
G01X4332736Y-4745990D01*
G01X4342896Y-4745990D01*
G01X4347722Y-4748530D01*
G01X4350262Y-4751070D01*
G01X4352802Y-4755896D01*
G01X4352802Y-4760976D01*
G01X4350262Y-4766056D01*
G01X4345182Y-4773422D01*
G01X4320290Y-4798568D01*
G01X4355342Y-4798568D01*
G01X4417318Y-4770882D02*
G01X4412238Y-4766056D01*
G01X4407412Y-4763516D01*
G01X4399792Y-4763516D01*
G01X4394966Y-4766056D01*
G01X4389886Y-4770882D01*
G01X4387346Y-4778502D01*
G01X4387346Y-4783582D01*
G01X4389886Y-4790948D01*
G01X4394966Y-4796028D01*
G01X4399792Y-4798568D01*
G01X4407412Y-4798568D01*
G01X4412238Y-4796028D01*
G01X4417318Y-4790948D01*
G01X4449322Y-4745990D02*
G01X4449322Y-4798568D01*
G01X4449322Y-4798568D02*
G01X4479294Y-4798568D01*
G01X4511298Y-4763516D02*
G01X4526284Y-4798568D01*
G01X4541270Y-4763516D02*
G01X4526284Y-4798568D01*
G01X4573274Y-4745990D02*
G01X4573274Y-4798568D01*
G01X4573274Y-4798568D02*
G01X4603246Y-4798568D01*
G01X4670302Y-4753610D02*
G01X4665222Y-4748530D01*
G01X4657856Y-4745990D01*
G01X4647696Y-4745990D01*
G01X4640330Y-4748530D01*
G01X4635250Y-4753610D01*
G01X4635250Y-4758436D01*
G01X4637790Y-4763516D01*
G01X4640330Y-4766056D01*
G01X4645156Y-4768596D01*
G01X4660142Y-4773422D01*
G01X4665222Y-4775962D01*
G01X4667762Y-4778502D01*
G01X4670302Y-4783582D01*
G01X4670302Y-4790948D01*
G01X4665222Y-4796028D01*
G01X4657856Y-4798568D01*
G01X4647696Y-4798568D01*
G01X4640330Y-4796028D01*
G01X4635250Y-4790948D01*
G01X4702306Y-4745990D02*
G01X4702306Y-4798568D01*
G01X4702306Y-4773422D02*
G01X4709926Y-4766056D01*
G01X4714752Y-4763516D01*
G01X4722372Y-4763516D01*
G01X4727198Y-4766056D01*
G01X4729738Y-4773422D01*
G01X4729738Y-4798568D01*
G01X4761742Y-4745990D02*
G01X4764282Y-4748530D01*
G01X4766822Y-4745990D01*
G01X4764282Y-4743450D01*
G01X4761742Y-4745990D01*
G01X4764282Y-4763516D02*
G01X4764282Y-4798568D01*
G01X4818892Y-4745990D02*
G01X4813812Y-4745990D01*
G01X4808732Y-4748530D01*
G01X4806446Y-4755896D01*
G01X4806446Y-4798568D01*
G01X4798826Y-4763516D02*
G01X4816352Y-4763516D01*
G01X4858516Y-4745990D02*
G01X4858516Y-4788408D01*
G01X4860802Y-4796028D01*
G01X4865882Y-4798568D01*
G01X4870962Y-4798568D01*
G01X4850896Y-4763516D02*
G01X4868422Y-4763516D01*
G01X4902966Y-4778502D02*
G01X4932938Y-4778502D01*
G01X4932938Y-4773422D01*
G01X4930398Y-4768596D01*
G01X4927858Y-4766056D01*
G01X4923032Y-4763516D01*
G01X4915412Y-4763516D01*
G01X4910586Y-4766056D01*
G01X4905506Y-4770882D01*
G01X4902966Y-4778502D01*
G01X4902966Y-4783582D01*
G01X4905506Y-4790948D01*
G01X4910586Y-4796028D01*
G01X4915412Y-4798568D01*
G01X4923032Y-4798568D01*
G01X4927858Y-4796028D01*
G01X4932938Y-4790948D01*
G01X4964942Y-4763516D02*
G01X4964942Y-4798568D01*
G01X4964942Y-4778502D02*
G01X4967482Y-4770882D01*
G01X4972562Y-4766056D01*
G01X4977388Y-4763516D01*
G01X4985008Y-4763516D01*
G01X4894584Y-4382516D02*
G01X4894584Y-4403090D01*
G01X4879598Y-4391914D01*
G01X4879598Y-4397502D01*
G01X4877820Y-4401312D01*
G01X4875788Y-4403090D01*
G01X4870200Y-4405122D01*
G01X4866390Y-4405122D01*
G01X4860802Y-4403090D01*
G01X4856992Y-4399534D01*
G01X4855214Y-4393692D01*
G01X4855214Y-4388104D01*
G01X4856992Y-4382516D01*
G01X4859024Y-4380738D01*
G01X4862834Y-4378706D01*
G01X4864612Y-4436110D02*
G01X4862834Y-4434078D01*
G01X4860802Y-4436110D01*
G01X4862834Y-4437888D01*
G01X4864612Y-4436110D01*
G01X4894584Y-4470654D02*
G01X4894584Y-4491228D01*
G01X4879598Y-4480052D01*
G01X4879598Y-4485640D01*
G01X4877820Y-4489450D01*
G01X4875788Y-4491228D01*
G01X4870200Y-4493260D01*
G01X4866390Y-4493260D01*
G01X4860802Y-4491228D01*
G01X4856992Y-4487418D01*
G01X4855214Y-4481830D01*
G01X4855214Y-4476242D01*
G01X4856992Y-4470654D01*
G01X4859024Y-4468876D01*
G01X4862834Y-4466844D01*
G01X4894584Y-4522216D02*
G01X4855214Y-4537202D01*
G01X4894584Y-4552188D02*
G01X4855214Y-4537202D01*
G01X4894584Y-5049012D02*
G01X4894584Y-5030216D01*
G01X4877820Y-5028438D01*
G01X4879598Y-5030216D01*
G01X4881376Y-5035804D01*
G01X4881376Y-5041392D01*
G01X4879598Y-5047234D01*
G01X4875788Y-5050790D01*
G01X4870200Y-5052822D01*
G01X4866390Y-5052822D01*
G01X4860802Y-5050790D01*
G01X4856992Y-5047234D01*
G01X4855214Y-5041392D01*
G01X4855214Y-5035804D01*
G01X4856992Y-5030216D01*
G01X4859024Y-5028438D01*
G01X4862834Y-5026406D01*
G01X4894584Y-5081778D02*
G01X4855214Y-5096764D01*
G01X4894584Y-5111750D02*
G01X4855214Y-5096764D01*
G01X4656586Y-4406900D02*
G01X4660396Y-4405122D01*
G01X4664206Y-4401312D01*
G01X4665984Y-4397502D01*
G01X4665984Y-4390136D01*
G01X4664206Y-4386326D01*
G01X4660396Y-4382516D01*
G01X4656586Y-4380738D01*
G01X4650998Y-4378706D01*
G01X4641600Y-4378706D01*
G01X4636012Y-4380738D01*
G01X4632202Y-4382516D01*
G01X4628392Y-4386326D01*
G01X4626614Y-4390136D01*
G01X4626614Y-4397502D01*
G01X4628392Y-4401312D01*
G01X4632202Y-4405122D01*
G01X4636012Y-4406900D01*
G01X4641600Y-4406900D01*
G01X4641600Y-4397502D02*
G01X4641600Y-4406900D01*
G01X4665984Y-4435856D02*
G01X4626614Y-4435856D01*
G01X4665984Y-4435856D02*
G01X4626614Y-4462272D01*
G01X4665984Y-4462272D02*
G01X4626614Y-4462272D01*
G01X4665984Y-4491228D02*
G01X4626614Y-4491228D01*
G01X4665984Y-4491228D02*
G01X4665984Y-4504436D01*
G01X4664206Y-4510024D01*
G01X4660396Y-4513834D01*
G01X4656586Y-4515612D01*
G01X4650998Y-4517644D01*
G01X4641600Y-4517644D01*
G01X4636012Y-4515612D01*
G01X4632202Y-4513834D01*
G01X4628392Y-4510024D01*
G01X4626614Y-4504436D01*
G01X4626614Y-4491228D01*
G01X4669286Y-4991100D02*
G01X4673096Y-4989322D01*
G01X4676906Y-4985512D01*
G01X4678684Y-4981702D01*
G01X4678684Y-4974336D01*
G01X4676906Y-4970526D01*
G01X4673096Y-4966716D01*
G01X4669286Y-4964938D01*
G01X4663698Y-4962906D01*
G01X4654300Y-4962906D01*
G01X4648712Y-4964938D01*
G01X4644902Y-4966716D01*
G01X4641092Y-4970526D01*
G01X4639314Y-4974336D01*
G01X4639314Y-4981702D01*
G01X4641092Y-4985512D01*
G01X4644902Y-4989322D01*
G01X4648712Y-4991100D01*
G01X4654300Y-4991100D01*
G01X4654300Y-4981702D02*
G01X4654300Y-4991100D01*
G01X4678684Y-5020056D02*
G01X4639314Y-5020056D01*
G01X4678684Y-5020056D02*
G01X4639314Y-5046472D01*
G01X4678684Y-5046472D02*
G01X4639314Y-5046472D01*
G01X4678684Y-5075428D02*
G01X4639314Y-5075428D01*
G01X4678684Y-5075428D02*
G01X4678684Y-5088636D01*
G01X4676906Y-5094224D01*
G01X4673096Y-5098034D01*
G01X4669286Y-5099812D01*
G01X4663698Y-5101844D01*
G01X4654300Y-5101844D01*
G01X4648712Y-5099812D01*
G01X4644902Y-5098034D01*
G01X4641092Y-5094224D01*
G01X4639314Y-5088636D01*
G01X4639314Y-5075428D01*
G54D11*
G01X5650234Y-4084320D02*
G01X5603752Y-4084320D01*
G01X5594608Y-4087368D01*
G01X5588258Y-4093718D01*
G01X5585210Y-4102862D01*
G01X5585210Y-4109212D01*
G01X5588258Y-4118356D01*
G01X5594608Y-4124452D01*
G01X5603752Y-4127754D01*
G01X5650234Y-4127754D01*
G01X5650234Y-4164076D02*
G01X5650234Y-4198112D01*
G01X5625596Y-4179570D01*
G01X5625596Y-4188714D01*
G01X5622548Y-4195064D01*
G01X5619246Y-4198112D01*
G01X5610102Y-4201160D01*
G01X5603752Y-4201160D01*
G01X5594608Y-4198112D01*
G01X5588258Y-4192016D01*
G01X5585210Y-4182618D01*
G01X5585210Y-4173220D01*
G01X5588258Y-4164076D01*
G01X5591560Y-4161028D01*
G01X5597656Y-4157980D01*
G54D12*
G01X8834006Y-3515364D02*
G01X8834006Y-3633474D01*
G01X8834006Y-3515364D02*
G01X8884806Y-3515364D01*
G01X8901570Y-3520952D01*
G01X8907158Y-3526540D01*
G01X8912746Y-3537716D01*
G01X8912746Y-3548892D01*
G01X8907158Y-3560322D01*
G01X8901570Y-3565910D01*
G01X8884806Y-3571498D01*
G01X8834006Y-3571498D02*
G01X8884806Y-3571498D01*
G01X8901570Y-3577086D01*
G01X8907158Y-3582674D01*
G01X8912746Y-3594104D01*
G01X8912746Y-3610868D01*
G01X8907158Y-3622044D01*
G01X8901570Y-3627632D01*
G01X8884806Y-3633474D01*
G01X8834006Y-3633474D01*
G01X8959736Y-3515364D02*
G01X8959736Y-3633474D01*
G01X8959736Y-3515364D02*
G01X9004694Y-3633474D01*
G01X9049652Y-3515364D02*
G01X9004694Y-3633474D01*
G01X9049652Y-3515364D02*
G01X9049652Y-3633474D01*
G01X9096642Y-3515364D02*
G01X9096642Y-3633474D01*
G01X9096642Y-3515364D02*
G01X9169794Y-3515364D01*
G01X9096642Y-3571498D02*
G01X9141600Y-3571498D01*
G01X9096642Y-3633474D02*
G01X9169794Y-3633474D01*
G01X9410332Y-3532128D02*
G01X9404744Y-3520952D01*
G01X9387726Y-3515364D01*
G01X9376550Y-3515364D01*
G01X9359786Y-3520952D01*
G01X9348356Y-3537716D01*
G01X9342768Y-3565910D01*
G01X9342768Y-3594104D01*
G01X9348356Y-3616456D01*
G01X9359786Y-3627632D01*
G01X9376550Y-3633474D01*
G01X9382138Y-3633474D01*
G01X9399156Y-3627632D01*
G01X9410332Y-3616456D01*
G01X9415920Y-3599692D01*
G01X9415920Y-3594104D01*
G01X9410332Y-3577086D01*
G01X9399156Y-3565910D01*
G01X9382138Y-3560322D01*
G01X9376550Y-3560322D01*
G01X9359786Y-3565910D01*
G01X9348356Y-3577086D01*
G01X9342768Y-3594104D01*
G01X9491104Y-3515364D02*
G01X9474086Y-3520952D01*
G01X9468498Y-3532128D01*
G01X9468498Y-3543304D01*
G01X9474086Y-3554734D01*
G01X9485516Y-3560322D01*
G01X9507868Y-3565910D01*
G01X9524886Y-3571498D01*
G01X9536062Y-3582674D01*
G01X9541650Y-3594104D01*
G01X9541650Y-3610868D01*
G01X9536062Y-3622044D01*
G01X9530474Y-3627632D01*
G01X9513456Y-3633474D01*
G01X9491104Y-3633474D01*
G01X9474086Y-3627632D01*
G01X9468498Y-3622044D01*
G01X9462910Y-3610868D01*
G01X9462910Y-3594104D01*
G01X9468498Y-3582674D01*
G01X9479674Y-3571498D01*
G01X9496692Y-3565910D01*
G01X9519044Y-3560322D01*
G01X9530474Y-3554734D01*
G01X9536062Y-3543304D01*
G01X9536062Y-3532128D01*
G01X9530474Y-3520952D01*
G01X9513456Y-3515364D01*
G01X9491104Y-3515364D01*
G01X9622422Y-3515364D02*
G01X9605404Y-3520952D01*
G01X9594228Y-3537716D01*
G01X9588640Y-3565910D01*
G01X9588640Y-3582674D01*
G01X9594228Y-3610868D01*
G01X9605404Y-3627632D01*
G01X9622422Y-3633474D01*
G01X9633598Y-3633474D01*
G01X9650616Y-3627632D01*
G01X9661792Y-3610868D01*
G01X9667380Y-3582674D01*
G01X9667380Y-3565910D01*
G01X9661792Y-3537716D01*
G01X9650616Y-3520952D01*
G01X9633598Y-3515364D01*
G01X9622422Y-3515364D01*
G54D11*
G01X8415020Y-2801366D02*
G01X8415020Y-2847848D01*
G01X8418068Y-2856992D01*
G01X8424418Y-2863342D01*
G01X8433562Y-2866390D01*
G01X8439912Y-2866390D01*
G01X8449056Y-2863342D01*
G01X8455152Y-2856992D01*
G01X8458454Y-2847848D01*
G01X8458454Y-2801366D01*
G01X8519414Y-2801366D02*
G01X8488680Y-2844546D01*
G01X8534908Y-2844546D01*
G01X8519414Y-2801366D02*
G01X8519414Y-2866390D01*
G54D10*
G01X5269107Y-2026412D02*
G01X5269107Y-1990598D01*
G01X5269107Y-2026412D02*
G01X5255391Y-1990598D01*
G01X5241675Y-2026412D02*
G01X5255391Y-1990598D01*
G01X5241675Y-2026412D02*
G01X5241675Y-1990598D01*
G01X5201289Y-2026412D02*
G01X5201289Y-1990598D01*
G01X5213227Y-2026412D02*
G01X5189351Y-2026412D01*
G01X5160903Y-2026412D02*
G01X5160903Y-1990598D01*
G01X5160903Y-2026412D02*
G01X5148965Y-2026412D01*
G01X5143631Y-2024888D01*
G01X5140329Y-2021332D01*
G01X5138551Y-2018030D01*
G01X5137027Y-2012950D01*
G01X5137027Y-2004314D01*
G01X5138551Y-1999234D01*
G01X5140329Y-1995678D01*
G01X5143631Y-1992376D01*
G01X5148965Y-1990598D01*
G01X5160903Y-1990598D01*
G01X5098165Y-2026412D02*
G01X5101721Y-2024888D01*
G01X5105023Y-2021332D01*
G01X5106801Y-2018030D01*
G01X5108579Y-2012950D01*
G01X5108579Y-2004314D01*
G01X5106801Y-1999234D01*
G01X5105023Y-1995678D01*
G01X5101721Y-1992376D01*
G01X5098165Y-1990598D01*
G01X5091307Y-1990598D01*
G01X5088005Y-1992376D01*
G01X5084703Y-1995678D01*
G01X5082925Y-1999234D01*
G01X5081147Y-2004314D01*
G01X5081147Y-2012950D01*
G01X5082925Y-2018030D01*
G01X5084703Y-2021332D01*
G01X5088005Y-2024888D01*
G01X5091307Y-2026412D01*
G01X5098165Y-2026412D01*
G01X5162935Y-2272030D02*
G01X5164713Y-2275332D01*
G01X5168015Y-2278888D01*
G01X5171571Y-2280412D01*
G01X5178429Y-2280412D01*
G01X5181731Y-2278888D01*
G01X5185287Y-2275332D01*
G01X5186811Y-2272030D01*
G01X5188589Y-2266950D01*
G01X5188589Y-2258314D01*
G01X5186811Y-2253234D01*
G01X5185287Y-2249678D01*
G01X5181731Y-2246376D01*
G01X5178429Y-2244598D01*
G01X5171571Y-2244598D01*
G01X5168015Y-2246376D01*
G01X5164713Y-2249678D01*
G01X5162935Y-2253234D01*
G01X5162935Y-2258314D01*
G01X5171571Y-2258314D02*
G01X5162935Y-2258314D01*
G01X5134487Y-2280412D02*
G01X5134487Y-2244598D01*
G01X5134487Y-2280412D02*
G01X5110611Y-2244598D01*
G01X5110611Y-2280412D02*
G01X5110611Y-2244598D01*
G01X5082163Y-2280412D02*
G01X5082163Y-2244598D01*
G01X5082163Y-2280412D02*
G01X5070225Y-2280412D01*
G01X5064891Y-2278888D01*
G01X5061589Y-2275332D01*
G01X5059811Y-2272030D01*
G01X5058287Y-2266950D01*
G01X5058287Y-2258314D01*
G01X5059811Y-2253234D01*
G01X5061589Y-2249678D01*
G01X5064891Y-2246376D01*
G01X5070225Y-2244598D01*
G01X5082163Y-2244598D01*
G01X5104769Y-2534412D02*
G01X5118485Y-2498598D01*
G01X5104769Y-2534412D02*
G01X5091053Y-2498598D01*
G01X5113405Y-2510536D02*
G01X5096387Y-2510536D01*
G01X5042031Y-2529332D02*
G01X5043809Y-2532888D01*
G01X5048889Y-2534412D01*
G01X5052191Y-2534412D01*
G01X5057525Y-2532888D01*
G01X5060827Y-2527554D01*
G01X5062605Y-2519172D01*
G01X5062605Y-2510536D01*
G01X5060827Y-2503678D01*
G01X5057525Y-2500376D01*
G01X5052191Y-2498598D01*
G01X5050667Y-2498598D01*
G01X5045333Y-2500376D01*
G01X5042031Y-2503678D01*
G01X5040253Y-2508758D01*
G01X5040253Y-2510536D01*
G01X5042031Y-2515616D01*
G01X5045333Y-2519172D01*
G01X5050667Y-2520950D01*
G01X5052191Y-2520950D01*
G01X5057525Y-2519172D01*
G01X5060827Y-2515616D01*
G01X5062605Y-2510536D01*
G01X5188843Y-2788412D02*
G01X5170047Y-2788412D01*
G01X5180207Y-2774950D01*
G01X5175127Y-2774950D01*
G01X5171571Y-2773172D01*
G01X5170047Y-2771394D01*
G01X5168269Y-2766314D01*
G01X5168269Y-2762758D01*
G01X5170047Y-2757678D01*
G01X5173349Y-2754376D01*
G01X5178429Y-2752598D01*
G01X5183509Y-2752598D01*
G01X5188843Y-2754376D01*
G01X5190367Y-2756154D01*
G01X5192145Y-2759456D01*
G01X5139821Y-2788412D02*
G01X5126105Y-2752598D01*
G01X5112389Y-2788412D02*
G01X5126105Y-2752598D01*
G01X5080385Y-2788412D02*
G01X5061589Y-2788412D01*
G01X5072003Y-2774950D01*
G01X5066669Y-2774950D01*
G01X5063367Y-2773172D01*
G01X5061589Y-2771394D01*
G01X5060065Y-2766314D01*
G01X5060065Y-2762758D01*
G01X5061589Y-2757678D01*
G01X5065145Y-2754376D01*
G01X5070225Y-2752598D01*
G01X5075305Y-2752598D01*
G01X5080385Y-2754376D01*
G01X5082163Y-2756154D01*
G01X5083941Y-2759456D01*
G01X4459609Y-2801112D02*
G01X4459609Y-2765298D01*
G01X4459609Y-2801112D02*
G01X4444115Y-2801112D01*
G01X4439035Y-2799588D01*
G01X4437511Y-2797810D01*
G01X4435733Y-2794254D01*
G01X4435733Y-2790952D01*
G01X4437511Y-2787650D01*
G01X4439035Y-2785872D01*
G01X4444115Y-2784094D01*
G01X4459609Y-2784094D02*
G01X4444115Y-2784094D01*
G01X4439035Y-2782316D01*
G01X4437511Y-2780792D01*
G01X4435733Y-2777236D01*
G01X4435733Y-2772156D01*
G01X4437511Y-2768854D01*
G01X4439035Y-2767076D01*
G01X4444115Y-2765298D01*
G01X4459609Y-2765298D01*
G01X4396871Y-2801112D02*
G01X4400427Y-2799588D01*
G01X4403729Y-2796032D01*
G01X4405507Y-2792730D01*
G01X4407285Y-2787650D01*
G01X4407285Y-2779014D01*
G01X4405507Y-2773934D01*
G01X4403729Y-2770378D01*
G01X4400427Y-2767076D01*
G01X4396871Y-2765298D01*
G01X4390013Y-2765298D01*
G01X4386711Y-2767076D01*
G01X4383409Y-2770378D01*
G01X4381631Y-2773934D01*
G01X4379853Y-2779014D01*
G01X4379853Y-2787650D01*
G01X4381631Y-2792730D01*
G01X4383409Y-2796032D01*
G01X4386711Y-2799588D01*
G01X4390013Y-2801112D01*
G01X4396871Y-2801112D01*
G01X4340991Y-2801112D02*
G01X4344547Y-2799588D01*
G01X4347849Y-2796032D01*
G01X4349627Y-2792730D01*
G01X4351405Y-2787650D01*
G01X4351405Y-2779014D01*
G01X4349627Y-2773934D01*
G01X4347849Y-2770378D01*
G01X4344547Y-2767076D01*
G01X4340991Y-2765298D01*
G01X4334133Y-2765298D01*
G01X4330831Y-2767076D01*
G01X4327529Y-2770378D01*
G01X4325751Y-2773934D01*
G01X4323973Y-2779014D01*
G01X4323973Y-2787650D01*
G01X4325751Y-2792730D01*
G01X4327529Y-2796032D01*
G01X4330831Y-2799588D01*
G01X4334133Y-2801112D01*
G01X4340991Y-2801112D01*
G01X4283587Y-2801112D02*
G01X4283587Y-2765298D01*
G01X4295525Y-2801112D02*
G01X4271649Y-2801112D01*
G01X4445893Y-2542896D02*
G01X4459609Y-2507082D01*
G01X4445893Y-2542896D02*
G01X4432177Y-2507082D01*
G01X4454529Y-2519020D02*
G01X4437511Y-2519020D01*
G01X4386457Y-2542896D02*
G01X4403729Y-2519020D01*
G01X4378075Y-2519020D01*
G01X4386457Y-2542896D02*
G01X4386457Y-2507082D01*
G01X4459609Y-2284654D02*
G01X4459609Y-2248840D01*
G01X4459609Y-2284654D02*
G01X4437511Y-2284654D01*
G01X4459609Y-2267636D02*
G01X4445893Y-2267636D01*
G01X4459609Y-2248840D02*
G01X4437511Y-2248840D01*
G01X4409063Y-2284654D02*
G01X4409063Y-2248840D01*
G01X4409063Y-2284654D02*
G01X4385187Y-2248840D01*
G01X4385187Y-2284654D02*
G01X4385187Y-2248840D01*
G01X4445893Y-2026412D02*
G01X4459609Y-1990598D01*
G01X4445893Y-2026412D02*
G01X4432177Y-1990598D01*
G01X4454529Y-2002536D02*
G01X4437511Y-2002536D01*
G01X4383155Y-2026412D02*
G01X4400173Y-2026412D01*
G01X4401951Y-2011172D01*
G01X4400173Y-2012950D01*
G01X4395093Y-2014474D01*
G01X4390013Y-2014474D01*
G01X4384933Y-2012950D01*
G01X4381377Y-2009394D01*
G01X4379853Y-2004314D01*
G01X4379853Y-2000758D01*
G01X4381377Y-1995678D01*
G01X4384933Y-1992376D01*
G01X4390013Y-1990598D01*
G01X4395093Y-1990598D01*
G01X4400173Y-1992376D01*
G01X4401951Y-1994154D01*
G01X4403729Y-1997456D01*
G01X4789834Y-3207512D02*
G01X4789834Y-3171698D01*
G01X4789834Y-3207512D02*
G01X4774340Y-3207512D01*
G01X4769260Y-3205988D01*
G01X4767736Y-3204210D01*
G01X4765958Y-3200654D01*
G01X4765958Y-3197352D01*
G01X4767736Y-3194050D01*
G01X4769260Y-3192272D01*
G01X4774340Y-3190494D01*
G01X4789834Y-3190494D02*
G01X4774340Y-3190494D01*
G01X4769260Y-3188716D01*
G01X4767736Y-3187192D01*
G01X4765958Y-3183636D01*
G01X4765958Y-3178556D01*
G01X4767736Y-3175254D01*
G01X4769260Y-3173476D01*
G01X4774340Y-3171698D01*
G01X4789834Y-3171698D01*
G01X4723794Y-3207512D02*
G01X4737510Y-3171698D01*
G01X4723794Y-3207512D02*
G01X4710078Y-3171698D01*
G01X4732430Y-3183636D02*
G01X4715158Y-3183636D01*
G01X4669692Y-3207512D02*
G01X4669692Y-3171698D01*
G01X4681630Y-3207512D02*
G01X4657754Y-3207512D01*
G01X4993009Y-3428492D02*
G01X4962275Y-3428492D01*
G01X4431415Y-3443732D02*
G01X4431415Y-3412998D01*
G01X4446909Y-3428492D02*
G01X4416175Y-3428492D01*
G01X5110611Y-3831590D02*
G01X5115437Y-3836670D01*
G01X5123057Y-3838956D01*
G01X5132963Y-3838956D01*
G01X5140329Y-3836670D01*
G01X5145409Y-3831590D01*
G01X5145409Y-3826510D01*
G01X5142869Y-3821684D01*
G01X5140329Y-3819144D01*
G01X5135503Y-3816604D01*
G01X5120517Y-3811778D01*
G01X5115437Y-3809238D01*
G01X5113151Y-3806698D01*
G01X5110611Y-3801618D01*
G01X5110611Y-3794252D01*
G01X5115437Y-3789172D01*
G01X5123057Y-3786886D01*
G01X5132963Y-3786886D01*
G01X5140329Y-3789172D01*
G01X5145409Y-3794252D01*
G01X5078353Y-3806698D02*
G01X5048381Y-3806698D01*
G01X5048381Y-3811778D01*
G01X5050921Y-3816604D01*
G01X5053461Y-3819144D01*
G01X5058541Y-3821684D01*
G01X5065907Y-3821684D01*
G01X5070987Y-3819144D01*
G01X5075813Y-3814064D01*
G01X5078353Y-3806698D01*
G01X5078353Y-3801618D01*
G01X5075813Y-3794252D01*
G01X5070987Y-3789172D01*
G01X5065907Y-3786886D01*
G01X5058541Y-3786886D01*
G01X5053461Y-3789172D01*
G01X5048381Y-3794252D01*
G01X5016123Y-3806698D02*
G01X4986151Y-3806698D01*
G01X4986151Y-3811778D01*
G01X4988691Y-3816604D01*
G01X4991231Y-3819144D01*
G01X4996311Y-3821684D01*
G01X5003677Y-3821684D01*
G01X5008757Y-3819144D01*
G01X5013583Y-3814064D01*
G01X5016123Y-3806698D01*
G01X5016123Y-3801618D01*
G01X5013583Y-3794252D01*
G01X5008757Y-3789172D01*
G01X5003677Y-3786886D01*
G01X4996311Y-3786886D01*
G01X4991231Y-3789172D01*
G01X4986151Y-3794252D01*
G01X4953893Y-3806698D02*
G01X4923921Y-3806698D01*
G01X4923921Y-3811778D01*
G01X4926461Y-3816604D01*
G01X4929001Y-3819144D01*
G01X4934081Y-3821684D01*
G01X4941447Y-3821684D01*
G01X4946527Y-3819144D01*
G01X4951353Y-3814064D01*
G01X4953893Y-3806698D01*
G01X4953893Y-3801618D01*
G01X4951353Y-3794252D01*
G01X4946527Y-3789172D01*
G01X4941447Y-3786886D01*
G01X4934081Y-3786886D01*
G01X4929001Y-3789172D01*
G01X4923921Y-3794252D01*
G01X4861691Y-3838956D02*
G01X4861691Y-3786886D01*
G01X4861691Y-3814064D02*
G01X4866771Y-3819144D01*
G01X4871851Y-3821684D01*
G01X4879217Y-3821684D01*
G01X4884297Y-3819144D01*
G01X4889123Y-3814064D01*
G01X4891663Y-3806698D01*
G01X4891663Y-3801618D01*
G01X4889123Y-3794252D01*
G01X4884297Y-3789172D01*
G01X4879217Y-3786886D01*
G01X4871851Y-3786886D01*
G01X4866771Y-3789172D01*
G01X4861691Y-3794252D01*
G01X4738755Y-3831590D02*
G01X4743835Y-3836670D01*
G01X4751201Y-3838956D01*
G01X4761107Y-3838956D01*
G01X4768727Y-3836670D01*
G01X4773553Y-3831590D01*
G01X4773553Y-3826510D01*
G01X4771267Y-3821684D01*
G01X4768727Y-3819144D01*
G01X4763647Y-3816604D01*
G01X4748661Y-3811778D01*
G01X4743835Y-3809238D01*
G01X4741295Y-3806698D01*
G01X4738755Y-3801618D01*
G01X4738755Y-3794252D01*
G01X4743835Y-3789172D01*
G01X4751201Y-3786886D01*
G01X4761107Y-3786886D01*
G01X4768727Y-3789172D01*
G01X4773553Y-3794252D01*
G01X4699131Y-3838956D02*
G01X4699131Y-3796792D01*
G01X4696591Y-3789172D01*
G01X4691511Y-3786886D01*
G01X4686685Y-3786886D01*
G01X4706497Y-3821684D02*
G01X4688971Y-3821684D01*
G01X4654427Y-3821684D02*
G01X4654427Y-3796792D01*
G01X4651887Y-3789172D01*
G01X4647061Y-3786886D01*
G01X4639441Y-3786886D01*
G01X4634615Y-3789172D01*
G01X4626995Y-3796792D01*
G01X4626995Y-3821684D02*
G01X4626995Y-3786886D01*
G01X4564765Y-3838956D02*
G01X4564765Y-3786886D01*
G01X4564765Y-3814064D02*
G01X4569845Y-3819144D01*
G01X4574925Y-3821684D01*
G01X4582291Y-3821684D01*
G01X4587371Y-3819144D01*
G01X4592197Y-3814064D01*
G01X4594737Y-3806698D01*
G01X4594737Y-3801618D01*
G01X4592197Y-3794252D01*
G01X4587371Y-3789172D01*
G01X4582291Y-3786886D01*
G01X4574925Y-3786886D01*
G01X4569845Y-3789172D01*
G01X4564765Y-3794252D01*
G01X4532507Y-3838956D02*
G01X4529967Y-3836670D01*
G01X4527427Y-3838956D01*
G01X4529967Y-3841496D01*
G01X4532507Y-3838956D01*
G01X4529967Y-3821684D02*
G01X4529967Y-3786886D01*
G01X4482723Y-3821684D02*
G01X4487803Y-3819144D01*
G01X4492629Y-3814064D01*
G01X4495169Y-3806698D01*
G01X4495169Y-3801618D01*
G01X4492629Y-3794252D01*
G01X4487803Y-3789172D01*
G01X4482723Y-3786886D01*
G01X4475357Y-3786886D01*
G01X4470277Y-3789172D01*
G01X4465197Y-3794252D01*
G01X4462911Y-3801618D01*
G01X4462911Y-3806698D01*
G01X4465197Y-3814064D01*
G01X4470277Y-3819144D01*
G01X4475357Y-3821684D01*
G01X4482723Y-3821684D01*
G01X6070985Y-3664712D02*
G01X6070985Y-3628898D01*
G01X6032123Y-3664712D02*
G01X6035679Y-3663188D01*
G01X6038981Y-3659632D01*
G01X6040759Y-3656330D01*
G01X6042537Y-3651250D01*
G01X6042537Y-3642614D01*
G01X6040759Y-3637534D01*
G01X6038981Y-3633978D01*
G01X6035679Y-3630676D01*
G01X6032123Y-3628898D01*
G01X6025265Y-3628898D01*
G01X6021963Y-3630676D01*
G01X6018661Y-3633978D01*
G01X6016883Y-3637534D01*
G01X6015105Y-3642614D01*
G01X6015105Y-3651250D01*
G01X6016883Y-3656330D01*
G01X6018661Y-3659632D01*
G01X6021963Y-3663188D01*
G01X6025265Y-3664712D01*
G01X6032123Y-3664712D01*
G01X5986657Y-3657854D02*
G01X5983101Y-3659632D01*
G01X5978021Y-3664712D01*
G01X5978021Y-3628898D01*
G01X5925697Y-3664712D02*
G01X5942715Y-3628898D01*
G01X5949573Y-3664712D02*
G01X5925697Y-3664712D01*
G01X6067683Y-3406470D02*
G01X6067683Y-3370656D01*
G01X6028821Y-3406470D02*
G01X6032377Y-3404946D01*
G01X6035679Y-3401390D01*
G01X6037457Y-3398088D01*
G01X6039235Y-3393008D01*
G01X6039235Y-3384372D01*
G01X6037457Y-3379292D01*
G01X6035679Y-3375736D01*
G01X6032377Y-3372434D01*
G01X6028821Y-3370656D01*
G01X6021963Y-3370656D01*
G01X6018661Y-3372434D01*
G01X6015359Y-3375736D01*
G01X6013581Y-3379292D01*
G01X6011803Y-3384372D01*
G01X6011803Y-3393008D01*
G01X6013581Y-3398088D01*
G01X6015359Y-3401390D01*
G01X6018661Y-3404946D01*
G01X6021963Y-3406470D01*
G01X6028821Y-3406470D01*
G01X5983355Y-3399612D02*
G01X5979799Y-3401390D01*
G01X5974719Y-3406470D01*
G01X5974719Y-3370656D01*
G01X5923919Y-3394532D02*
G01X5925697Y-3389452D01*
G01X5928999Y-3386150D01*
G01X5934333Y-3384372D01*
G01X5935857Y-3384372D01*
G01X5941191Y-3386150D01*
G01X5944493Y-3389452D01*
G01X5946271Y-3394532D01*
G01X5946271Y-3396310D01*
G01X5944493Y-3401390D01*
G01X5941191Y-3404946D01*
G01X5935857Y-3406470D01*
G01X5934333Y-3406470D01*
G01X5928999Y-3404946D01*
G01X5925697Y-3401390D01*
G01X5923919Y-3394532D01*
G01X5923919Y-3386150D01*
G01X5925697Y-3377514D01*
G01X5928999Y-3372434D01*
G01X5934333Y-3370656D01*
G01X5937635Y-3370656D01*
G01X5942715Y-3372434D01*
G01X5944493Y-3375736D01*
G01X6101719Y-3148254D02*
G01X6101719Y-3112440D01*
G01X6062857Y-3148254D02*
G01X6066413Y-3146730D01*
G01X6069715Y-3143174D01*
G01X6071493Y-3139872D01*
G01X6073271Y-3134792D01*
G01X6073271Y-3126156D01*
G01X6071493Y-3121076D01*
G01X6069715Y-3117520D01*
G01X6066413Y-3114218D01*
G01X6062857Y-3112440D01*
G01X6055999Y-3112440D01*
G01X6052697Y-3114218D01*
G01X6049395Y-3117520D01*
G01X6047617Y-3121076D01*
G01X6045839Y-3126156D01*
G01X6045839Y-3134792D01*
G01X6047617Y-3139872D01*
G01X6049395Y-3143174D01*
G01X6052697Y-3146730D01*
G01X6055999Y-3148254D01*
G01X6062857Y-3148254D01*
G01X6015613Y-3139872D02*
G01X6015613Y-3141396D01*
G01X6013835Y-3144952D01*
G01X6012311Y-3146730D01*
G01X6008755Y-3148254D01*
G01X6001897Y-3148254D01*
G01X5998595Y-3146730D01*
G01X5996817Y-3144952D01*
G01X5995039Y-3141396D01*
G01X5995039Y-3138094D01*
G01X5996817Y-3134792D01*
G01X6000119Y-3129458D01*
G01X6017391Y-3112440D01*
G01X5993515Y-3112440D01*
G01X5954653Y-3148254D02*
G01X5959987Y-3146730D01*
G01X5963289Y-3141396D01*
G01X5965067Y-3133014D01*
G01X5965067Y-3127934D01*
G01X5963289Y-3119298D01*
G01X5959987Y-3114218D01*
G01X5954653Y-3112440D01*
G01X5951351Y-3112440D01*
G01X5946271Y-3114218D01*
G01X5942715Y-3119298D01*
G01X5941191Y-3127934D01*
G01X5941191Y-3133014D01*
G01X5942715Y-3141396D01*
G01X5946271Y-3146730D01*
G01X5951351Y-3148254D01*
G01X5954653Y-3148254D01*
G01X6070985Y-2890012D02*
G01X6070985Y-2854198D01*
G01X6032123Y-2890012D02*
G01X6035679Y-2888488D01*
G01X6038981Y-2884932D01*
G01X6040759Y-2881630D01*
G01X6042537Y-2876550D01*
G01X6042537Y-2867914D01*
G01X6040759Y-2862834D01*
G01X6038981Y-2859278D01*
G01X6035679Y-2855976D01*
G01X6032123Y-2854198D01*
G01X6025265Y-2854198D01*
G01X6021963Y-2855976D01*
G01X6018661Y-2859278D01*
G01X6016883Y-2862834D01*
G01X6015105Y-2867914D01*
G01X6015105Y-2876550D01*
G01X6016883Y-2881630D01*
G01X6018661Y-2884932D01*
G01X6021963Y-2888488D01*
G01X6025265Y-2890012D01*
G01X6032123Y-2890012D01*
G01X5986657Y-2883154D02*
G01X5983101Y-2884932D01*
G01X5978021Y-2890012D01*
G01X5978021Y-2854198D01*
G01X5940937Y-2890012D02*
G01X5946017Y-2888488D01*
G01X5947795Y-2884932D01*
G01X5947795Y-2881630D01*
G01X5946017Y-2878074D01*
G01X5942715Y-2876550D01*
G01X5935857Y-2874772D01*
G01X5930777Y-2872994D01*
G01X5927221Y-2869692D01*
G01X5925697Y-2866136D01*
G01X5925697Y-2861056D01*
G01X5927221Y-2857754D01*
G01X5928999Y-2855976D01*
G01X5934079Y-2854198D01*
G01X5940937Y-2854198D01*
G01X5946017Y-2855976D01*
G01X5947795Y-2857754D01*
G01X5949573Y-2861056D01*
G01X5949573Y-2866136D01*
G01X5947795Y-2869692D01*
G01X5944493Y-2872994D01*
G01X5939159Y-2874772D01*
G01X5932301Y-2876550D01*
G01X5928999Y-2878074D01*
G01X5927221Y-2881630D01*
G01X5927221Y-2884932D01*
G01X5928999Y-2888488D01*
G01X5934079Y-2890012D01*
G01X5940937Y-2890012D01*
G01X6076065Y-2631770D02*
G01X6057269Y-2631770D01*
G01X6067429Y-2618308D01*
G01X6062349Y-2618308D01*
G01X6058793Y-2616530D01*
G01X6057269Y-2614752D01*
G01X6055491Y-2609672D01*
G01X6055491Y-2606116D01*
G01X6057269Y-2601036D01*
G01X6060571Y-2597734D01*
G01X6065651Y-2595956D01*
G01X6070731Y-2595956D01*
G01X6076065Y-2597734D01*
G01X6077589Y-2599512D01*
G01X6079367Y-2602814D01*
G01X6027043Y-2631770D02*
G01X6013327Y-2595956D01*
G01X5999611Y-2631770D02*
G01X6013327Y-2595956D01*
G01X5967607Y-2631770D02*
G01X5948811Y-2631770D01*
G01X5959225Y-2618308D01*
G01X5953891Y-2618308D01*
G01X5950589Y-2616530D01*
G01X5948811Y-2614752D01*
G01X5947287Y-2609672D01*
G01X5947287Y-2606116D01*
G01X5948811Y-2601036D01*
G01X5952367Y-2597734D01*
G01X5957447Y-2595956D01*
G01X5962527Y-2595956D01*
G01X5967607Y-2597734D01*
G01X5969385Y-2599512D01*
G01X5971163Y-2602814D01*
G01X6050157Y-2365172D02*
G01X6051935Y-2368474D01*
G01X6055237Y-2372030D01*
G01X6058793Y-2373554D01*
G01X6065651Y-2373554D01*
G01X6068953Y-2372030D01*
G01X6072509Y-2368474D01*
G01X6074033Y-2365172D01*
G01X6075811Y-2360092D01*
G01X6075811Y-2351456D01*
G01X6074033Y-2346376D01*
G01X6072509Y-2342820D01*
G01X6068953Y-2339518D01*
G01X6065651Y-2337740D01*
G01X6058793Y-2337740D01*
G01X6055237Y-2339518D01*
G01X6051935Y-2342820D01*
G01X6050157Y-2346376D01*
G01X6050157Y-2351456D01*
G01X6058793Y-2351456D02*
G01X6050157Y-2351456D01*
G01X6021709Y-2373554D02*
G01X6021709Y-2337740D01*
G01X6021709Y-2373554D02*
G01X5997833Y-2337740D01*
G01X5997833Y-2373554D02*
G01X5997833Y-2337740D01*
G01X5969385Y-2373554D02*
G01X5969385Y-2337740D01*
G01X5969385Y-2373554D02*
G01X5957447Y-2373554D01*
G01X5952113Y-2372030D01*
G01X5948811Y-2368474D01*
G01X5947033Y-2365172D01*
G01X5945509Y-2360092D01*
G01X5945509Y-2351456D01*
G01X5947033Y-2346376D01*
G01X5948811Y-2342820D01*
G01X5952113Y-2339518D01*
G01X5957447Y-2337740D01*
G01X5969385Y-2337740D01*
G01X5988435Y-2115312D02*
G01X6005707Y-2115312D01*
G01X6007231Y-2100072D01*
G01X6005707Y-2101850D01*
G01X6000373Y-2103374D01*
G01X5995293Y-2103374D01*
G01X5990213Y-2101850D01*
G01X5986911Y-2098294D01*
G01X5985133Y-2093214D01*
G01X5985133Y-2089658D01*
G01X5986911Y-2084578D01*
G01X5990213Y-2081276D01*
G01X5995293Y-2079498D01*
G01X6000373Y-2079498D01*
G01X6005707Y-2081276D01*
G01X6007231Y-2083054D01*
G01X6009009Y-2086356D01*
G01X5956685Y-2115312D02*
G01X5942969Y-2079498D01*
G01X5929253Y-2115312D02*
G01X5942969Y-2079498D01*
G01X3556893Y-2128012D02*
G01X3570609Y-2092198D01*
G01X3556893Y-2128012D02*
G01X3543177Y-2092198D01*
G01X3565529Y-2104136D02*
G01X3548511Y-2104136D01*
G01X3504315Y-2128012D02*
G01X3509649Y-2126488D01*
G01X3512951Y-2121154D01*
G01X3514729Y-2112772D01*
G01X3514729Y-2107692D01*
G01X3512951Y-2099056D01*
G01X3509649Y-2093976D01*
G01X3504315Y-2092198D01*
G01X3501013Y-2092198D01*
G01X3495933Y-2093976D01*
G01X3492377Y-2099056D01*
G01X3490853Y-2107692D01*
G01X3490853Y-2112772D01*
G01X3492377Y-2121154D01*
G01X3495933Y-2126488D01*
G01X3501013Y-2128012D01*
G01X3504315Y-2128012D01*
G01X3556893Y-2382012D02*
G01X3570609Y-2346198D01*
G01X3556893Y-2382012D02*
G01X3543177Y-2346198D01*
G01X3565529Y-2358136D02*
G01X3548511Y-2358136D01*
G01X3514729Y-2375154D02*
G01X3511173Y-2376932D01*
G01X3506093Y-2382012D01*
G01X3506093Y-2346198D01*
G01X3556893Y-2636012D02*
G01X3570609Y-2600198D01*
G01X3556893Y-2636012D02*
G01X3543177Y-2600198D01*
G01X3565529Y-2612136D02*
G01X3548511Y-2612136D01*
G01X3512951Y-2627630D02*
G01X3512951Y-2629154D01*
G01X3511173Y-2632710D01*
G01X3509649Y-2634488D01*
G01X3506093Y-2636012D01*
G01X3499235Y-2636012D01*
G01X3495933Y-2634488D01*
G01X3494155Y-2632710D01*
G01X3492377Y-2629154D01*
G01X3492377Y-2625852D01*
G01X3494155Y-2622550D01*
G01X3497457Y-2617216D01*
G01X3514729Y-2600198D01*
G01X3490853Y-2600198D01*
G01X3570609Y-2890012D02*
G01X3570609Y-2854198D01*
G01X3531747Y-2890012D02*
G01X3535303Y-2888488D01*
G01X3538605Y-2884932D01*
G01X3540383Y-2881630D01*
G01X3542161Y-2876550D01*
G01X3542161Y-2867914D01*
G01X3540383Y-2862834D01*
G01X3538605Y-2859278D01*
G01X3535303Y-2855976D01*
G01X3531747Y-2854198D01*
G01X3524889Y-2854198D01*
G01X3521587Y-2855976D01*
G01X3518285Y-2859278D01*
G01X3516507Y-2862834D01*
G01X3514729Y-2867914D01*
G01X3514729Y-2876550D01*
G01X3516507Y-2881630D01*
G01X3518285Y-2884932D01*
G01X3521587Y-2888488D01*
G01X3524889Y-2890012D01*
G01X3531747Y-2890012D01*
G01X3484503Y-2881630D02*
G01X3484503Y-2883154D01*
G01X3482725Y-2886710D01*
G01X3481201Y-2888488D01*
G01X3477645Y-2890012D01*
G01X3470787Y-2890012D01*
G01X3467485Y-2888488D01*
G01X3465707Y-2886710D01*
G01X3463929Y-2883154D01*
G01X3463929Y-2879852D01*
G01X3465707Y-2876550D01*
G01X3469009Y-2871216D01*
G01X3486281Y-2854198D01*
G01X3462405Y-2854198D01*
G01X3433957Y-2883154D02*
G01X3430401Y-2884932D01*
G01X3425321Y-2890012D01*
G01X3425321Y-2854198D01*
G01X3570609Y-3144012D02*
G01X3570609Y-3108198D01*
G01X3531747Y-3144012D02*
G01X3535303Y-3142488D01*
G01X3538605Y-3138932D01*
G01X3540383Y-3135630D01*
G01X3542161Y-3130550D01*
G01X3542161Y-3121914D01*
G01X3540383Y-3116834D01*
G01X3538605Y-3113278D01*
G01X3535303Y-3109976D01*
G01X3531747Y-3108198D01*
G01X3524889Y-3108198D01*
G01X3521587Y-3109976D01*
G01X3518285Y-3113278D01*
G01X3516507Y-3116834D01*
G01X3514729Y-3121914D01*
G01X3514729Y-3130550D01*
G01X3516507Y-3135630D01*
G01X3518285Y-3138932D01*
G01X3521587Y-3142488D01*
G01X3524889Y-3144012D01*
G01X3531747Y-3144012D01*
G01X3484503Y-3135630D02*
G01X3484503Y-3137154D01*
G01X3482725Y-3140710D01*
G01X3481201Y-3142488D01*
G01X3477645Y-3144012D01*
G01X3470787Y-3144012D01*
G01X3467485Y-3142488D01*
G01X3465707Y-3140710D01*
G01X3463929Y-3137154D01*
G01X3463929Y-3133852D01*
G01X3465707Y-3130550D01*
G01X3469009Y-3125216D01*
G01X3486281Y-3108198D01*
G01X3462405Y-3108198D01*
G01X3432179Y-3135630D02*
G01X3432179Y-3137154D01*
G01X3430401Y-3140710D01*
G01X3428877Y-3142488D01*
G01X3425321Y-3144012D01*
G01X3418463Y-3144012D01*
G01X3415161Y-3142488D01*
G01X3413383Y-3140710D01*
G01X3411605Y-3137154D01*
G01X3411605Y-3133852D01*
G01X3413383Y-3130550D01*
G01X3416685Y-3125216D01*
G01X3433957Y-3108198D01*
G01X3410081Y-3108198D01*
G01X3570609Y-3398012D02*
G01X3570609Y-3362198D01*
G01X3531747Y-3398012D02*
G01X3535303Y-3396488D01*
G01X3538605Y-3392932D01*
G01X3540383Y-3389630D01*
G01X3542161Y-3384550D01*
G01X3542161Y-3375914D01*
G01X3540383Y-3370834D01*
G01X3538605Y-3367278D01*
G01X3535303Y-3363976D01*
G01X3531747Y-3362198D01*
G01X3524889Y-3362198D01*
G01X3521587Y-3363976D01*
G01X3518285Y-3367278D01*
G01X3516507Y-3370834D01*
G01X3514729Y-3375914D01*
G01X3514729Y-3384550D01*
G01X3516507Y-3389630D01*
G01X3518285Y-3392932D01*
G01X3521587Y-3396488D01*
G01X3524889Y-3398012D01*
G01X3531747Y-3398012D01*
G01X3484503Y-3389630D02*
G01X3484503Y-3391154D01*
G01X3482725Y-3394710D01*
G01X3481201Y-3396488D01*
G01X3477645Y-3398012D01*
G01X3470787Y-3398012D01*
G01X3467485Y-3396488D01*
G01X3465707Y-3394710D01*
G01X3463929Y-3391154D01*
G01X3463929Y-3387852D01*
G01X3465707Y-3384550D01*
G01X3469009Y-3379216D01*
G01X3486281Y-3362198D01*
G01X3462405Y-3362198D01*
G01X3430401Y-3398012D02*
G01X3411605Y-3398012D01*
G01X3422019Y-3384550D01*
G01X3416685Y-3384550D01*
G01X3413383Y-3382772D01*
G01X3411605Y-3380994D01*
G01X3410081Y-3375914D01*
G01X3410081Y-3372358D01*
G01X3411605Y-3367278D01*
G01X3415161Y-3363976D01*
G01X3420241Y-3362198D01*
G01X3425321Y-3362198D01*
G01X3430401Y-3363976D01*
G01X3432179Y-3365754D01*
G01X3433957Y-3369056D01*
G01X3570609Y-3652012D02*
G01X3570609Y-3616198D01*
G01X3531747Y-3652012D02*
G01X3535303Y-3650488D01*
G01X3538605Y-3646932D01*
G01X3540383Y-3643630D01*
G01X3542161Y-3638550D01*
G01X3542161Y-3629914D01*
G01X3540383Y-3624834D01*
G01X3538605Y-3621278D01*
G01X3535303Y-3617976D01*
G01X3531747Y-3616198D01*
G01X3524889Y-3616198D01*
G01X3521587Y-3617976D01*
G01X3518285Y-3621278D01*
G01X3516507Y-3624834D01*
G01X3514729Y-3629914D01*
G01X3514729Y-3638550D01*
G01X3516507Y-3643630D01*
G01X3518285Y-3646932D01*
G01X3521587Y-3650488D01*
G01X3524889Y-3652012D01*
G01X3531747Y-3652012D01*
G01X3486281Y-3645154D02*
G01X3482725Y-3646932D01*
G01X3477645Y-3652012D01*
G01X3477645Y-3616198D01*
G01X3428623Y-3646932D02*
G01X3430401Y-3650488D01*
G01X3435481Y-3652012D01*
G01X3438783Y-3652012D01*
G01X3444117Y-3650488D01*
G01X3447419Y-3645154D01*
G01X3449197Y-3636772D01*
G01X3449197Y-3628136D01*
G01X3447419Y-3621278D01*
G01X3444117Y-3617976D01*
G01X3438783Y-3616198D01*
G01X3437259Y-3616198D01*
G01X3431925Y-3617976D01*
G01X3428623Y-3621278D01*
G01X3426845Y-3626358D01*
G01X3426845Y-3628136D01*
G01X3428623Y-3633216D01*
G01X3431925Y-3636772D01*
G01X3437259Y-3638550D01*
G01X3438783Y-3638550D01*
G01X3444117Y-3636772D01*
G01X3447419Y-3633216D01*
G01X3449197Y-3628136D01*
G01X5049524Y-3673856D02*
G01X5049524Y-3621786D01*
G01X5049524Y-3673856D02*
G01X5017266Y-3673856D01*
G01X5049524Y-3648964D02*
G01X5029712Y-3648964D01*
G01X5049524Y-3621786D02*
G01X5017266Y-3621786D01*
G01X4950210Y-3666490D02*
G01X4955036Y-3671570D01*
G01X4962656Y-3673856D01*
G01X4972562Y-3673856D01*
G01X4979928Y-3671570D01*
G01X4985008Y-3666490D01*
G01X4985008Y-3661410D01*
G01X4982468Y-3656584D01*
G01X4979928Y-3654044D01*
G01X4975102Y-3651504D01*
G01X4960116Y-3646678D01*
G01X4955036Y-3644138D01*
G01X4952750Y-3641598D01*
G01X4950210Y-3636518D01*
G01X4950210Y-3629152D01*
G01X4955036Y-3624072D01*
G01X4962656Y-3621786D01*
G01X4972562Y-3621786D01*
G01X4979928Y-3624072D01*
G01X4985008Y-3629152D01*
G01X4917952Y-3673856D02*
G01X4917952Y-3621786D01*
G01X4917952Y-3673856D02*
G01X4895600Y-3673856D01*
G01X4887980Y-3671570D01*
G01X4885694Y-3669030D01*
G01X4883154Y-3663950D01*
G01X4883154Y-3656584D01*
G01X4885694Y-3651504D01*
G01X4887980Y-3648964D01*
G01X4895600Y-3646678D01*
G01X4917952Y-3646678D01*
G01X4845816Y-3673856D02*
G01X4818638Y-3673856D01*
G01X4833370Y-3654044D01*
G01X4826004Y-3654044D01*
G01X4820924Y-3651504D01*
G01X4818638Y-3648964D01*
G01X4816098Y-3641598D01*
G01X4816098Y-3636518D01*
G01X4818638Y-3629152D01*
G01X4823464Y-3624072D01*
G01X4831084Y-3621786D01*
G01X4838450Y-3621786D01*
G01X4845816Y-3624072D01*
G01X4848356Y-3626612D01*
G01X4850896Y-3631692D01*
G01X4781300Y-3661410D02*
G01X4781300Y-3663950D01*
G01X4778760Y-3669030D01*
G01X4776474Y-3671570D01*
G01X4771394Y-3673856D01*
G01X4761488Y-3673856D01*
G01X4756408Y-3671570D01*
G01X4753868Y-3669030D01*
G01X4751582Y-3663950D01*
G01X4751582Y-3659124D01*
G01X4753868Y-3654044D01*
G01X4758948Y-3646678D01*
G01X4783840Y-3621786D01*
G01X4749042Y-3621786D01*
G01X4716784Y-3644138D02*
G01X4671826Y-3644138D01*
G01X4602230Y-3661410D02*
G01X4604770Y-3666490D01*
G01X4609596Y-3671570D01*
G01X4614676Y-3673856D01*
G01X4624582Y-3673856D01*
G01X4629662Y-3671570D01*
G01X4634488Y-3666490D01*
G01X4637028Y-3661410D01*
G01X4639568Y-3654044D01*
G01X4639568Y-3641598D01*
G01X4637028Y-3634232D01*
G01X4634488Y-3629152D01*
G01X4629662Y-3624072D01*
G01X4624582Y-3621786D01*
G01X4614676Y-3621786D01*
G01X4609596Y-3624072D01*
G01X4604770Y-3629152D01*
G01X4602230Y-3634232D01*
G01X4540000Y-3666490D02*
G01X4542540Y-3671570D01*
G01X4550160Y-3673856D01*
G01X4554986Y-3673856D01*
G01X4562606Y-3671570D01*
G01X4567432Y-3663950D01*
G01X4569972Y-3651504D01*
G01X4569972Y-3639058D01*
G01X4567432Y-3629152D01*
G01X4562606Y-3624072D01*
G01X4554986Y-3621786D01*
G01X4552446Y-3621786D01*
G01X4545080Y-3624072D01*
G01X4540000Y-3629152D01*
G01X4537714Y-3636518D01*
G01X4537714Y-3639058D01*
G01X4540000Y-3646678D01*
G01X4545080Y-3651504D01*
G01X4552446Y-3654044D01*
G01X4554986Y-3654044D01*
G01X4562606Y-3651504D01*
G01X4567432Y-3646678D01*
G01X4569972Y-3639058D01*
G54D11*
G01X5620766Y-5567680D02*
G01X5685790Y-5567680D01*
G01X5685790Y-5567680D02*
G01X5685790Y-5530596D01*
G01X5620766Y-5500370D02*
G01X5685790Y-5500370D01*
G01X5620766Y-5500370D02*
G01X5620766Y-5460238D01*
G01X5651754Y-5500370D02*
G01X5651754Y-5475732D01*
G01X5685790Y-5500370D02*
G01X5685790Y-5460238D01*
G01X5620766Y-5430012D02*
G01X5685790Y-5430012D01*
G01X5620766Y-5430012D02*
G01X5620766Y-5408422D01*
G01X5623814Y-5399278D01*
G01X5629910Y-5392928D01*
G01X5636260Y-5389880D01*
G01X5645404Y-5386832D01*
G01X5660898Y-5386832D01*
G01X5670296Y-5389880D01*
G01X5676392Y-5392928D01*
G01X5682742Y-5399278D01*
G01X5685790Y-5408422D01*
G01X5685790Y-5430012D01*
G01X5633212Y-5356606D02*
G01X5629910Y-5350510D01*
G01X5620766Y-5341366D01*
G01X5685790Y-5341366D01*
G01X3866134Y-4122420D02*
G01X3801110Y-4122420D01*
G01X3801110Y-4122420D02*
G01X3801110Y-4159504D01*
G01X3866134Y-4189730D02*
G01X3801110Y-4189730D01*
G01X3866134Y-4189730D02*
G01X3866134Y-4229862D01*
G01X3835146Y-4189730D02*
G01X3835146Y-4214368D01*
G01X3801110Y-4189730D02*
G01X3801110Y-4229862D01*
G01X3866134Y-4260088D02*
G01X3801110Y-4260088D01*
G01X3866134Y-4260088D02*
G01X3866134Y-4281678D01*
G01X3863086Y-4290822D01*
G01X3856990Y-4297172D01*
G01X3850640Y-4300220D01*
G01X3841496Y-4303268D01*
G01X3826002Y-4303268D01*
G01X3816604Y-4300220D01*
G01X3810508Y-4297172D01*
G01X3804158Y-4290822D01*
G01X3801110Y-4281678D01*
G01X3801110Y-4260088D01*
G01X3850640Y-4336542D02*
G01X3853688Y-4336542D01*
G01X3860038Y-4339590D01*
G01X3863086Y-4342638D01*
G01X3866134Y-4348734D01*
G01X3866134Y-4361180D01*
G01X3863086Y-4367530D01*
G01X3860038Y-4370578D01*
G01X3853688Y-4373626D01*
G01X3847592Y-4373626D01*
G01X3841496Y-4370578D01*
G01X3832098Y-4364228D01*
G01X3801110Y-4333494D01*
G01X3801110Y-4376674D01*
G04 Text End*

G04 PolygonModel Start*
G54D13*
G01X4167507Y-9153737D02*
G01X5309305Y-9153735D01*
G01X4202495Y-7503304D02*
G01X5344294Y-7503301D01*
G01X5580752Y-7775399D02*
G01X5580752Y-8917197D01*
G01X3930403Y-7740405D02*
G01X3930403Y-8882204D01*
G01X5580752Y-7775399D02*
G03X5344294Y-7503865I-253355J18096D01*
G01X4202495Y-7503946D02*
G03X3930961Y-7740405I-18096J-253355D01*
G01X3931048Y-8882204D02*
G03X4167507Y-9153737I253355J-18096D01*
G01X5309303Y-9153654D02*
G03X5580836Y-8917195I18096J253355D01*
G01X5517905Y-4368800D02*
G03X5530600Y-4686300I6567J-158741D01*
G01X10094100Y-4343150D02*
G01X10094100Y-2946150D01*
G01X9535300Y-2946150D01*
G01X9535300Y-2946150D02*
G01X9535300Y-2438150D01*
G01X8976500Y-2438150D01*
G01X8976500Y-2946150D01*
G01X8417700Y-2946150D01*
G01X8417700Y-4343150D01*
G01X8417700Y-4343150D02*
G01X10094100Y-4343150D01*
G01X3850852Y-3733541D02*
G01X3850852Y-2019041D01*
G54D14*
G01X5189859Y-1677744D02*
G01X5189859Y-2412741D01*
G01X4289858Y-2412741D01*
G01X4289858Y-1677744D01*
G01X5189859Y-1677744D01*
G54D13*
G01X4041352Y-3924041D02*
G01X5438352Y-3924041D01*
G01X5628852Y-3733541D02*
G01X5628852Y-2019041D01*
G01X5438352Y-1828541D02*
G01X4041352Y-1828541D01*
G01X4041350Y-1828541D02*
G03X3850850Y-2019041I0J-190500D01*
G01X5628850Y-2019041D02*
G03X5438350Y-1828541I-190500J0D01*
G01X5438350Y-3924041D02*
G03X5628850Y-3733541I0J190500D01*
G01X3850850Y-3733541D02*
G03X4041350Y-3924041I190500J0D01*

G04 Rect Start*
G01X2755900Y-5828800D02*
G01X2755900Y-1828800D01*
G01X6755900Y-1828800D01*
G01X6755900Y-5828800D01*
G01X2755900Y-5828800D01*
G01X7255900Y-5828800D02*
G01X7255900Y-1828800D01*
G01X11255900Y-1828800D01*
G01X11255900Y-5828800D01*
G01X7255900Y-5828800D01*
G01X7255900Y-10328800D02*
G01X7255900Y-6328800D01*
G01X11255900Y-6328800D01*
G01X11255900Y-10328800D01*
G01X7255900Y-10328800D01*
G01X2755900Y-10328800D02*
G01X2755900Y-6328800D01*
G01X6755900Y-6328800D01*
G01X6755900Y-10328800D01*
G01X2755900Y-10328800D01*
G01X8205902Y-7528801D02*
G01X10305898Y-7528801D01*
G01X10305898Y-9128798D01*
G01X8205902Y-9128798D01*
G01X8205902Y-7528801D01*
G01X3981200Y-4089400D02*
G01X5530600Y-4089400D01*
G01X5530600Y-5435600D01*
G01X3981200Y-5435600D01*
G01X3981200Y-4089400D01*
G01X6492799Y-5090701D02*
G01X5992800Y-5090701D01*
G01X5992800Y-4590702D01*
G01X6492799Y-4590702D01*
G01X6492799Y-5090701D01*
G01X6717800Y-5565699D02*
G01X5742801Y-5565699D01*
G01X5742801Y-4115702D01*
G01X6717800Y-4115702D01*
G01X6717800Y-5565699D01*
G01X3021401Y-4590702D02*
G01X3521400Y-4590702D01*
G01X3521400Y-5090701D01*
G01X3021401Y-5090701D01*
G01X3021401Y-4590702D01*
G01X2796401Y-4115704D02*
G01X3771400Y-4115704D01*
G01X3771400Y-5565702D01*
G01X2796401Y-5565702D01*
G01X2796401Y-4115704D01*
G04 Rect End*

G04 Circle Start*
G01X6017799Y-4840699D02*
G03X6467800Y-4840699I225001J0D01*
G03X6017799Y-4840699I-225001J0D01*
G01X3046400Y-4840704D02*
G03X3496402Y-4840704I225001J0D01*
G03X3046400Y-4840704I-225001J0D01*
G04 Circle End*

M02*

