G04 Layer: BottomLayer*
G04 EasyEDA Pro v3.2.148, 2026-07-21 18:28:31*
G04 Gerber Generator version 0.3*
G04 Scale: 100 percent, Rotated: No, Reflected: No*
G04 Dimensions in millimeters*
G04 Leading zeros omitted, absolute positions, 4 integers and 5 decimals*
G04 Generated by one-click*
G04 Object Configs: Pad,Via,Track,Text,Image,Dimension,BoardOutline,BoardCutout,CopperFilled,SolidRegion,FPCStiffener,Line,PlaneZone,ComponentProperty,ComponentSilkscreen,TearDrop*
G04 Layer Configs: 1,2,3,4,5,6,7,8,9,10,11,13,14,56*
G04 Copper Areas: 0*
%FSLAX45Y45*%
%MOMM*%
%ADD10C,6.0*%
%ADD11C,1.75*%
%ADD12C,1.75301*%
%ADD13R,1.75X1.75*%
%ADD14C,2.0*%
%ADD15C,0.61*%
%ADD16C,0.2599*%
%ADD17C,0.254*%
G75*


G04 Pad Start*
G54D10*
G01X7005900Y-6078800D03*
G54D11*
G01X4755900Y-8900301D03*
G54D12*
G01X4501900Y-8900301D03*
G54D13*
G01X4247900Y-8900301D03*
G54D11*
G01X5009900Y-8900301D03*
G54D12*
G01X5263900Y-8900301D03*
G54D11*
G01X8874887Y-9001900D03*
G01X9128887Y-9001900D03*
G01X9382887Y-9001900D03*
G01X9636887Y-9001900D03*
G01X9890887Y-9001900D03*
G54D13*
G01X10144887Y-9001900D03*
G54D11*
G01X8620887Y-9001900D03*
G01X8366887Y-9001900D03*
G54D14*
G01X5390900Y-4241800D03*
G01X5136900Y-4241800D03*
G01X4882900Y-4241800D03*
G01X4628900Y-4241800D03*
G01X4374900Y-4241800D03*
G01X4120900Y-4241800D03*
G01X4120900Y-5291800D03*
G01X4374900Y-5291800D03*
G01X4628900Y-5291800D03*
G01X4882900Y-5291800D03*
G01X5136900Y-5291800D03*
G01X5390900Y-5291800D03*
G54D11*
G01X8620900Y-4152650D03*
G01X8874900Y-4152650D03*
G01X9128900Y-4152650D03*
G01X9382900Y-4152650D03*
G01X9636900Y-4152650D03*
G01X9890900Y-4152650D03*
G04 Pad End*

G04 Via Start*
G54D15*
G01X9385300Y-3881379D03*
G01X4495800Y-2959100D03*
G01X6235700Y-2108200D03*
G04 Via End*

G04 Track Start*
G54D17*
G01X9385300Y-3881379D02*
G01X9385300Y-4150250D01*
G01X9382900Y-4152650D01*
G01X4495800Y-2959100D02*
G01X5390900Y-3854200D01*
G01X5390900Y-4241800D01*
G01X6235700Y-2108200D02*
G01X6235700Y-3939000D01*
G01X4882900Y-5291800D01*
G01X9382900Y-4152650D02*
G01X9382900Y-9001887D01*
G04 Track End*

M02*

