G04 Layer: TopLayer*
G04 EasyEDA Pro v3.2.148, 2026-07-21 18:28:31*
G04 Gerber Generator version 0.3*
G04 Scale: 100 percent, Rotated: No, Reflected: No*
G04 Dimensions in millimeters*
G04 Leading zeros omitted, absolute positions, 4 integers and 5 decimals*
G04 Generated by one-click*
G04 Object Configs: Pad,Via,Track,Text,Image,Dimension,BoardOutline,BoardCutout,CopperFilled,SolidRegion,FPCStiffener,Line,PlaneZone,ComponentProperty,ComponentSilkscreen,TearDrop*
G04 Layer Configs: 1,2,3,4,5,6,7,8,9,10,11,13,14,56*
G04 Copper Areas: 0*
%FSLAX45Y45*%
%MOMM*%
%AMPolygonMacro1*4,1,4,-0.61341,-1.24993,-0.61341,1.24993,0.61341,1.24993,0.61341,-1.24993,-0.61341,-1.24993,0*%
%AMPolygonMacro2*4,1,4,-0.54991,-1.24993,-0.54991,1.24993,0.54991,1.24993,0.54991,-1.24993,-0.54991,-1.24993,0*%
%ADD10C,6.0*%
%ADD11C,1.75*%
%ADD12C,1.75301*%
%ADD13R,1.75X1.75*%
%ADD14C,2.0*%
%ADD15R,4.25X1.65001*%
%ADD16C,0.7253*%
%ADD17PolygonMacro1*%
%ADD18PolygonMacro2*%
%ADD19R,1.2X2.0*%
%ADD20C,0.61*%
%ADD21C,0.254*%
G75*


G04 Pad Start*
G54D10*
G01X7005900Y-6078800D03*
G54D11*
G01X4755900Y-8900301D03*
G54D12*
G01X4501900Y-8900301D03*
G54D13*
G01X4247900Y-8900301D03*
G54D11*
G01X5009900Y-8900301D03*
G54D12*
G01X5263900Y-8900301D03*
G54D11*
G01X8874887Y-9001900D03*
G01X9128887Y-9001900D03*
G01X9382887Y-9001900D03*
G01X9636887Y-9001900D03*
G01X9890887Y-9001900D03*
G54D13*
G01X10144887Y-9001900D03*
G54D11*
G01X8620887Y-9001900D03*
G01X8366887Y-9001900D03*
G54D14*
G01X5390900Y-4241800D03*
G01X5136900Y-4241800D03*
G01X4882900Y-4241800D03*
G01X4628900Y-4241800D03*
G01X4374900Y-4241800D03*
G01X4120900Y-4241800D03*
G01X4120900Y-5291800D03*
G01X4374900Y-5291800D03*
G01X4628900Y-5291800D03*
G01X4882900Y-5291800D03*
G01X5136900Y-5291800D03*
G01X5390900Y-5291800D03*
G54D11*
G01X8620900Y-4152650D03*
G01X8874900Y-4152650D03*
G01X9128900Y-4152650D03*
G01X9382900Y-4152650D03*
G01X9636900Y-4152650D03*
G01X9890900Y-4152650D03*
G54D15*
G01X3860169Y-3636264D03*
G01X3860169Y-3382264D03*
G01X3860169Y-3128264D03*
G01X3860169Y-2874264D03*
G01X3860169Y-2620264D03*
G01X3860169Y-2366264D03*
G01X3860169Y-2112264D03*
G01X5620262Y-3636264D03*
G01X5620262Y-3382264D03*
G01X5620262Y-3128264D03*
G01X5620262Y-2874264D03*
G01X5620262Y-2620264D03*
G01X5620262Y-2366264D03*
G01X5620262Y-2112264D03*
G36*
G01X4538273Y-2016277D02*
G01X4538831Y-2007235D01*
G01X4540457Y-1998320D01*
G01X4543149Y-1989684D01*
G01X4546858Y-1981403D01*
G01X4551557Y-1973656D01*
G01X4557145Y-1966544D01*
G01X4563546Y-1960118D01*
G01X4570683Y-1954555D01*
G01X4578430Y-1949856D01*
G01X4586685Y-1946148D01*
G01X4595321Y-1943456D01*
G01X4604236Y-1941805D01*
G01X4613279Y-1941271D01*
G01X4622321Y-1941805D01*
G01X4631237Y-1943456D01*
G01X4639873Y-1946148D01*
G01X4648128Y-1949856D01*
G01X4655875Y-1954555D01*
G01X4663012Y-1960118D01*
G01X4669413Y-1966544D01*
G01X4675001Y-1973656D01*
G01X4679674Y-1981403D01*
G01X4683408Y-1989684D01*
G01X4686101Y-1998320D01*
G01X4687726Y-2007235D01*
G01X4688285Y-2016277D01*
G01X4687726Y-2025320D01*
G01X4686101Y-2034210D01*
G01X4683408Y-2042871D01*
G01X4679674Y-2051126D01*
G01X4675001Y-2058873D01*
G01X4669413Y-2066011D01*
G01X4663012Y-2072411D01*
G01X4655875Y-2077999D01*
G01X4648128Y-2082673D01*
G01X4639873Y-2086381D01*
G01X4631237Y-2089099D01*
G01X4622321Y-2090725D01*
G01X4613279Y-2091258D01*
G01X4604236Y-2090725D01*
G01X4595321Y-2089099D01*
G01X4586685Y-2086381D01*
G01X4578430Y-2082673D01*
G01X4570683Y-2077999D01*
G01X4563546Y-2072411D01*
G01X4557145Y-2066011D01*
G01X4551557Y-2058873D01*
G01X4546858Y-2051126D01*
G01X4543149Y-2042871D01*
G01X4540457Y-2034210D01*
G01X4538831Y-2025320D01*
G01X4538273Y-2016277D01*
G37*
G36*
G01X4792273Y-2016277D02*
G01X4792831Y-2007235D01*
G01X4794457Y-1998320D01*
G01X4797149Y-1989684D01*
G01X4800858Y-1981403D01*
G01X4805557Y-1973656D01*
G01X4811145Y-1966544D01*
G01X4817546Y-1960118D01*
G01X4824683Y-1954555D01*
G01X4832430Y-1949856D01*
G01X4840685Y-1946148D01*
G01X4849321Y-1943456D01*
G01X4858236Y-1941805D01*
G01X4867279Y-1941271D01*
G01X4876321Y-1941805D01*
G01X4885237Y-1943456D01*
G01X4893873Y-1946148D01*
G01X4902128Y-1949856D01*
G01X4909875Y-1954555D01*
G01X4917012Y-1960118D01*
G01X4923413Y-1966544D01*
G01X4929001Y-1973656D01*
G01X4933674Y-1981403D01*
G01X4937408Y-1989684D01*
G01X4940101Y-1998320D01*
G01X4941726Y-2007235D01*
G01X4942285Y-2016277D01*
G01X4941726Y-2025320D01*
G01X4940101Y-2034210D01*
G01X4937408Y-2042871D01*
G01X4933674Y-2051126D01*
G01X4929001Y-2058873D01*
G01X4923413Y-2066011D01*
G01X4917012Y-2072411D01*
G01X4909875Y-2077999D01*
G01X4902128Y-2082673D01*
G01X4893873Y-2086381D01*
G01X4885237Y-2089099D01*
G01X4876321Y-2090725D01*
G01X4867279Y-2091258D01*
G01X4858236Y-2090725D01*
G01X4849321Y-2089099D01*
G01X4840685Y-2086381D01*
G01X4832430Y-2082673D01*
G01X4824683Y-2077999D01*
G01X4817546Y-2072411D01*
G01X4811145Y-2066011D01*
G01X4805557Y-2058873D01*
G01X4800858Y-2051126D01*
G01X4797149Y-2042871D01*
G01X4794457Y-2034210D01*
G01X4792831Y-2025320D01*
G01X4792273Y-2016277D01*
G37*
G36*
G01X4792273Y-2270277D02*
G01X4792831Y-2261235D01*
G01X4794457Y-2252320D01*
G01X4797149Y-2243684D01*
G01X4800858Y-2235403D01*
G01X4805557Y-2227656D01*
G01X4811145Y-2220544D01*
G01X4817546Y-2214118D01*
G01X4824683Y-2208555D01*
G01X4832430Y-2203856D01*
G01X4840685Y-2200148D01*
G01X4849321Y-2197456D01*
G01X4858236Y-2195805D01*
G01X4867279Y-2195271D01*
G01X4876321Y-2195805D01*
G01X4885237Y-2197456D01*
G01X4893873Y-2200148D01*
G01X4902128Y-2203856D01*
G01X4909875Y-2208555D01*
G01X4917012Y-2214118D01*
G01X4923413Y-2220544D01*
G01X4929001Y-2227656D01*
G01X4933674Y-2235403D01*
G01X4937408Y-2243684D01*
G01X4940101Y-2252320D01*
G01X4941726Y-2261235D01*
G01X4942285Y-2270277D01*
G01X4941726Y-2279320D01*
G01X4940101Y-2288210D01*
G01X4937408Y-2296871D01*
G01X4933674Y-2305126D01*
G01X4929001Y-2312873D01*
G01X4923413Y-2320011D01*
G01X4917012Y-2326411D01*
G01X4909875Y-2331999D01*
G01X4902128Y-2336673D01*
G01X4893873Y-2340381D01*
G01X4885237Y-2343099D01*
G01X4876321Y-2344725D01*
G01X4867279Y-2345258D01*
G01X4858236Y-2344725D01*
G01X4849321Y-2343099D01*
G01X4840685Y-2340381D01*
G01X4832430Y-2336673D01*
G01X4824683Y-2331999D01*
G01X4817546Y-2326411D01*
G01X4811145Y-2320011D01*
G01X4805557Y-2312873D01*
G01X4800858Y-2305126D01*
G01X4797149Y-2296871D01*
G01X4794457Y-2288210D01*
G01X4792831Y-2279320D01*
G01X4792273Y-2270277D01*
G37*
G36*
G01X4538273Y-2270277D02*
G01X4538831Y-2261235D01*
G01X4540457Y-2252320D01*
G01X4543149Y-2243684D01*
G01X4546858Y-2235403D01*
G01X4551557Y-2227656D01*
G01X4557145Y-2220544D01*
G01X4563546Y-2214118D01*
G01X4570683Y-2208555D01*
G01X4578430Y-2203856D01*
G01X4586685Y-2200148D01*
G01X4595321Y-2197456D01*
G01X4604236Y-2195805D01*
G01X4613279Y-2195271D01*
G01X4622321Y-2195805D01*
G01X4631237Y-2197456D01*
G01X4639873Y-2200148D01*
G01X4648128Y-2203856D01*
G01X4655875Y-2208555D01*
G01X4663012Y-2214118D01*
G01X4669413Y-2220544D01*
G01X4675001Y-2227656D01*
G01X4679674Y-2235403D01*
G01X4683408Y-2243684D01*
G01X4686101Y-2252320D01*
G01X4687726Y-2261235D01*
G01X4688285Y-2270277D01*
G01X4687726Y-2279320D01*
G01X4686101Y-2288210D01*
G01X4683408Y-2296871D01*
G01X4679674Y-2305126D01*
G01X4675001Y-2312873D01*
G01X4669413Y-2320011D01*
G01X4663012Y-2326411D01*
G01X4655875Y-2331999D01*
G01X4648128Y-2336673D01*
G01X4639873Y-2340381D01*
G01X4631237Y-2343099D01*
G01X4622321Y-2344725D01*
G01X4613279Y-2345258D01*
G01X4604236Y-2344725D01*
G01X4595321Y-2343099D01*
G01X4586685Y-2340381D01*
G01X4578430Y-2336673D01*
G01X4570683Y-2331999D01*
G01X4563546Y-2326411D01*
G01X4557145Y-2320011D01*
G01X4551557Y-2312873D01*
G01X4546858Y-2305126D01*
G01X4543149Y-2296871D01*
G01X4540457Y-2288210D01*
G01X4538831Y-2279320D01*
G01X4538273Y-2270277D01*
G37*
G54D17*
G01X4561209Y-3429000D03*
G54D18*
G01X4815209Y-3429000D03*
G36*
G01X4538273Y-2524277D02*
G01X4538831Y-2515235D01*
G01X4540457Y-2506320D01*
G01X4543149Y-2497684D01*
G01X4546858Y-2489403D01*
G01X4551557Y-2481656D01*
G01X4557145Y-2474544D01*
G01X4563546Y-2468118D01*
G01X4570683Y-2462555D01*
G01X4578430Y-2457856D01*
G01X4586685Y-2454148D01*
G01X4595321Y-2451456D01*
G01X4604236Y-2449805D01*
G01X4613279Y-2449271D01*
G01X4622321Y-2449805D01*
G01X4631237Y-2451456D01*
G01X4639873Y-2454148D01*
G01X4648128Y-2457856D01*
G01X4655875Y-2462555D01*
G01X4663012Y-2468118D01*
G01X4669413Y-2474544D01*
G01X4675001Y-2481656D01*
G01X4679674Y-2489403D01*
G01X4683408Y-2497684D01*
G01X4686101Y-2506320D01*
G01X4687726Y-2515235D01*
G01X4688285Y-2524277D01*
G01X4687726Y-2533294D01*
G01X4686101Y-2542210D01*
G01X4683408Y-2550871D01*
G01X4679674Y-2559126D01*
G01X4675001Y-2566873D01*
G01X4669413Y-2574011D01*
G01X4663012Y-2580411D01*
G01X4655875Y-2585999D01*
G01X4648128Y-2590673D01*
G01X4639873Y-2594381D01*
G01X4631237Y-2597099D01*
G01X4622321Y-2598725D01*
G01X4613279Y-2599258D01*
G01X4604236Y-2598725D01*
G01X4595321Y-2597099D01*
G01X4586685Y-2594381D01*
G01X4578430Y-2590673D01*
G01X4570683Y-2585999D01*
G01X4563546Y-2580411D01*
G01X4557145Y-2574011D01*
G01X4551557Y-2566873D01*
G01X4546858Y-2559126D01*
G01X4543149Y-2550871D01*
G01X4540457Y-2542210D01*
G01X4538831Y-2533294D01*
G01X4538273Y-2524277D01*
G37*
G36*
G01X4792273Y-2524277D02*
G01X4792831Y-2515235D01*
G01X4794457Y-2506320D01*
G01X4797149Y-2497684D01*
G01X4800858Y-2489403D01*
G01X4805557Y-2481656D01*
G01X4811145Y-2474544D01*
G01X4817546Y-2468118D01*
G01X4824683Y-2462555D01*
G01X4832430Y-2457856D01*
G01X4840685Y-2454148D01*
G01X4849321Y-2451456D01*
G01X4858236Y-2449805D01*
G01X4867279Y-2449271D01*
G01X4876321Y-2449805D01*
G01X4885237Y-2451456D01*
G01X4893873Y-2454148D01*
G01X4902128Y-2457856D01*
G01X4909875Y-2462555D01*
G01X4917012Y-2468118D01*
G01X4923413Y-2474544D01*
G01X4929001Y-2481656D01*
G01X4933674Y-2489403D01*
G01X4937408Y-2497684D01*
G01X4940101Y-2506320D01*
G01X4941726Y-2515235D01*
G01X4942285Y-2524277D01*
G01X4941726Y-2533294D01*
G01X4940101Y-2542210D01*
G01X4937408Y-2550871D01*
G01X4933674Y-2559126D01*
G01X4929001Y-2566873D01*
G01X4923413Y-2574011D01*
G01X4917012Y-2580411D01*
G01X4909875Y-2585999D01*
G01X4902128Y-2590673D01*
G01X4893873Y-2594381D01*
G01X4885237Y-2597099D01*
G01X4876321Y-2598725D01*
G01X4867279Y-2599258D01*
G01X4858236Y-2598725D01*
G01X4849321Y-2597099D01*
G01X4840685Y-2594381D01*
G01X4832430Y-2590673D01*
G01X4824683Y-2585999D01*
G01X4817546Y-2580411D01*
G01X4811145Y-2574011D01*
G01X4805557Y-2566873D01*
G01X4800858Y-2559126D01*
G01X4797149Y-2550871D01*
G01X4794457Y-2542210D01*
G01X4792831Y-2533294D01*
G01X4792273Y-2524277D01*
G37*
G36*
G01X4538273Y-2778277D02*
G01X4538831Y-2769235D01*
G01X4540457Y-2760320D01*
G01X4543149Y-2751684D01*
G01X4546858Y-2743403D01*
G01X4551557Y-2735656D01*
G01X4557145Y-2728544D01*
G01X4563546Y-2722118D01*
G01X4570683Y-2716530D01*
G01X4578430Y-2711856D01*
G01X4586685Y-2708148D01*
G01X4595321Y-2705456D01*
G01X4604236Y-2703805D01*
G01X4613279Y-2703271D01*
G01X4622321Y-2703805D01*
G01X4631237Y-2705456D01*
G01X4639873Y-2708148D01*
G01X4648128Y-2711856D01*
G01X4655875Y-2716530D01*
G01X4663012Y-2722118D01*
G01X4669413Y-2728544D01*
G01X4675001Y-2735656D01*
G01X4679674Y-2743403D01*
G01X4683408Y-2751684D01*
G01X4686101Y-2760320D01*
G01X4687726Y-2769235D01*
G01X4688285Y-2778277D01*
G01X4687726Y-2787294D01*
G01X4686101Y-2796210D01*
G01X4683408Y-2804871D01*
G01X4679674Y-2813126D01*
G01X4675001Y-2820873D01*
G01X4669413Y-2828011D01*
G01X4663012Y-2834411D01*
G01X4655875Y-2839999D01*
G01X4648128Y-2844673D01*
G01X4639873Y-2848381D01*
G01X4631237Y-2851099D01*
G01X4622321Y-2852725D01*
G01X4613279Y-2853258D01*
G01X4604236Y-2852725D01*
G01X4595321Y-2851099D01*
G01X4586685Y-2848381D01*
G01X4578430Y-2844673D01*
G01X4570683Y-2839999D01*
G01X4563546Y-2834411D01*
G01X4557145Y-2828011D01*
G01X4551557Y-2820873D01*
G01X4546858Y-2813126D01*
G01X4543149Y-2804871D01*
G01X4540457Y-2796210D01*
G01X4538831Y-2787294D01*
G01X4538273Y-2778277D01*
G37*
G36*
G01X4792273Y-2778277D02*
G01X4792831Y-2769235D01*
G01X4794457Y-2760320D01*
G01X4797149Y-2751684D01*
G01X4800858Y-2743403D01*
G01X4805557Y-2735656D01*
G01X4811145Y-2728544D01*
G01X4817546Y-2722118D01*
G01X4824683Y-2716530D01*
G01X4832430Y-2711856D01*
G01X4840685Y-2708148D01*
G01X4849321Y-2705456D01*
G01X4858236Y-2703805D01*
G01X4867279Y-2703271D01*
G01X4876321Y-2703805D01*
G01X4885237Y-2705456D01*
G01X4893873Y-2708148D01*
G01X4902128Y-2711856D01*
G01X4909875Y-2716530D01*
G01X4917012Y-2722118D01*
G01X4923413Y-2728544D01*
G01X4929001Y-2735656D01*
G01X4933674Y-2743403D01*
G01X4937408Y-2751684D01*
G01X4940101Y-2760320D01*
G01X4941726Y-2769235D01*
G01X4942285Y-2778277D01*
G01X4941726Y-2787294D01*
G01X4940101Y-2796210D01*
G01X4937408Y-2804871D01*
G01X4933674Y-2813126D01*
G01X4929001Y-2820873D01*
G01X4923413Y-2828011D01*
G01X4917012Y-2834411D01*
G01X4909875Y-2839999D01*
G01X4902128Y-2844673D01*
G01X4893873Y-2848381D01*
G01X4885237Y-2851099D01*
G01X4876321Y-2852725D01*
G01X4867279Y-2853258D01*
G01X4858236Y-2852725D01*
G01X4849321Y-2851099D01*
G01X4840685Y-2848381D01*
G01X4832430Y-2844673D01*
G01X4824683Y-2839999D01*
G01X4817546Y-2834411D01*
G01X4811145Y-2828011D01*
G01X4805557Y-2820873D01*
G01X4800858Y-2813126D01*
G01X4797149Y-2804871D01*
G01X4794457Y-2796210D01*
G01X4792831Y-2787294D01*
G01X4792273Y-2778277D01*
G37*
G54D19*
G01X5867802Y-5690700D03*
G01X6117801Y-5690700D03*
G01X6367801Y-5690700D03*
G01X6617800Y-5690700D03*
G01X6617800Y-3990703D03*
G01X6367801Y-3990703D03*
G01X6117801Y-3990703D03*
G01X5867802Y-3990703D03*
G01X3646399Y-3990703D03*
G01X3396399Y-3990703D03*
G01X3146400Y-3990703D03*
G01X2896400Y-3990703D03*
G01X2896400Y-5690700D03*
G01X3146400Y-5690700D03*
G01X3396399Y-5690700D03*
G01X3646399Y-5690700D03*
G04 Pad End*

G04 Via Start*
G54D20*
G01X9385300Y-3881379D03*
G01X4495800Y-2959100D03*
G01X6235700Y-2108200D03*
G04 Via End*

G04 Track Start*
G54D21*
G01X3646399Y-5690700D02*
G01X5867802Y-5690700D01*
G01X3396399Y-5690700D02*
G01X3446943Y-5690700D01*
G01X5939358Y-5562800D02*
G01X6067258Y-5690700D01*
G01X6117801Y-5690700D01*
G01X3446943Y-5690700D02*
G01X3574842Y-5562800D01*
G01X5939358Y-5562800D01*
G01X3146400Y-5690700D02*
G01X3196943Y-5690700D01*
G01X6317257Y-5690700D02*
G01X6367801Y-5690700D01*
G01X3196943Y-5690700D02*
G01X3360443Y-5527200D01*
G01X6153758Y-5527200D01*
G01X6317257Y-5690700D01*
G01X2896400Y-5690700D02*
G01X2946944Y-5690700D01*
G01X6567257Y-5690700D02*
G01X6617800Y-5690700D01*
G01X2946944Y-5690700D02*
G01X3146043Y-5491600D01*
G01X6368157Y-5491600D01*
G01X6567257Y-5690700D01*
G01X8727408Y-4005158D02*
G01X8733391Y-4011142D01*
G01X8874900Y-4152650D01*
G01X5620262Y-2620264D02*
G01X7088514Y-2620264D01*
G01X8620900Y-4152650D01*
G01X8762408Y-4294158D01*
G01X8768391Y-4300142D01*
G01X10144887Y-5676637D01*
G01X10144887Y-7686674D01*
G02X10207854Y-7833500I-139700J-146825D01*
G02X10144887Y-7980325I-202667J-0D01*
G01X8874900Y-4152650D02*
G01X9016408Y-4294158D01*
G01X9022391Y-4300142D01*
G01X9128900Y-4152650D02*
G01X9140000Y-4152650D01*
G01X9265000Y-4027650D01*
G02X9292900Y-3999750I27900J0D01*
G01X9472900Y-3999750D01*
G02X9500800Y-4027650I0J-27900D01*
G01X9500800Y-4468750D01*
G01X2896400Y-3990703D02*
G01X4069597Y-5163901D01*
G01X4681878Y-5163901D01*
G01X4809778Y-5291800D01*
G01X4882900Y-5291800D01*
G01X3146400Y-3990703D02*
G01X3196943Y-3990703D01*
G01X4235440Y-5029200D01*
G01X5128299Y-5029200D01*
G01X5390900Y-5291800D01*
G01X3396399Y-3990703D02*
G01X3646399Y-3990703D01*
G01X4427878Y-4369700D02*
G01X4555778Y-4241800D01*
G01X4628900Y-4241800D01*
G01X3646399Y-3990703D02*
G01X4025395Y-4369700D01*
G01X4427878Y-4369700D01*
G01X4628900Y-5291800D02*
G01X4702022Y-5291800D01*
G01X4829922Y-5419700D01*
G01X5443878Y-5419700D01*
G01X5518800Y-5344778D01*
G01X5518800Y-5238823D01*
G01X4628900Y-4348923D01*
G01X4628900Y-4241800D01*
G01X4882900Y-4241800D02*
G01X4882900Y-3580750D01*
G01X5379862Y-2791764D02*
G02X5407762Y-2763863I27900J0D01*
G01X5476663Y-2763863D01*
G01X5620262Y-2620264D01*
G01X4882900Y-3580750D02*
G01X5379862Y-3083788D01*
G01X5379862Y-2791764D01*
G01X5379862Y-2537764D02*
G02X5407762Y-2509863I27900J0D01*
G01X5518662Y-2509863D01*
G01X5620262Y-2408263D01*
G01X5620262Y-2366264D01*
G01X4628900Y-4241800D02*
G01X4732318Y-4138382D01*
G01X4732318Y-3185307D01*
G01X5379862Y-2537764D01*
G01X5379862Y-2448764D02*
G01X5379862Y-2283764D01*
G02X5407762Y-2255863I27900J0D01*
G01X5832762Y-2255863D01*
G02X5860662Y-2283764I0J-27900D01*
G01X3860169Y-3382264D02*
G01X4382154Y-3382264D01*
G01X4569898Y-3194520D01*
G01X4634107Y-3194520D01*
G01X5379862Y-2448764D01*
G01X5860662Y-2283764D02*
G01X7056359Y-2283764D01*
G01X8742154Y-3969558D01*
G01X9049558Y-3969558D01*
G01X9067519Y-3987519D01*
G01X9067519Y-4091269D01*
G01X9128900Y-4152650D01*
G01X3860169Y-3128264D02*
G01X4650016Y-3128264D01*
G01X4764372Y-3013908D01*
G01X4764372Y-2735835D01*
G01X4824836Y-2675371D01*
G01X4929412Y-2675371D01*
G01X5352769Y-2252014D01*
G01X5379862Y-2194764D02*
G01X5379862Y-2029764D01*
G02X5407762Y-2001863I27900J0D01*
G01X5832762Y-2001863D01*
G02X5860662Y-2029764I0J-27900D01*
G01X5352769Y-2252014D02*
G01X5352769Y-2221857D01*
G01X5379862Y-2194764D01*
G01X5860662Y-2029764D02*
G01X6852705Y-2029764D01*
G01X8704321Y-3881379D01*
G01X9385300Y-3881379D01*
G01X5620262Y-2366264D02*
G01X7088514Y-2366264D01*
G01X8727408Y-4005158D01*
G01X3860169Y-2620264D02*
G01X4156964Y-2620264D01*
G01X4495800Y-2959100D01*
G01X5620262Y-2112264D02*
G01X6231636Y-2112264D01*
G01X6235700Y-2108200D01*
G01X9500800Y-4468750D02*
G01X10426700Y-5394650D01*
G01X9022391Y-4300142D02*
G01X10375900Y-5653650D01*
G01X10426700Y-5394650D02*
G01X10426700Y-9093200D01*
G01X10342700Y-9177200D01*
G01X9812187Y-9177200D01*
G01X10375900Y-5653650D02*
G01X10375900Y-9029700D01*
G01X10274300Y-9131300D01*
G01X10020287Y-9131300D01*
G01X9636887Y-9001900D02*
G01X9371973Y-9266814D01*
G01X5376412Y-9266814D01*
G01X5009900Y-8900301D01*
G01X9812187Y-9177200D02*
G01X9636887Y-9001900D01*
G01X9382887Y-9001900D02*
G01X9153573Y-9231214D01*
G01X5594813Y-9231214D02*
G01X5263900Y-8900301D01*
G01X9153573Y-9231214D02*
G01X5594813Y-9231214D01*
G01X9890887Y-9001900D02*
G01X9800088Y-9001900D01*
G01X9582938Y-8784751D01*
G01X4962250Y-8784751D01*
G01X4846699Y-8900301D01*
G01X4755900Y-8900301D01*
G01X10020287Y-9131300D02*
G01X9890887Y-9001900D01*
G01X10043289Y-8900301D02*
G01X10144887Y-9001900D01*
G01X4247900Y-8900301D02*
G01X4338487Y-8900301D01*
G01X4454037Y-9015852D01*
G01X4549763Y-9015852D01*
G01X4617451Y-8948164D01*
G01X4617451Y-8923351D01*
G01X4640500Y-8900301D01*
G01X4640500Y-8852501D01*
G01X9952489Y-8900301D02*
G01X10043289Y-8900301D01*
G01X4640500Y-8852501D02*
G01X4743850Y-8749151D01*
G01X9801339Y-8749151D01*
G01X9952489Y-8900301D01*
G01X10144887Y-7980325D02*
G01X10144887Y-9001900D01*
G04 Track End*

M02*

